<?xml version="1.0" standalone="no"?>
<!DOCTYPE svg PUBLIC "-//W3C//DTD SVG 1.1//EN" "http://www.w3.org/Graphics/SVG/1.1/DTD/svg11.dtd" >
<svg>
<metadata>
Created by FontForge 20090622 at Sun Oct  4 23:20:11 2015
 By deploy user
&#194;&#169; 2014 Sergiy S. Tkachenko / 4th february
&#194;&#169; 2014 FirstSiteGuide.com
http://creativecommons.org/licenses/by-nd/4.0/
</metadata>
<defs>
<font id="BloggerSans-Light" horiz-adv-x="250" >
  <font-face 
    font-family="Blogger Sans Light"
    font-weight="300"
    font-stretch="squinchy"
    units-per-em="1000"
    panose-1="2 0 5 6 3 0 0 2 0 4"
    ascent="760"
    descent="-240"
    x-height="505"
    cap-height="705"
    bbox="-69.4706 -249 846.562 945"
    underline-thickness="20"
    underline-position="-123"
    unicode-range="U+0020-U+F0434"
  />
<missing-glyph horiz-adv-x="760" 
 />
    <glyph glyph-name="ff" unicode="ff" horiz-adv-x="598" 
d="M355 27v519q0 90 47.5 137t126.5 50q9 1 20.5 0t27.5 -4t26.5 -12t10.5 -23t-9 -22t-22 -8q-12 0 -22 2q-35 5 -41 5q-47 0 -73.5 -33.5t-26.5 -83.5v-71h116q12 0 20.5 -9t8.5 -22q0 -12 -9 -20.5t-20 -8.5h-116v-396q0 -31 -32 -31q-15 0 -24 8.5t-9 22.5zM78 27v519
q0 90 47.5 137t125.5 50q9 1 20.5 0t28 -4t27 -12t10.5 -23t-9 -22t-22 -8t-23 2q-33 5 -40 5q-47 0 -73.5 -33.5t-26.5 -83.5v-71h116q12 0 20 -9t8 -22q0 -12 -8.5 -20.5t-19.5 -8.5h-116v-396q0 -31 -32 -31q-15 0 -24 8.5t-9 22.5z" />
    <glyph glyph-name="fi" unicode="fi" horiz-adv-x="517" 
d="M451 681q0 -17 -12 -29t-29 -12t-29.5 12t-12.5 29q0 18 12.5 30t29.5 12t29 -12t12 -30zM442 25q0 -13 -9 -22.5t-23 -9.5t-23.5 9.5t-9.5 22.5v454q0 13 9.5 23t23.5 10q13 0 22.5 -9.5t9.5 -23.5v-454zM79 27v519q0 90 42 137t111 50q9 1 20.5 0t27.5 -4t26.5 -12
t10.5 -23t-8.5 -22t-21.5 -8t-23 2q-35 5 -40 5q-37 0 -58.5 -33.5t-21.5 -83.5v-71h116q12 0 20.5 -9t8.5 -22q0 -12 -8.5 -20.5t-20.5 -8.5h-116v-396q0 -31 -32 -31q-15 0 -24 8.5t-9 22.5z" />
    <glyph glyph-name="fl" unicode="fl" horiz-adv-x="517" 
d="M79 27v519q0 90 42 137t111 50q9 1 20.5 0t27.5 -4t26.5 -12t10.5 -23t-9 -22t-22 -8q-12 0 -22 2q-35 5 -40 5q-37 0 -58.5 -33.5t-21.5 -83.5v-71h116q12 0 20.5 -9t8.5 -22q0 -12 -8.5 -20.5t-20.5 -8.5h-116v-396q0 -31 -32 -31q-15 0 -24 8.5t-9 22.5zM377 90v610
q0 13 10 23t23 10t22.5 -9.5t9.5 -23.5v-610q0 -36 15 -52q0 -1 2 -3q5 -7 5 -13q0 -13 -8.5 -21t-20.5 -8q-58 0 -58 97z" />
    <glyph glyph-name="ffi" unicode="ffi" horiz-adv-x="754" 
d="M695 681q0 -17 -12.5 -29t-28.5 -12q-18 0 -30.5 12t-12.5 29q0 18 12.5 30t30.5 12q17 0 29 -12t12 -30zM686 25q0 -13 -9.5 -22.5t-22.5 -9.5q-14 0 -23.5 9t-9.5 23v454q0 14 9.5 23.5t23.5 9.5q13 0 22.5 -10t9.5 -23v-454zM343 27v519q0 90 42 137t111 50q6 1 15 0
t21.5 -4t20.5 -12t8 -23t-9 -22t-22 -8q-5 0 -13 2q-25 5 -29 5q-37 0 -58.5 -33.5t-21.5 -83.5v-71h116q12 0 20.5 -9t8.5 -22q0 -12 -8.5 -20.5t-20.5 -8.5h-116v-396q0 -31 -32 -31q-15 0 -24 8.5t-9 22.5zM78 27v519q0 90 47.5 137t125.5 50q9 1 20.5 0t27.5 -4
t26.5 -12t10.5 -23t-9 -22t-22 -8q-12 0 -22 2q-35 5 -41 5q-47 0 -73 -33.5t-26 -83.5v-71h115q12 0 20.5 -9t8.5 -22q0 -12 -9 -20.5t-20 -8.5h-115v-396q0 -31 -32 -31q-33 0 -33 31z" />
    <glyph glyph-name="ffl" unicode="ffl" horiz-adv-x="785" 
d="M353 27v519q0 90 42 137t111 50q9 1 20.5 0t27.5 -4t27 -12t11 -23t-9 -22t-22 -8t-23 2q-33 5 -40 5q-37 0 -58.5 -33.5t-21.5 -83.5v-71h116q12 0 20.5 -9t8.5 -22q0 -12 -8.5 -20.5t-20.5 -8.5h-116v-396q0 -31 -32 -31q-15 0 -24 8.5t-9 22.5zM651 90v610q0 13 10 23
t23 10t22.5 -9.5t9.5 -23.5v-610q0 -36 18 -54q4 -6 4 -14q0 -13 -8 -21t-21 -8q-58 0 -58 97zM77 27v519q0 90 47.5 137t125.5 50q9 1 20.5 0t28 -4t27 -12t10.5 -23t-9 -22t-22 -8q-11 0 -23 2q-32 5 -40 5q-47 0 -73.5 -33.5t-26.5 -83.5v-71h116q12 0 20 -9t8 -22
q0 -12 -8.5 -20.5t-19.5 -8.5h-116v-396q0 -31 -32 -31q-15 0 -24 8.5t-9 22.5z" />
    <glyph glyph-name="uni0457_uni0457" unicode="&#x457;&#x457;" horiz-adv-x="480" 
d="M156 25q0 -13 -9.5 -22.5t-22.5 -9.5q-14 0 -23.5 9t-9.5 23v454q0 14 9.5 23.5t23.5 9.5q13 0 22.5 -10t9.5 -23v-454zM288 631q0 -20 -13.5 -34t-32.5 -14q-20 0 -34 14.5t-14 33.5q0 18 14.5 32t33.5 14t32.5 -13.5t13.5 -32.5zM73 631q0 -20 -13.5 -34t-32.5 -14
t-32.5 14t-13.5 34q0 18 13.5 32t32.5 14t32.5 -13.5t13.5 -32.5zM391 25q0 -13 -9.5 -22.5t-22.5 -9.5q-14 0 -23.5 9t-9.5 23v454q0 14 9.5 23.5t23.5 9.5q13 0 22.5 -10t9.5 -23v-454zM502 631q0 -20 -13.5 -34t-32.5 -14q-20 0 -34 14.5t-14 33.5q0 18 14.5 32t33.5 14
t32.5 -13.5t13.5 -32.5z" />
    <glyph glyph-name=".notdef" horiz-adv-x="760" 
 />
    <glyph glyph-name=".null" horiz-adv-x="0" 
 />
    <glyph glyph-name="nonmarkingreturn" horiz-adv-x="333" 
 />
    <glyph glyph-name="space" unicode=" " horiz-adv-x="300" 
 />
    <glyph glyph-name="exclam" unicode="!" horiz-adv-x="227" 
d="M91 199l-11 484q0 13 10.5 23t23.5 10q14 0 23.5 -10t10.5 -23l-11 -484q0 -10 -7 -17t-16 -7q-10 0 -16.5 7t-6.5 17zM162 39q0 -20 -13.5 -34t-32.5 -14q-20 0 -34 14t-14 34q0 19 14.5 33t33.5 14t32.5 -14t13.5 -33z" />
    <glyph glyph-name="quotedbl" unicode="&#x22;" horiz-adv-x="342" 
d="M62 487l30 249q3 11 14.5 18t25.5 6q15 -2 23.5 -12t4.5 -22l-57 -247q-3 -16 -24 -18q-8 2 -13 10.5t-4 15.5zM195 487l30 249q3 11 14.5 18t25.5 6q14 -2 22.5 -12t5.5 -22l-57 -247q-3 -16 -24 -18q-8 2 -13.5 10t-3.5 16z" />
    <glyph glyph-name="numbersign" unicode="#" horiz-adv-x="541" 
d="M110 479h68l47 211q7 23 31 23q10 -2 18 -10.5t7 -19.5v-7l-44 -197h125l47 211q7 21 29 23q12 -2 20 -10t7 -20v-7l-44 -197h45q12 0 22 -9.5t10 -22.5t-9.5 -22.5t-22.5 -9.5h-59l-27 -120h55q13 0 22.5 -9.5t9.5 -22.5t-9.5 -22.5t-22.5 -9.5h-69l-47 -214
q-7 -23 -31 -23l1 -1q-12 2 -20 10.5t-8 21.5q0 3 2 7l44 199h-125l-47 -214q-7 -23 -31 -23l1 -1q-12 2 -20 11t-8 21q0 3 2 7l44 199h-43q-14 0 -23.5 9t-9.5 23q0 13 10 22.5t23 9.5h57l27 120h-54q-14 0 -23 9.5t-9 22.5t10 22.5t22 9.5zM223 415l-27 -120h125l26 120
h-124z" />
    <glyph glyph-name="dollar" unicode="$" horiz-adv-x="500" 
d="M234 -36v56q-65 2 -122.5 19.5t-57.5 49.5q0 12 9.5 22.5t21.5 10.5q5 0 34 -12q49 -20 115 -24v245q-43 14 -67 25t-54 31.5t-44 51t-14 72.5q0 76 47.5 121t131.5 53v57q0 8 6 13.5t14 5.5q7 0 12.5 -5.5t5.5 -13.5v-57q149 -13 149 -62q0 -13 -8.5 -21.5t-23.5 -8.5
q-16 0 -36 9q-28 12 -81 18v-233q33 -11 53.5 -19t47 -23.5t41.5 -32.5t26 -44t11 -61q0 -77 -49 -125.5t-130 -60.5v-57q0 -8 -5 -13t-13 -5t-14 5.5t-6 12.5zM380 199q0 72 -62 101q-2 1 -8 3.5l-15.5 6.5t-22.5 8v-231q108 18 108 112zM189 418q2 -1 20 -8.5t25 -11.5
v221q-109 -15 -109 -102q0 -68 64 -99z" />
    <glyph glyph-name="percent" unicode="%" horiz-adv-x="703" 
d="M196 406q-64 0 -100.5 43.5t-36.5 111.5t36 112t101 44t100.5 -43.5t35.5 -112.5q0 -68 -35.5 -111.5t-100.5 -43.5zM514 -9q-65 0 -101 43.5t-36 111.5t36 112t101 44q64 0 100 -44t36 -112t-35.5 -111.5t-100.5 -43.5zM553 674l-344 -661v1q-12 -21 -35 -16h1
q-27 11 -19 38v-1l4 8l344 660v-1q13 20 35 14q10 -4 15 -15.5t1 -23.5q0 -1 -2 -3zM196 454q82 0 82 109q0 106 -82 106t-82 -106q0 -109 82 -109zM514 39q82 0 82 109q0 106 -82 106q-83 0 -83 -106q0 -109 83 -109z" />
    <glyph glyph-name="ampersand" unicode="&#x26;" horiz-adv-x="642" 
d="M596 24q0 -14 -8.5 -23.5t-21.5 -9.5q-15 0 -30 18l-71 84q-100 -102 -209 -102q-90 0 -147 53t-57 133q0 72 43.5 123t114.5 93q-89 97 -89 169q0 69 49.5 110.5t117.5 41.5q64 0 110.5 -38.5t46.5 -86.5q0 -13 -9.5 -22t-21.5 -9q-22 0 -29 24q-8 30 -34 52.5t-60 22.5
q-43 0 -74.5 -27t-31.5 -70q0 -20 12.5 -44.5t27.5 -44t43 -52.5l195 -226q30 47 69 129q9 21 28 21q12 0 21 -9t9 -22q0 -54 -84 -170l83 -99q7 -7 7 -19zM425 142l-178 204q-132 -71 -132 -161q0 -56 37.5 -96t97.5 -40q91 0 175 93z" />
    <glyph glyph-name="quotesingle" unicode="'" horiz-adv-x="222" 
d="M63 487l30 249q3 11 14.5 18t25.5 6q14 -2 22.5 -12t5.5 -22l-57 -247q-3 -16 -25 -18q-8 2 -12.5 10.5t-3.5 15.5z" />
    <glyph glyph-name="parenleft" unicode="(" horiz-adv-x="276" 
d="M137 219q0 -219 99 -405q10 -20 10 -23q0 -15 -8 -25t-23 -10q-18 0 -28 15q-56 97 -85.5 215t-29.5 233q0 114 29.5 232t85.5 215q12 17 28 17q15 0 23 -11t8 -25q0 -4 -10 -24q-99 -184 -99 -404z" />
    <glyph glyph-name="parenright" unicode=")" horiz-adv-x="275" 
d="M140 219q0 222 -98 404q-11 18 -11 24q0 14 8.5 25t23.5 11q14 0 28 -17q55 -96 84.5 -214t29.5 -233t-29.5 -233.5t-84.5 -214.5q-12 -15 -28 -15q-15 0 -23.5 10.5t-8.5 24.5q0 5 11 23q98 184 98 405z" />
    <glyph glyph-name="asterisk" unicode="*" horiz-adv-x="495" 
d="M437 599v-1q8 -22 -22 -36l-130 -36l84 -106q17 -26 -5 -41q-12 -7 -22.5 -4.5t-17.5 11.5l-74 115l-75 -114q-18 -22 -41 -8q-10 7 -10.5 20t6.5 21l85 106l-131 36q-28 13 -21 37q9 27 37 17l128 -48l-7 135q-1 12 6.5 21.5t22.5 9.5q14 0 21.5 -9.5t6.5 -21.5l-7 -135
l127 48q29 10 39 -17z" />
    <glyph glyph-name="plus" unicode="+" horiz-adv-x="500" 
d="M220 141v182h-171q-13 0 -22.5 9.5t-9.5 22.5t10 22.5t22 9.5h171v181q0 13 9.5 23t23.5 10q13 0 22 -9.5t9 -23.5v-181h172q12 0 22 -9.5t10 -22.5t-9.5 -22.5t-22.5 -9.5h-172v-182q0 -13 -9 -22.5t-22 -9.5q-14 0 -23.5 10t-9.5 22z" />
    <glyph glyph-name="comma" unicode="," horiz-adv-x="230" 
d="M162 39q0 -48 -25 -104t-44 -56q-13 0 -13 10t18 44q14 24 22 56q-22 2 -37 16t-15 34q0 19 14.5 33t33.5 14t32.5 -14t13.5 -33z" />
    <glyph glyph-name="hyphen" unicode="-" horiz-adv-x="399" 
d="M357 294q0 -12 -8 -20t-20 -8h-255q-13 0 -21.5 8t-8.5 20q0 13 8.5 22t21.5 9h255q12 0 20 -9t8 -22z" />
    <glyph glyph-name="period" unicode="." horiz-adv-x="230" 
d="M162 39q0 -20 -13.5 -34t-32.5 -14q-20 0 -34 14t-14 34q0 19 14.5 33t33.5 14t32.5 -14t13.5 -33z" />
    <glyph glyph-name="slash" unicode="/" horiz-adv-x="280" 
d="M302 720l-264 -744q-8 -23 -34 -20q-13 2 -20 12.5t-5 24.5q0 3 2 7l263 740q8 22 34 19q12 -2 20 -14.5t4 -24.5z" />
    <glyph glyph-name="zero" unicode="0" horiz-adv-x="500" 
d="M253 667q-68 0 -100.5 -42.5t-32.5 -116.5v-313q0 -66 35 -105t98 -39t97 39t34 105v313q0 74 -32 116.5t-99 42.5zM253 726q98 0 147.5 -63.5t49.5 -162.5v-305q0 -89 -52.5 -146.5t-144.5 -57.5q-93 0 -146 57.5t-53 146.5v305q0 99 50 162.5t149 63.5z" />
    <glyph glyph-name="one" unicode="1" horiz-adv-x="500" 
d="M282 25v606l-137 -87q-25 -19 -41 -19q-11 0 -20 8t-9 19q0 18 16 29l201 129q11 6 20 6q16 0 26 -10.5t10 -26.5v-654q0 -14 -9.5 -23.5t-23.5 -9.5q-13 0 -23 10t-10 23z" />
    <glyph glyph-name="two" unicode="2" horiz-adv-x="500" 
d="M453 32q0 -13 -9 -22t-23 -9h-336q-15 0 -25 10t-10 25q0 23 6 37q38 90 179 226q70 68 92 93q57 66 57 135q0 63 -34.5 101.5t-98.5 38.5q-54 0 -101 -20q-13 -6 -27 -16q-20 -12 -31 -12q-12 0 -21.5 8.5t-9.5 21.5q0 17 23 33q76 44 168 44q91 0 144 -53.5t53 -134.5
q0 -104 -72 -183q-27 -33 -84 -87q-122 -114 -165 -205h293q13 0 22.5 -9t9.5 -22z" />
    <glyph glyph-name="three" unicode="3" horiz-adv-x="500" 
d="M416 642l-181 -232q94 -2 153 -53.5t59 -139.5t-53.5 -156.5t-155.5 -68.5q-20 0 -45.5 2.5t-58 9t-54.5 21t-22 34.5q0 13 8.5 22.5t21.5 9.5q6 0 18 -6q70 -35 129 -35q77 0 111.5 48t34.5 115q0 72 -39.5 106t-106.5 34q-19 0 -37 -8q-11 -5 -24 -5q-16 0 -24 17t4 32
l193 250h-244q-13 0 -22.5 9t-9.5 22q0 14 9.5 24.5t22.5 10.5h286q15 0 25 -10.5t10 -28.5q0 -15 -8 -24z" />
    <glyph glyph-name="four" unicode="4" horiz-adv-x="500" 
d="M402 153v-129q0 -13 -9.5 -22.5t-22.5 -9.5q-14 0 -23.5 9.5t-9.5 22.5v129h-262q-15 0 -25 10.5t-10 25.5q0 7 8 25l196 491q13 19 28 19q12 0 22 -10t10 -23q0 -8 -1 -11l-187 -465h221v207q0 14 9.5 23.5t23.5 9.5q13 0 22.5 -10t9.5 -23v-207h52q12 0 20.5 -9.5
t8.5 -21.5q0 -13 -8.5 -22t-20.5 -9h-52z" />
    <glyph glyph-name="five" unicode="5" horiz-adv-x="500" 
d="M447 223q0 -59 -19.5 -109.5t-66 -86t-112.5 -35.5q-21 0 -48 2.5t-62 9t-58 21t-23 34.5q0 13 8.5 22.5t21.5 9.5q6 0 18 -6v1q56 -36 119 -36q83 0 119.5 48t36.5 121q0 77 -37.5 117.5t-97.5 40.5q-40 0 -79 -22l-21 -14q-17 -13 -30 -13q-15 0 -25 10.5t-9 25.5
l10 305q1 18 13 28t27 10h246q39 0 39 -32q0 -29 -39 -29h-228l-8 -242q53 30 106 30q89 0 144 -56.5t55 -154.5z" />
    <glyph glyph-name="six" unicode="6" horiz-adv-x="500" 
d="M115 385q58 47 146 47q86 0 141.5 -56t55.5 -158q0 -99 -52.5 -163t-151.5 -64q-114 0 -161 89.5t-47 251.5q0 187 55 285.5t163 98.5q17 0 38 -2t48 -6.5t45 -15t18 -25.5q0 -11 -8.5 -20t-20.5 -9q-6 0 -20 4q-53 16 -87 16q-91 0 -126.5 -72.5t-35.5 -200.5zM113 308
v-28q0 -49 6 -86t21 -70t44.5 -51t73.5 -18q70 0 102.5 45.5t32.5 115.5q0 76 -36.5 115t-98.5 39q-43 0 -83 -17.5t-62 -44.5z" />
    <glyph glyph-name="seven" unicode="7" horiz-adv-x="500" 
d="M449 672q0 -12 -3 -19l-255 -641q-8 -20 -29 -20q-13 0 -23 8t-11 20q0 8 3 17v-1l244 606h-288q-12 0 -22 9t-10 22q0 15 9.5 24.5t22.5 9.5h327q15 0 25 -10t10 -25z" />
    <glyph glyph-name="eight" unicode="8" horiz-adv-x="500" 
d="M470 192q0 -87 -61 -144t-156 -57t-157.5 56t-62.5 141q0 114 134 185q-108 66 -108 166q0 80 55.5 128t137.5 48t137 -48.5t55 -124.5q0 -97 -107 -163q133 -71 133 -187zM380 537q0 53 -36.5 87t-90.5 34q-56 0 -93 -34t-37 -87q0 -52 38 -87t95 -45q53 12 88.5 47.5
t35.5 84.5zM405 193q0 62 -45 101t-111 51q-66 -13 -108.5 -53.5t-42.5 -99.5q0 -61 44.5 -101.5t110.5 -40.5t109 41t43 102z" />
    <glyph glyph-name="nine" unicode="9" horiz-adv-x="500" 
d="M390 335q-47 -60 -146 -60q-86 0 -142 55t-56 160q0 98 51 162t151 64q114 0 162 -90.5t48 -259.5q0 -375 -217 -375q-25 0 -54.5 3t-62.5 14.5t-33 30.5q0 11 9 20.5t21 9.5q5 0 20 -5q56 -15 97 -15q45 0 75.5 22t47 63.5t23 89.5t6.5 111zM392 397v29q0 104 -35.5 165
t-112.5 61q-68 0 -100 -46.5t-32 -116.5q0 -76 36.5 -114t100.5 -38q43 0 81.5 17t61.5 43z" />
    <glyph glyph-name="colon" unicode=":" horiz-adv-x="230" 
d="M162 39q0 -20 -13.5 -34t-32.5 -14q-20 0 -34 14t-14 34q0 19 14.5 33t33.5 14t32.5 -14t13.5 -33zM162 339q0 -20 -13.5 -34t-32.5 -14q-20 0 -34 14t-14 34q0 19 14.5 33t33.5 14t32.5 -14t13.5 -33z" />
    <glyph glyph-name="semicolon" unicode=";" horiz-adv-x="230" 
d="M162 39q0 -48 -25 -104t-44 -56q-13 0 -13 10t18 44q14 24 22 56q-22 2 -37 16t-15 34q0 19 14.5 33t33.5 14t32.5 -14t13.5 -33zM162 339q0 -20 -13.5 -34t-32.5 -14q-20 0 -34 14t-14 34q0 19 14.5 33t33.5 14t32.5 -14t13.5 -33z" />
    <glyph glyph-name="less" unicode="&#x3c;" horiz-adv-x="625" 
d="M154 353l380 -192q23 -12 23 -29q0 -18 -13 -28.5t-28 -3.5l-411 214q-32 16 -32 39t31 39l411 214q16 5 29 -5t13 -27q0 -19 -23 -30z" />
    <glyph glyph-name="equal" unicode="=" horiz-adv-x="500" 
d="M90 295h325q12 0 22 -9.5t10 -22.5t-9.5 -22.5t-22.5 -9.5h-325q-14 0 -23 9.5t-9 22.5t10 22.5t22 9.5zM90 479h325q12 0 22 -9.5t10 -22.5t-9.5 -22.5t-22.5 -9.5h-325q-14 0 -23 9.5t-9 22.5t10 22.5t22 9.5z" />
    <glyph glyph-name="greater" unicode="&#x3e;" horiz-adv-x="625" 
d="M98 161l380 192l-380 191q-25 12 -25 30t14 29t29 3l412 -214q29 -14 29 -39q0 -24 -30 -39l-411 -214q-15 -8 -29 3t-14 29q0 17 25 29z" />
    <glyph glyph-name="question" unicode="?" horiz-adv-x="462" 
d="M269 250q-7 -15 -7 -43q0 -13 -9.5 -22.5t-23.5 -9.5q-13 0 -23 9.5t-10 22.5q0 24 6 37q15 43 74 110q16 16 33 38q57 69 57 135q0 62 -34.5 101t-99.5 39q-53 0 -100 -20q-13 -6 -27 -16q-22 -12 -31 -12q-13 0 -22.5 8.5t-9.5 21.5q0 16 24 33q76 44 167 44
t144.5 -53.5t53.5 -134.5q0 -104 -72 -183q-15 -19 -33 -35q-48 -50 -57 -70zM276 39q0 -20 -13.5 -34t-32.5 -14q-20 0 -34 14t-14 34q0 19 14.5 33t33.5 14t32.5 -14t13.5 -33z" />
    <glyph glyph-name="at" unicode="@" horiz-adv-x="744" 
d="M516 14q-65 -26 -150 -26q-137 0 -217.5 89.5t-80.5 235.5q0 145 80.5 233.5t225.5 88.5q146 0 227.5 -89t81.5 -225q0 -159 -116 -159q-59 0 -93 47q-56 -57 -113 -57q-60 0 -94.5 45t-34.5 116q0 74 38 117.5t108 43.5q64 0 94 -41.5t38 -115.5q7 -96 57 -96
q51 0 51 93q0 117 -63.5 189.5t-179.5 72.5q-115 0 -178.5 -72t-63.5 -193t64 -193t183 -72q57 0 111 22q4 2 7.5 3.5t5 2t4 1t3.5 1.5q11 2 23 -2.5t17 -15.5q3 -24 -35 -44zM444 321q-2 21 -4 32.5t-8.5 29t-21 25.5t-36.5 8q-78 0 -78 -106q0 -102 72 -102q42 0 88 43
q-9 36 -12 70z" />
    <glyph glyph-name="A" unicode="A" horiz-adv-x="549" 
d="M142 163l-45 -148q-5 -9 -14.5 -16.5t-17.5 -7.5q-15 0 -25 9t-10 24q0 7 2 13l199 630q14 49 46 49q31 0 47 -49l199 -630q0 -1 0.5 -6t0.5 -7q0 -15 -10 -24t-25 -9q-9 0 -19 7t-13 17l-46 148h-269zM277 607l-116 -379h231z" />
    <glyph glyph-name="B" unicode="B" horiz-adv-x="542" 
d="M145 400h126q58 0 102.5 33.5t44.5 94.5q0 49 -31 81.5t-99 32.5h-143v-242zM274 335h-129v-270h133q78 0 118.5 35.5t40.5 95.5q0 66 -45 102.5t-118 36.5zM289 1h-169q-17 0 -29 12t-12 29v622q0 18 12 30t29 12h173q91 0 141 -52.5t50 -126.5q0 -105 -126 -164
q32 -12 52 -21.5t44.5 -28.5t37 -48t12.5 -68q0 -85 -58.5 -140.5t-156.5 -55.5z" />
    <glyph glyph-name="C" unicode="C" horiz-adv-x="482" 
d="M50 244v219q0 118 56 185.5t167 67.5q67 0 120 -24t53 -56q0 -12 -8 -20t-21 -8q-8 0 -22 9q-1 1 -5 3t-5 3q-51 34 -107 34q-87 0 -124 -49.5t-37 -144.5v-219q0 -94 37 -143.5t124 -49.5q60 0 105 32l11 7q14 10 23 10q13 0 21 -8t8 -20q0 -33 -52.5 -56.5
t-120.5 -23.5q-111 0 -167 67t-56 185z" />
    <glyph glyph-name="D" unicode="D" horiz-adv-x="554" 
d="M508 263q0 -54 -14.5 -99t-45 -82.5t-85 -59t-127.5 -21.5h-116q-17 0 -29 12t-12 29v623q0 17 12 29.5t29 12.5h116q141 0 206.5 -71.5t65.5 -181.5v-191zM441 263v191q0 85 -45 137t-143 52h-108v-578h108q99 0 143.5 54t44.5 144z" />
    <glyph glyph-name="E" unicode="E" horiz-adv-x="474" 
d="M440 35q0 -15 -9.5 -24.5t-23.5 -9.5h-271q-57 0 -57 40v624q0 16 12 28.5t29 12.5h277q13 0 22.5 -10t9.5 -24q0 -13 -9 -21.5t-23 -8.5h-252v-255h232q13 0 22.5 -9.5t9.5 -22.5t-9.5 -22.5t-22.5 -9.5h-232v-258h262q13 0 23 -9t10 -21z" />
    <glyph glyph-name="F" unicode="F" horiz-adv-x="474" 
d="M145 323v-299q0 -14 -9.5 -23.5t-22.5 -9.5q-14 0 -24 9.5t-10 23.5v641q0 16 12 28.5t29 12.5h277q13 0 22.5 -10t9.5 -24q0 -13 -9 -21.5t-23 -8.5h-252v-255h232q13 0 22.5 -9.5t9.5 -22.5t-9.5 -22.5t-22.5 -9.5h-232z" />
    <glyph glyph-name="G" unicode="G" horiz-adv-x="520" 
d="M117 463v-219q0 -94 37 -143.5t124 -49.5q71 0 123 41v232h-107q-12 0 -21.5 9t-9.5 22t9.5 22t21.5 9h122q50 0 50 -40v-244q0 -53 -59.5 -81.5t-133.5 -28.5q-111 0 -167 67t-56 185v219q0 118 56 185.5t167 67.5q67 0 120 -24t53 -56q0 -12 -8.5 -20t-20.5 -8
q-8 0 -22 9q-1 1 -5.5 3t-5.5 3q-49 34 -106 34q-87 0 -124 -49.5t-37 -144.5z" />
    <glyph glyph-name="H" unicode="H" horiz-adv-x="580" 
d="M506 25q0 -14 -9.5 -24t-23.5 -10q-13 0 -23.5 10t-10.5 24v297h-294v-297q0 -14 -9.5 -24t-23.5 -10t-23.5 10t-9.5 24v658q0 13 10 23t23 10q14 0 23.5 -10t9.5 -23v-297h294v297q0 13 10.5 23t23.5 10t23 -10t10 -23v-658z" />
    <glyph glyph-name="I" unicode="I" horiz-adv-x="227" 
d="M80 24v659q0 13 10.5 23t23.5 10q14 0 23.5 -10t9.5 -23v-659q0 -14 -9.5 -23.5t-23.5 -9.5t-24 10t-10 23z" />
    <glyph glyph-name="J" unicode="J" horiz-adv-x="385" 
d="M309 683v-460q0 -115 -44.5 -173.5t-153.5 -58.5q-80 0 -80 38q0 15 9 23.5t19 8.5q2 0 16 -2q28 -5 47 -5q70 0 95 42t25 127v460q0 14 10 23.5t24 9.5q13 0 23 -10t10 -23z" />
    <glyph glyph-name="K" unicode="K" horiz-adv-x="498" 
d="M432 6l-228 331l-59 -73v-239q0 -14 -9.5 -24t-23.5 -10t-23.5 10t-9.5 24v658q0 13 10 23t23 10q14 0 23.5 -10t9.5 -23v-320l273 336q11 17 31 17q11 0 20 -8.5t8 -23.5q-1 -13 -8 -23v1l-223 -274l241 -346h-1q4 -7 4 -15q0 -36 -29 -36q-17 0 -29 15z" />
    <glyph glyph-name="L" unicode="L" horiz-adv-x="448" 
d="M437 33q0 -13 -9 -22.5t-22 -9.5h-288q-16 0 -27.5 11t-11.5 27v644q0 13 10 23t24 10q13 0 22.5 -10t9.5 -23v-619h261q12 0 21.5 -9t9.5 -22z" />
    <glyph glyph-name="M" unicode="M" horiz-adv-x="699" 
d="M630 680v-658q0 -13 -9.5 -22t-22.5 -9q-14 0 -24.5 9t-10.5 22v530l-179 -380q-11 -20 -32 -20q-22 0 -32 20l-180 380v-530q0 -13 -10 -22t-25 -9q-13 0 -22 9t-9 22v658q0 16 10 26t26 10q24 0 36 -23v1l207 -443l206 444v-1q12 22 36 22q14 0 24.5 -10.5t10.5 -25.5z
" />
    <glyph glyph-name="N" unicode="N" horiz-adv-x="600" 
d="M489 -9q-25 0 -35 19l-309 571v-556q0 -14 -10 -24t-24 -10t-23.5 10t-9.5 24v653q0 16 10.5 27t26.5 11q25 0 36 -21l309 -572v559q0 14 10 24t24 10q13 0 22.5 -10t9.5 -24v-654q0 -16 -10.5 -26.5t-26.5 -10.5z" />
    <glyph glyph-name="O" unicode="O" horiz-adv-x="551" 
d="M278 -9q-109 0 -168.5 71t-59.5 182v219q0 112 56 182.5t172 70.5q115 0 171 -70.5t56 -182.5v-219q0 -111 -59 -182t-168 -71zM278 652q-161 0 -161 -189v-219q0 -87 40.5 -138t120.5 -51t120 51t40 138v219q0 189 -160 189z" />
    <glyph glyph-name="P" unicode="P" horiz-adv-x="530" 
d="M271 267h-126v-241q0 -14 -9.5 -24.5t-23.5 -10.5q-13 0 -23 10t-10 25v638q0 17 12.5 29.5t29.5 12.5h150q114 0 167.5 -63t53.5 -159q0 -104 -59 -160.5t-162 -56.5zM145 642v-311h126q155 0 155 154q0 157 -155 157h-126z" />
    <glyph glyph-name="Q" unicode="Q" horiz-adv-x="551" 
d="M388 -180q-63 0 -99.5 46.5t-41.5 125.5q-94 12 -145.5 81.5t-51.5 170.5v219q0 112 56 182.5t172 70.5q115 0 171 -70.5t56 -182.5v-219q0 -100 -49.5 -169t-141.5 -82q1 -62 23 -88.5t65 -26.5q3 0 9 0.5t9 0.5h11q32 0 32 -30q0 -19 -18 -24t-57 -5zM278 652
q-161 0 -161 -189v-219q0 -87 40.5 -138t120.5 -51t120 51t40 138v219q0 189 -160 189z" />
    <glyph glyph-name="R" unicode="R" horiz-adv-x="575" 
d="M511 509q0 -76 -43 -125t-119 -64l169 -278l-1 1q4 -10 4 -21q0 -12 -12.5 -21t-23.5 -9q-17 0 -27 15l-183 311h-130v-292q0 -14 -10 -24.5t-24 -10.5q-13 0 -23 10t-10 25v638q0 17 12 29.5t28 12.5h178q113 0 164 -56.5t51 -140.5zM444 509q0 133 -152 133h-147v-261
h153q146 0 146 128z" />
    <glyph glyph-name="S" unicode="S" horiz-adv-x="486" 
d="M372 188q0 78 -62 110q-25 13 -80 32q-31 10 -45 15.5t-40.5 18t-40 25.5t-29 32t-22 45t-6.5 58q0 90 53.5 141t146.5 51q55 0 110.5 -14.5t55.5 -47.5q0 -13 -9 -22t-24 -9t-35 9q-51 20 -92 20q-60 0 -98 -28.5t-38 -94.5q0 -76 64 -109q35 -18 80 -32
q41 -13 66 -24.5t55.5 -33.5t45.5 -55.5t15 -79.5q0 -95 -60 -149.5t-156 -54.5q-61 0 -121 17t-60 50q0 13 9 23t21 10q4 0 37 -11q59 -25 115 -25q71 0 107.5 34.5t36.5 98.5z" />
    <glyph glyph-name="T" unicode="T" horiz-adv-x="483" 
d="M210 24v618h-146q-15 0 -24.5 9t-9.5 22q0 12 10 22.5t24 10.5h359q14 0 24 -9.5t10 -23.5q0 -13 -10 -22t-24 -9h-147v-618q0 -14 -9.5 -23.5t-22.5 -9.5q-14 0 -24 9.5t-10 23.5z" />
    <glyph glyph-name="U" unicode="U" horiz-adv-x="572" 
d="M507 228q0 -105 -58.5 -171t-159.5 -66q-103 0 -161 66t-58 171v452q0 16 10 26t25 10q13 0 22.5 -10.5t9.5 -25.5v-452q0 -79 38.5 -126t113.5 -47q74 0 112 47t38 126v452q0 14 10 25t23 11q14 0 24.5 -11t10.5 -25v-452z" />
    <glyph glyph-name="V" unicode="V" horiz-adv-x="529" 
d="M87 691l180 -592l180 592q3 11 12.5 18t19.5 7q15 0 25 -9t10 -24v-5.5v-5.5l-1 -3l-199 -630q-16 -48 -47 -48q-32 0 -46 48l-199 630q-2 6 -2 14q0 15 10 24t25 9q19 0 32 -25z" />
    <glyph glyph-name="W" unicode="W" horiz-adv-x="776" 
d="M517 33l-125 554l-126 -555q-14 -41 -47 -41q-36 0 -48 41l-153 648v4q0 13 12 20.5t27 7.5q21 0 30 -24l134 -578l125 552q7 28 16.5 41t29.5 13q33 0 45 -54l127 -553l133 579q9 24 27 24q15 0 28 -7.5t13 -21.5q0 -6 -1 -9v-1l-152 -641q-12 -41 -47 -41q-36 0 -48 42
z" />
    <glyph glyph-name="X" unicode="X" horiz-adv-x="500" 
d="M253 319l-170 -303q-14 -25 -32 -25q-12 0 -21.5 10.5t-9.5 23.5q0 11 5 18l188 325l-173 297l1 -1q-5 10 -5 20q0 12 9 22t22 10q19 0 36 -32l150 -268l149 268h-1q18 32 39 32q11 0 19.5 -10t8.5 -23q0 -9 -4 -19l1 1l-172 -297l188 -325q4 -8 4 -18q0 -13 -9.5 -23.5
t-20.5 -10.5q-17 0 -33 25z" />
    <glyph glyph-name="Y" unicode="Y" horiz-adv-x="476" 
d="M241 -9q-15 0 -25 10t-10 25v253l-182 386q-4 10 -4 17q0 13 10.5 23.5t24.5 10.5q17 0 24 -13v1l162 -351l161 351v-1q7 13 25 13q13 0 23 -10.5t10 -23.5q0 -5 -3 -17l-183 -390v-249q0 -14 -9.5 -24.5t-23.5 -10.5z" />
    <glyph glyph-name="Z" unicode="Z" horiz-adv-x="484" 
d="M453 35q0 -15 -9.5 -24.5t-23.5 -9.5h-350q-16 0 -26 10.5t-10 26.5q0 10 10 28l322 574h-297q-14 0 -23.5 9t-9.5 23t9.5 24t23.5 10h346q16 0 26 -10.5t10 -26.5q0 -6 -9 -27l-323 -575h301q14 0 23.5 -9.5t9.5 -22.5z" />
    <glyph glyph-name="bracketleft" unicode="[" horiz-adv-x="294" 
d="M264 -92q0 -31 -44 -31h-104q-13 0 -22.5 9.5t-9.5 21.5v864q0 32 46 32h104q11 0 20.5 -9.5t9.5 -21.5q0 -30 -43 -30h-72v-804h72q43 0 43 -31z" />
    <glyph glyph-name="backslash" unicode="\" horiz-adv-x="280" 
d="M244 -24l-263 742l-2 5q-2 13 5.5 23.5t20.5 12.5q25 4 33 -19l264 -740q2 -16 -4.5 -29t-19.5 -15q-26 -3 -34 20z" />
    <glyph glyph-name="bracketright" unicode="]" horiz-adv-x="294" 
d="M211 -92q0 -13 -8.5 -22t-21.5 -9h-105q-46 0 -46 31t45 31h71v804h-71q-45 0 -45 30q0 31 46 31h105q11 0 20.5 -10t9.5 -22v-864z" />
    <glyph glyph-name="asciicircum" unicode="^" horiz-adv-x="326" 
d="M164 669l-115 -142q-6 -8 -18 -8q-24 0 -24 18q1 14 19 35l113 139q10 13 25 13q14 0 24 -13l114 -139q17 -20 18 -35l-1 1q0 -19 -22 -19q-13 0 -19 8z" />
    <glyph glyph-name="underscore" unicode="_" horiz-adv-x="600" 
d="M2 -179h603q12 0 21.5 -9.5t9.5 -23.5q0 -13 -9 -22t-22 -9h-603q-14 0 -23.5 9t-9.5 22q0 14 10 23.5t23 9.5z" />
    <glyph glyph-name="grave" unicode="`" horiz-adv-x="197" 
d="M83 716l86 -91q4 -4 4 -10q0 -12 -8 -20t-18 -8q-14 0 -28 16l-81 88q-4 5 -4 12q0 11 7.5 19t16.5 8t25 -14z" />
    <glyph glyph-name="a" unicode="a" horiz-adv-x="482" 
d="M335 272v69q0 119 -117 119q-45 0 -81 -22q-12 -8 -24 -8q-20 0 -22 26q-3 29 38.5 44t98.5 15q90 0 131 -50t41 -151v-226q0 -39 27 -39q2 0 4.5 0.5t3.5 0.5q22 0 22 -27t-38 -27q-47 0 -76 57q-63 -60 -143 -60q-74 0 -112 39.5t-38 107.5v4q0 146 174 146
q47 0 111 -18zM223 237q-63 0 -86 -25t-23 -69v-4q0 -90 99 -90q64 0 122 49v120q-58 19 -112 19z" />
    <glyph glyph-name="b" unicode="b" horiz-adv-x="485" 
d="M144 404v-257q0 -44 31.5 -69.5t85.5 -25.5q115 0 115 116v194q0 99 -106 99q-74 0 -126 -57zM79 147v554q0 13 9 22.5t24 9.5t23.5 -9.5t8.5 -22.5v-235q69 49 146 49q79 0 115 -41.5t36 -111.5v-194q0 -78 -46.5 -126.5t-133.5 -48.5q-85 0 -133.5 43.5t-48.5 110.5z
" />
    <glyph glyph-name="c" unicode="c" horiz-adv-x="393" 
d="M50 174v156q0 81 44.5 131.5t133.5 50.5q46 0 90.5 -13t44.5 -42q0 -11 -8 -19t-19 -8q-5 0 -15 2h1q-48 25 -86 25q-121 0 -121 -127v-156q0 -126 121 -126q38 0 86 24h-1q11 3 15 3q11 0 19 -8.5t8 -19.5q0 -28 -44.5 -41t-90.5 -13q-89 0 -133.5 50t-44.5 131z" />
    <glyph glyph-name="d" unicode="d" horiz-adv-x="488" 
d="M215 511q53 0 121 -22v212q0 13 9 22.5t24 9.5t23.5 -9.5t8.5 -22.5v-591q0 -46 30 -68q4 -8 4 -14q0 -12 -8.5 -20t-19.5 -8q-30 0 -52 35q-82 -42 -148 -42q-76 0 -116.5 50.5t-40.5 135.5v131q0 96 38 148.5t127 52.5zM336 110v322q-61 25 -111 25q-60 0 -85 -34.5
t-25 -112.5v-131q0 -130 108 -130q53 0 117 32q-4 17 -4 29z" />
    <glyph glyph-name="e" unicode="e" horiz-adv-x="435" 
d="M236 48q45 0 110 29q6 3 11 3q12 0 20 -8.5t8 -19.5q0 -30 -52.5 -44.5t-106.5 -14.5q-82 0 -129 46t-47 117v192q0 74 48 120.5t134 46.5q80 0 121 -42.5t41 -117.5q0 -145 -166 -145q-59 0 -113 11v-71q0 -47 31 -74.5t90 -27.5zM330 355q0 103 -101 103
q-54 0 -84 -27.5t-30 -74.5v-85q57 -8 117 -8q57 0 77.5 25t20.5 67z" />
    <glyph glyph-name="f" unicode="f" horiz-adv-x="329" 
d="M80 27v519q0 90 47.5 137t125.5 50q9 1 20.5 0t28 -4t27 -12t10.5 -23t-9 -22t-22 -8t-23 2q-33 5 -40 5q-47 0 -73.5 -33.5t-26.5 -83.5v-71h116q12 0 20 -9t8 -22q0 -12 -8 -20.5t-20 -8.5h-116v-396q0 -31 -32 -31q-15 0 -24 8.5t-9 22.5z" />
    <glyph glyph-name="g" unicode="g" horiz-adv-x="493" 
d="M234 515q75 0 139 -38q17 30 39.5 46.5t38.5 16.5q13 0 21.5 -8t8.5 -21q0 -11 -4 -15l-9 -10q-29 -27 -39.5 -44.5t-10.5 -50.5v-64q0 -79 -46 -128.5t-132 -49.5q-43 0 -85 16q-17 -30 -17 -58t19.5 -40t44.5 -12h43q89 0 143.5 -35t54.5 -104q0 -73 -57 -116t-146 -43
q-86 0 -138 40t-52 110q0 67 57 118q-34 33 -34 79q0 45 44 84q-60 56 -60 146q0 81 45.5 131t131.5 50zM354 390q0 12 3 34q-57 35 -113 35q-60 0 -91 -33t-31 -94q0 -58 29 -91t89 -33q114 0 114 117v65zM204 -4q-27 0 -49 5q-41 -32 -41 -83q0 -103 128 -103q62 0 99 25
t37 74q0 43 -32 62.5t-99 19.5h-43z" />
    <glyph glyph-name="h" unicode="h" horiz-adv-x="507" 
d="M143 25q0 -14 -8.5 -23t-21.5 -9q-14 0 -23.5 9t-9.5 23v681q0 13 9 23t22 10q14 0 23 -9.5t9 -23.5v-243q68 52 138 52q76 0 114 -44.5t38 -119.5v-326q0 -13 -9.5 -22.5t-22.5 -9.5q-14 0 -23.5 9.5t-9.5 22.5v325q0 106 -97 106q-78 0 -128 -66v-365z" />
    <glyph glyph-name="i" unicode="i" horiz-adv-x="245" 
d="M165 681q0 -17 -12.5 -29t-28.5 -12q-18 0 -30 12t-12 29q0 18 12 30t30 12q17 0 29 -12t12 -30zM156 25q0 -13 -9.5 -22.5t-22.5 -9.5q-14 0 -23.5 9t-9.5 23v454q0 14 9.5 23.5t23.5 9.5q13 0 22.5 -10t9.5 -23v-454z" />
    <glyph glyph-name="j" unicode="j" horiz-adv-x="245" 
d="M157 479v-502q0 -75 -37.5 -124.5t-101.5 -60.5h-18q-22 0 -27 20q-3 16 5 24.5t20 10.5q47 11 70.5 39.5t23.5 86.5v506q0 14 9.5 23.5t23.5 9.5q13 0 22.5 -10t9.5 -23zM166 681q0 -17 -12 -29t-29 -12q-18 0 -30.5 12t-12.5 29q0 18 12.5 30t30.5 12q17 0 29 -12
t12 -30z" />
    <glyph glyph-name="k" unicode="k" horiz-adv-x="439" 
d="M145 700v-403l200 207q6 7 19 7t21.5 -8.5t8.5 -21.5q0 -14 -7 -21l-156 -159l177 -263q6 -8 6 -19q1 -12 -8.5 -19t-22.5 -7q-18 0 -27 15l-165 251l-46 -48v-186q0 -13 -9.5 -22.5t-22.5 -9.5q-14 0 -23.5 9t-9.5 23v675q0 14 9.5 23.5t23.5 9.5q13 0 22.5 -10t9.5 -23
z" />
    <glyph glyph-name="l" unicode="l" horiz-adv-x="228" 
d="M82 90v610q0 13 9.5 23t22.5 10t22.5 -9.5t9.5 -23.5v-610q0 -35 18 -54q4 -6 4 -14q0 -13 -8 -21t-21 -8q-57 0 -57 97z" />
    <glyph glyph-name="m" unicode="m" horiz-adv-x="778" 
d="M125 466q76 49 153 49q74 0 118 -56q74 56 151 56q78 0 120.5 -45.5t42.5 -122.5v-322q0 -31 -32 -31q-15 0 -24 8.5t-9 22.5v320q0 49 -26 80.5t-75 31.5q-34 0 -67 -17t-54 -43q5 -25 5 -50v-322q0 -31 -32 -31q-33 0 -33 31v299q0 66 -19 99.5t-74 33.5
q-66 0 -127 -46q3 -18 3 -36v-350q0 -31 -32 -31q-33 0 -33 31v350q0 50 -18 76q-6 8 -6 17q0 12 8.5 20.5t20.5 8.5q24 0 39 -31z" />
    <glyph glyph-name="n" unicode="n" horiz-adv-x="509" 
d="M129 464q71 49 150 49q76 0 115.5 -50t39.5 -137v-301q0 -31 -32 -31q-15 0 -24 8.5t-9 22.5v301q0 63 -26 97t-76 34q-59 0 -122 -48q3 -16 3 -34v-350q0 -31 -32 -31q-33 0 -33 31v350q0 50 -18 76q-6 8 -6 17q0 12 8.5 20.5t20.5 8.5q24 0 41 -33z" />
    <glyph glyph-name="o" unicode="o" horiz-adv-x="464" 
d="M235 -7q-87 0 -136 49t-49 126v172q0 77 49 126.5t136 49.5q88 0 136.5 -49.5t48.5 -126.5v-172q0 -77 -48.5 -126t-136.5 -49zM235 52q59 0 89.5 30.5t30.5 85.5v173q0 55 -30.5 86t-89.5 31q-58 0 -89 -31t-31 -86v-173q0 -55 31 -85.5t89 -30.5z" />
    <glyph glyph-name="p" unicode="p" horiz-adv-x="478" 
d="M270 -6q-56 0 -122 21v-199q0 -13 -8.5 -22t-23.5 -9q-16 0 -24.5 9t-8.5 22v557q0 50 -18 76q-6 7 -6 17q0 12 8.5 20.5t20.5 8.5q19 0 38 -28q89 48 153 48q75 0 115 -50.5t40 -136.5v-134q0 -95 -37.5 -147.5t-126.5 -52.5zM148 373v-301q54 -24 112 -24q59 0 84 34.5
t25 111.5v134q0 131 -107 131q-54 0 -119 -40q5 -25 5 -46z" />
    <glyph glyph-name="q" unicode="q" horiz-adv-x="485" 
d="M347 100v257q0 47 -31 73.5t-85 26.5q-58 0 -87 -31.5t-29 -89.5v-163q0 -125 109 -125q74 0 123 52zM412 357v-541q0 -13 -8.5 -22t-23.5 -9q-16 0 -24.5 9t-8.5 22v221q-67 -43 -139 -43q-158 0 -158 179v163q0 79 47 129t134 50q84 0 132.5 -45t48.5 -113z" />
    <glyph glyph-name="r" unicode="r" horiz-adv-x="337" 
d="M149 373v-348q0 -13 -9.5 -22.5t-22.5 -9.5q-14 0 -23.5 9t-9.5 23v348q0 50 -18 76q-6 7 -6 17q0 12 9 20.5t21 8.5q20 0 39 -31q74 47 143 47q46 0 46 -32q0 -15 -9.5 -25t-22.5 -9q-28 1 -44.5 -0.5t-42 -11t-51.5 -28.5v-1q1 -1 1 -31z" />
    <glyph glyph-name="s" unicode="s" horiz-adv-x="406" 
d="M59 374q0 65 41 103t118 38q48 0 88.5 -12t40.5 -38q0 -12 -8 -20.5t-21 -8.5q-5 0 -15 4q-42 20 -82 20q-99 0 -99 -81q0 -27 11.5 -43t41.5 -32q16 -8 48.5 -20.5t52.5 -22t42 -26t33 -41.5t11 -59q0 -67 -42 -104.5t-123 -37.5q-52 0 -98.5 12t-46.5 39q0 12 8.5 21
t22.5 9q3 0 6 -1q63 -25 108 -25q102 0 102 84q0 51 -41 73q-17 9 -49.5 20.5t-55 21.5t-46 26t-36 41.5t-12.5 59.5z" />
    <glyph glyph-name="t" unicode="t" horiz-adv-x="321" 
d="M81 202v431q0 13 8.5 22.5t23.5 9.5t23.5 -9.5t8.5 -22.5v-150h116q12 0 20.5 -9t8.5 -22q0 -12 -8.5 -20.5t-20.5 -8.5h-116v-214q0 -88 17.5 -120t75.5 -32q4 0 10 0.5t10 0.5q45 0 45 -30q0 -31 -50 -31q-99 0 -135.5 48.5t-36.5 156.5z" />
    <glyph glyph-name="u" unicode="u" horiz-adv-x="509" 
d="M366 120v360q0 32 33 32q15 0 23.5 -9t8.5 -23v-360q0 -52 11 -65q15 -18 15 -28q0 -12 -9 -20t-21 -8q-22 0 -43 33q-67 -39 -148 -39q-76 0 -116.5 50t-40.5 136v301q0 14 9 23t24 9t23.5 -9t8.5 -23v-301q0 -62 26.5 -96t76.5 -34q62 0 121 38q-2 20 -2 33z" />
    <glyph glyph-name="v" unicode="v" horiz-adv-x="430" 
d="M406 471l-140 -436q-14 -42 -46 -42t-45 41l-143 440q-5 15 5.5 26.5t26.5 11.5q22 0 28 -21l128 -413l126 413q7 22 29 21q13 -1 22.5 -10.5t9.5 -22.5q0 -5 -1 -8z" />
    <glyph glyph-name="w" unicode="w" horiz-adv-x="655" 
d="M636 477l-119 -444q-12 -40 -44 -40q-30 0 -40 29l-99 389q-77 -310 -100 -389q-8 -29 -41 -29t-45 40l-120 446v2q0 12 9.5 21.5t23.5 9.5q21 0 30 -23l103 -403q18 64 101 395q9 31 39 31q28 0 37 -31q24 -104 102 -395l102 403q2 10 11 16.5t19 6.5q13 0 22 -9.5
t9 -23.5v-2z" />
    <glyph glyph-name="x" unicode="x" horiz-adv-x="431" 
d="M184 259l-138 207q-4 5 -4 15q0 13 10 22t21 9q17 0 32 -23l115 -178l115 178q15 23 32 23q11 0 21 -9t10 -22q0 -10 -4 -15l-138 -207l148 -219q3 -5 3 -13q0 -14 -9.5 -24t-23.5 -10q-17 0 -33 23l-123 189l-128 -196q-10 -16 -26 -16q-14 0 -24 9t-10 23q0 6 4 13z
" />
    <glyph glyph-name="y" unicode="y" horiz-adv-x="412" 
d="M399 469l-126 -409q-20 -65 -36.5 -104.5t-41.5 -79.5t-59 -59t-78 -19q-15 0 -24.5 8.5t-9.5 22.5q0 12 8 21t22 10q52 2 80 31t53 104l-164 476q-3 3 -3 11q0 13 9.5 21.5t23.5 8.5q20 0 29 -21l136 -415l120 415q11 21 30 21q13 0 22.5 -9.5t9.5 -23.5q0 -3 -0.5 -6
t-0.5 -4z" />
    <glyph glyph-name="z" unicode="z" horiz-adv-x="384" 
d="M367 471q0 -13 -7 -25l-262 -387h241q13 0 21.5 -9t8.5 -21q0 -13 -8.5 -21t-21.5 -8h-285q-14 0 -24 10t-10 25q0 13 6 22l264 389h-230q-13 0 -21.5 8.5t-8.5 20.5q0 13 8.5 21.5t21.5 8.5h273q15 0 24.5 -9t9.5 -25z" />
    <glyph glyph-name="braceleft" unicode="{" horiz-adv-x="417" 
d="M69 210q-32 0 -32 29q0 30 32 30q43 0 64 23.5t24 75.5q0 12 2 42l3 45l6 102q4 53 47 85.5t107 32.5q52 0 52 -36q0 -29 -34 -24q-5 0 -12 1t-11.5 1.5t-5.5 0.5q-30 0 -53.5 -19.5t-25.5 -53.5q-1 -29 -4 -86t-4 -85q-6 -94 -84 -135q78 -39 84 -135l8 -170
q1 -33 24.5 -53t53.5 -20q14 0 30 2q34 5 34 -23q0 -36 -52 -36q-65 0 -107.5 32t-46.5 85l-11 189q-3 52 -24 76t-64 24z" />
    <glyph glyph-name="bar" unicode="|" horiz-adv-x="227" 
d="M85 -216v948q0 11 8.5 20t20.5 9t20.5 -8.5t8.5 -20.5v-948q0 -12 -8.5 -20t-20.5 -8t-20.5 8.5t-8.5 19.5z" />
    <glyph glyph-name="braceright" unicode="}" horiz-adv-x="417" 
d="M352 210q-43 0 -64 -24t-24 -76q-1 -30 -5 -93.5l-6 -95.5q-4 -54 -46 -85.5t-107 -31.5q-53 0 -53 36q0 28 34 23q18 -2 30 -2q31 0 54.5 20t24.5 53q1 28 4 85t4 85q5 95 83 135q-78 41 -83 135l-8 171q-2 34 -25.5 53.5t-54.5 19.5q-1 0 -5.5 -0.5t-11 -1.5t-12.5 -1
q-34 -5 -34 24q0 36 53 36q64 0 106.5 -32.5t46.5 -85.5l6 -102l5 -87q3 -52 24 -75.5t64 -23.5q32 0 32 -30q0 -29 -32 -29z" />
    <glyph glyph-name="asciitilde" unicode="~" horiz-adv-x="454" 
d="M391 353q0 -27 -30 -46t-64 -22l1 1q-34 0 -73 22q-30 14 -57 18q-24 0 -48 -22q-14 -12 -23 -12q-27 0 -30 27q0 29 28.5 50t65.5 21q25 0 69 -21q31 -16 53 -19q33 0 56 21q14 11 24 14q11 -1 19.5 -10t8.5 -22z" />
    <glyph glyph-name="exclamdown" unicode="&#xa1;" horiz-adv-x="227" 
d="M80 -186l11 483q0 11 6.5 18.5t16.5 7.5q9 0 16 -8t7 -18l7 -210t4 -273q0 -13 -10 -23t-24 -10q-13 0 -23.5 10t-10.5 23zM162 458q0 -20 -13 -33t-33 -13t-34 13.5t-14 32.5q0 20 14.5 34.5t33.5 14.5t32.5 -14.5t13.5 -34.5z" />
    <glyph glyph-name="cent" unicode="&#xa2;" horiz-adv-x="500" 
d="M233 -36v58q-78 9 -116.5 57.5t-38.5 123.5v104q0 74 38.5 122.5t116.5 56.5v51q0 8 6 14t14 6q7 0 12.5 -6t5.5 -14v-50q46 -4 81.5 -17.5t35.5 -37.5q0 -11 -7.5 -18.5t-19.5 -7.5q-6 0 -14 2h1q-40 18 -77 23v-353q34 4 77 24h-1q9 3 14 3q12 0 19.5 -8t7.5 -19
q0 -44 -117 -56v-58q0 -8 -5.5 -13t-12.5 -5q-8 0 -14 5.5t-6 12.5zM143 203q0 -104 90 -123v349q-90 -18 -90 -122v-104z" />
    <glyph glyph-name="yen" unicode="&#xa5;" horiz-adv-x="476" 
d="M78 363h88l-142 302q-4 10 -4 17q0 13 10.5 23.5t24.5 10.5q17 0 24 -13v1l162 -351l161 351v-1q7 13 25 13q13 0 23 -10.5t10 -23.5q0 -5 -3 -17l-143 -302h89q12 0 22 -9.5t10 -21.5t-9.5 -21t-22.5 -9h-116l-13 -27v-45h129q12 0 22 -9t10 -22q0 -12 -9.5 -20.5
t-22.5 -8.5h-129v-144q0 -14 -9.5 -24.5t-23.5 -10.5q-15 0 -25 10t-10 25v144h-128q-14 0 -23.5 8.5t-9.5 20.5q0 13 10 22t23 9h128v49l-12 23h-116q-13 0 -23 9t-10 21t10.5 21.5t22.5 9.5z" />
    <glyph glyph-name="dieresis" unicode="&#xa8;" horiz-adv-x="403" 
d="M332 646q0 -18 -11.5 -30t-28.5 -12t-29.5 12.5t-12.5 29.5q0 16 13 28.5t29 12.5t28 -12t12 -29zM159 646q0 -18 -12 -30t-29 -12q-16 0 -28 12.5t-12 29.5q0 16 12 28.5t28 12.5q17 0 29 -12t12 -29z" />
    <glyph glyph-name="copyright" unicode="&#xa9;" horiz-adv-x="740" 
d="M678 313q0 -145 -80 -233t-224 -88q-145 0 -225.5 88.5t-80.5 232.5q0 145 80.5 233.5t225.5 88.5q144 0 224 -88.5t80 -233.5zM632 313q0 125 -67.5 200.5t-190.5 75.5t-191.5 -75.5t-68.5 -200.5q0 -124 68.5 -199.5t191.5 -75.5t190.5 75t67.5 200zM244 282v62
q0 64 35 103.5t104 39.5q37 0 71 -10t34 -33q0 -8 -5.5 -13.5t-13.5 -5.5h-7q-39 22 -72 22q-98 0 -98 -103v-62q0 -101 98 -101q27 0 65 16h-3l7 2q7 3 10 3q8 0 13.5 -6.5t5.5 -14.5q0 -21 -34.5 -31t-70.5 -10q-69 0 -104 39t-35 103z" />
    <glyph glyph-name="guillemotleft" unicode="&#xab;" horiz-adv-x="431" 
d="M123 256l146 -216q3 -9 3 -13q0 -14 -9 -24t-23 -10q-17 0 -33 23l-158 238l152 230q14 24 32 24q11 0 20.5 -9t9.5 -22q0 -12 -3 -15zM287 254l98 -149q3 -5 3 -15q0 -12 -9.5 -21t-21.5 -9q-17 0 -31 23l-114 171l114 172q15 24 31 24q12 0 21.5 -9.5t9.5 -21.5t-3 -15
z" />
    <glyph glyph-name="registered" unicode="&#xae;" horiz-adv-x="700" 
d="M638 425q0 -131 -74.5 -210.5t-209.5 -79.5q-136 0 -210.5 79.5t-74.5 210.5q0 136 74.5 218.5t210.5 82.5t210 -82.5t74 -218.5zM592 425q0 115 -62 185t-176 70t-176.5 -69.5t-62.5 -185.5q0 -110 62.5 -177t176.5 -67t176 67t62 177zM459 489q0 -59 -56 -85l70 -107
q10 -15 -13.5 -19.5t-30.5 6.5l-73 114h-59v-103q0 -7 -7.5 -12t-16.5 -5t-15.5 5t-6.5 12v261q0 10 8 18.5t18 8.5h79q53 0 78 -27t25 -67zM413 489q0 49 -59 49h-57v-96h60q56 0 56 47z" />
    <glyph glyph-name="macron" unicode="&#xaf;" horiz-adv-x="403" 
d="M359 644q0 -13 -8 -21t-20 -8h-255q-13 0 -21.5 8t-8.5 21q0 12 8.5 21t21.5 9h255q12 0 20 -9t8 -21z" />
    <glyph glyph-name="degree" unicode="&#xb0;" horiz-adv-x="392" 
d="M198 447q-64 0 -100.5 38t-36.5 96q0 59 36 97.5t101 38.5q64 0 100 -38.5t36 -97.5t-35.5 -96.5t-100.5 -37.5zM198 495q82 0 82 88q0 86 -82 86q-83 0 -83 -86q0 -88 83 -88z" />
    <glyph glyph-name="plusminus" unicode="&#xb1;" horiz-adv-x="500" 
d="M220 172v182h-171q-13 0 -22.5 9t-9.5 22q0 14 10 23.5t22 9.5h171v181q0 12 9.5 22t23.5 10q13 0 22 -9.5t9 -22.5v-181h172q12 0 22 -9.5t10 -23.5q0 -13 -9.5 -22t-22.5 -9h-172v-182q0 -13 -9 -22.5t-22 -9.5q-14 0 -23.5 9.5t-9.5 22.5zM49 65h407q12 0 22 -9.5
t10 -22.5t-9.5 -22.5t-22.5 -9.5h-407q-13 0 -22.5 9.5t-9.5 22.5t10 22.5t22 9.5z" />
    <glyph glyph-name="twosuperior" unicode="&#xb2;" 
d="M227 411q0 -9 -6.5 -15t-15.5 -6h-162q-27 0 -27 23q0 11 5 21q19 45 88 112l20 21t23 25q26 24 26 57q0 27 -14.5 43t-41.5 16q-19 0 -44 -9l-13 -6q-12 -7 -19 -7q-9 0 -17 6t-8 15q0 11 6 17q46 30 95 30q48 0 75.5 -28t27.5 -71q0 -54 -34 -95q-4 -6 -32 -33l-10 -10
q-53 -49 -71 -81h127q8 0 15 -7.5t7 -17.5z" />
    <glyph glyph-name="threesuperior" unicode="&#xb3;" 
d="M210 699l-78 -100q40 -3 66 -30t26 -70q0 -44 -26.5 -79t-77.5 -35q-11 0 -25 1.5t-32 5t-30.5 12t-12.5 20.5q0 11 7 18t17 7q3 0 15 -6q24 -14 52 -14q34 0 49.5 20.5t15.5 48.5q0 60 -62 60q-11 0 -17 -3l-3 -2q-1 -1 -8 -1q-13 0 -19 12.5t2 23.5l82 108h-99
q-11 0 -18.5 6t-7.5 16q0 11 7.5 19t18.5 8h137q24 0 24 -29q0 -14 -3 -17z" />
    <glyph glyph-name="acute" unicode="&#xb4;" horiz-adv-x="276" 
d="M88 625l87 91q14 14 23 14q10 0 17.5 -8.5t7.5 -18.5q0 -7 -3 -12l-82 -87q-17 -17 -27 -17q-11 0 -19 8.5t-8 19.5q0 5 4 10z" />
    <glyph glyph-name="periodcentered" unicode="&#xb7;" horiz-adv-x="255" 
d="M172 273q0 -20 -13.5 -33.5t-33.5 -13.5q-19 0 -33 13.5t-14 33.5q0 19 14 33t33 14q20 0 33.5 -14t13.5 -33z" />
    <glyph glyph-name="cedilla" unicode="&#xb8;" horiz-adv-x="300" 
d="M240 -132q0 -44 -41.5 -68.5t-90.5 -15.5q-22 4 -36.5 15t-6.5 22q5 8 27 3l19 -4q37 -8 57.5 9t20.5 42q0 38 -68 42q-22 1 -27.5 5.5t-3.5 19.5l13 68h35l-10 -61q57 0 84.5 -21.5t27.5 -55.5z" />
    <glyph glyph-name="onesuperior" unicode="&#xb9;" 
d="M127 407v278l-52 -36q-14 -9 -23 -9q-10 0 -17 6.5t-7 14.5q0 12 13 22l97 61q8 5 14 5q11 0 18 -7.5t7 -19.5v-315q0 -8 -7 -15t-17 -7q-11 0 -18.5 6.5t-7.5 15.5z" />
    <glyph glyph-name="ordmasculine" unicode="&#xba;" horiz-adv-x="384" 
d="M194 355q-66 0 -102 38.5t-36 100.5v81q0 62 36 101.5t102 39.5t101.5 -39t35.5 -102v-81q0 -62 -35.5 -100.5t-101.5 -38.5zM194 667q-85 0 -85 -96v-80q0 -88 85 -88q84 0 84 88v80q0 96 -84 96z" />
    <glyph glyph-name="guillemotright" unicode="&#xbb;" horiz-adv-x="431" 
d="M166 40l146 216l-137 206q-4 7 -4 15q0 13 10 22t22 9q16 0 32 -24l152 -230l-158 -238q-17 -23 -33 -23q-15 0 -24.5 9.5t-9.5 24.5q0 6 4 13zM51 105l98 149l-98 150q-4 7 -4 15q0 12 9.5 21.5t21.5 9.5q17 0 32 -24l113 -172l-113 -171q-14 -23 -32 -23q-12 0 -21.5 9
t-9.5 21q0 8 4 15z" />
    <glyph glyph-name="questiondown" unicode="&#xbf;" horiz-adv-x="462" 
d="M205 246q6 13 6 43q0 14 10 24t24 10q13 0 22.5 -10t9.5 -24q0 -25 -5 -37q-14 -41 -74 -109q-18 -18 -33 -39q-58 -68 -58 -135q0 -61 35.5 -100t99.5 -39q51 0 100 20q16 7 27 15q22 13 31 13q12 0 21.5 -8.5t9.5 -21.5q0 -17 -23 -33q-72 -44 -167 -44
q-92 0 -145.5 53t-53.5 134q0 102 73 184q15 19 33 35q46 46 57 69zM197 458q0 20 14 34.5t33 14.5t33 -14.5t14 -34.5q0 -19 -13.5 -32.5t-33.5 -13.5t-33.5 13.5t-13.5 32.5z" />
    <glyph glyph-name="Agrave" unicode="&#xc0;" horiz-adv-x="549" 
d="M142 163l-45 -148q-5 -9 -14.5 -16.5t-17.5 -7.5q-15 0 -25 9t-10 24q0 7 2 13l199 630q14 49 46 49q31 0 47 -49l199 -630q0 -1 0.5 -6t0.5 -7q0 -15 -10 -24t-25 -9q-9 0 -19 7t-13 17l-46 148h-269zM277 607l-116 -379h231zM215 916l86 -91q4 -4 4 -10q0 -12 -8 -20
t-18 -8q-14 0 -28 16l-81 88q-4 5 -4 12q0 11 7.5 19t16.5 8t25 -14z" />
    <glyph glyph-name="Aacute" unicode="&#xc1;" horiz-adv-x="549" 
d="M142 163l-45 -148q-5 -9 -14.5 -16.5t-17.5 -7.5q-15 0 -25 9t-10 24q0 7 2 13l199 630q14 49 46 49q31 0 47 -49l199 -630q0 -1 0.5 -6t0.5 -7q0 -15 -10 -24t-25 -9q-9 0 -19 7t-13 17l-46 148h-269zM277 607l-116 -379h231zM253 825l87 91q14 14 23 14q10 0 17.5 -8.5
t7.5 -18.5q0 -7 -3 -12l-82 -87q-17 -17 -27 -17q-11 0 -19 8.5t-8 19.5q0 5 4 10z" />
    <glyph glyph-name="Acircumflex" unicode="&#xc2;" horiz-adv-x="549" 
d="M142 163l-45 -148q-5 -9 -14.5 -16.5t-17.5 -7.5q-15 0 -25 9t-10 24q0 7 2 13l199 630q14 49 46 49q31 0 47 -49l199 -630q0 -1 0.5 -6t0.5 -7q0 -15 -10 -24t-25 -9q-9 0 -19 7t-13 17l-46 148h-269zM277 607l-116 -379h231zM276 853l-83 -68q-2 -3 -13 -3
q-7 0 -12.5 6t-5.5 13q0 8 16 24l81 69h-1q12 7 18 7q4 0 18 -7h-1l81 -69q16 -19 16 -24q0 -7 -6 -13t-13 -6q-10 0 -12 3z" />
    <glyph glyph-name="Atilde" unicode="&#xc3;" horiz-adv-x="549" 
d="M142 163l-45 -148q-5 -9 -14.5 -16.5t-17.5 -7.5q-15 0 -25 9t-10 24q0 7 2 13l199 630q14 49 46 49q31 0 47 -49l199 -630q0 -1 0.5 -6t0.5 -7q0 -15 -10 -24t-25 -9q-9 0 -19 7t-13 17l-46 148h-269zM277 607l-116 -379h231zM409 856q0 -22 -25 -38t-52 -16
q-25 0 -59 18q-2 1 -11 6t-16 7t-17 2q-22 0 -45 -18q-10 -9 -19 -9q-23 0 -23 23q0 21 23.5 38.5t51.5 17.5q23 0 58 -19q24 -13 45 -14q29 0 48 17q15 12 21 12q7 0 13.5 -7.5t6.5 -19.5z" />
    <glyph glyph-name="Adieresis" unicode="&#xc4;" horiz-adv-x="549" 
d="M142 163l-45 -148q-5 -9 -14.5 -16.5t-17.5 -7.5q-15 0 -25 9t-10 24q0 7 2 13l199 630q14 49 46 49q31 0 47 -49l199 -630q0 -1 0.5 -6t0.5 -7q0 -15 -10 -24t-25 -9q-9 0 -19 7t-13 17l-46 148h-269zM277 607l-116 -379h231zM403 846q0 -18 -11.5 -30t-28.5 -12
t-29.5 12.5t-12.5 29.5q0 16 13 28.5t29 12.5t28 -12t12 -29zM230 846q0 -18 -12 -30t-29 -12q-16 0 -28 12.5t-12 29.5q0 16 12 28.5t28 12.5q17 0 29 -12t12 -29z" />
    <glyph glyph-name="Aring" unicode="&#xc5;" horiz-adv-x="549" 
d="M382 734q0 -58 -51 -91l192 -606q0 -1 0.5 -6t0.5 -7q0 -15 -10 -24t-25 -9q-9 0 -19 7t-13 17l-46 148h-269l-45 -148q-5 -9 -14.5 -16.5t-17.5 -7.5q-15 0 -25 9t-10 24q0 7 2 13l192 606q-52 34 -52 91q0 43 31 74t75 31q43 0 73.5 -30.5t30.5 -74.5zM277 607
l-116 -379h231zM346 734q0 28 -20 49t-48 21t-49 -21t-21 -49t20.5 -48.5t49.5 -20.5t48.5 20t19.5 49z" />
    <glyph glyph-name="AE" unicode="&#xc6;" horiz-adv-x="722" 
d="M419 0q-57 0 -57 40v122h-221l-45 -148q-3 -10 -12.5 -17t-18.5 -7q-16 0 -26 9t-10 24q0 7 2 13l197 620q16 49 46 49h375q14 0 23.5 -10t9.5 -24q0 -13 -9.5 -21.5t-23.5 -8.5h-221v-255h202q12 0 21.5 -9.5t9.5 -22.5t-9 -22.5t-22 -9.5h-202v-258h231q13 0 23 -9
t10 -21q0 -15 -9.5 -24.5t-23.5 -9.5h-240zM362 641h-58q-11 0 -14.5 -3t-6.5 -14l-122 -397h201v414z" />
    <glyph glyph-name="Ccedilla" unicode="&#xc7;" horiz-adv-x="482" 
d="M363 -132q0 -46 -43 -70t-90 -14q-22 4 -35.5 14.5t-7.5 23.5v-1q5 8 28 3l18 -4q37 -8 58 9t21 42q0 38 -68 42q-22 1 -27.5 5.5t-3.5 19.5l10 57q-86 16 -129.5 81t-43.5 168v219q0 118 56 185.5t166 67.5q69 0 121.5 -24t52.5 -56q0 -12 -8 -20t-21 -8q-8 0 -22 9
q-60 40 -119 40q-159 0 -159 -194v-219q0 -93 37 -143t122 -50q62 0 118 39q14 10 23 10q13 0 21 -8.5t8 -20.5q0 -32 -53 -55.5t-120 -23.5h-15l-7 -47q56 0 84 -21.5t28 -55.5z" />
    <glyph glyph-name="Egrave" unicode="&#xc8;" horiz-adv-x="474" 
d="M440 35q0 -15 -9.5 -24.5t-23.5 -9.5h-271q-57 0 -57 40v624q0 16 12 28.5t29 12.5h277q13 0 22.5 -10t9.5 -24q0 -13 -9 -21.5t-23 -8.5h-252v-255h232q13 0 22.5 -9.5t9.5 -22.5t-9.5 -22.5t-22.5 -9.5h-232v-258h262q13 0 23 -9t10 -21zM217 916l86 -91q4 -4 4 -10
q0 -12 -8 -20t-18 -8q-14 0 -28 16l-81 88q-4 5 -4 12q0 11 7.5 19t16.5 8t25 -14z" />
    <glyph glyph-name="Eacute" unicode="&#xc9;" horiz-adv-x="474" 
d="M440 35q0 -15 -9.5 -24.5t-23.5 -9.5h-271q-57 0 -57 40v624q0 16 12 28.5t29 12.5h277q13 0 22.5 -10t9.5 -24q0 -13 -9 -21.5t-23 -8.5h-252v-255h232q13 0 22.5 -9.5t9.5 -22.5t-9.5 -22.5t-22.5 -9.5h-232v-258h262q13 0 23 -9t10 -21zM213 825l87 91q14 14 23 14
q10 0 17.5 -8.5t7.5 -18.5q0 -7 -3 -12l-82 -87q-17 -17 -27 -17q-11 0 -19 8.5t-8 19.5q0 5 4 10z" />
    <glyph glyph-name="Ecircumflex" unicode="&#xca;" horiz-adv-x="474" 
d="M440 35q0 -15 -9.5 -24.5t-23.5 -9.5h-271q-57 0 -57 40v624q0 16 12 28.5t29 12.5h277q13 0 22.5 -10t9.5 -24q0 -13 -9 -21.5t-23 -8.5h-252v-255h232q13 0 22.5 -9.5t9.5 -22.5t-9.5 -22.5t-22.5 -9.5h-232v-258h262q13 0 23 -9t10 -21zM263 853l-83 -68q-2 -3 -13 -3
q-7 0 -12.5 6t-5.5 13q0 8 16 24l81 69h-1q12 7 18 7q4 0 18 -7h-1l81 -69q16 -19 16 -24q0 -7 -6 -13t-13 -6q-10 0 -12 3z" />
    <glyph glyph-name="Edieresis" unicode="&#xcb;" horiz-adv-x="474" 
d="M440 35q0 -15 -9.5 -24.5t-23.5 -9.5h-271q-57 0 -57 40v624q0 16 12 28.5t29 12.5h277q13 0 22.5 -10t9.5 -24q0 -13 -9 -21.5t-23 -8.5h-252v-255h232q13 0 22.5 -9.5t9.5 -22.5t-9.5 -22.5t-22.5 -9.5h-232v-258h262q13 0 23 -9t10 -21zM389 846q0 -18 -11.5 -30
t-28.5 -12t-29.5 12.5t-12.5 29.5q0 16 13 28.5t29 12.5t28 -12t12 -29zM216 846q0 -18 -12 -30t-29 -12q-16 0 -28 12.5t-12 29.5q0 16 12 28.5t28 12.5q17 0 29 -12t12 -29z" />
    <glyph glyph-name="Igrave" unicode="&#xcc;" horiz-adv-x="227" 
d="M80 24v659q0 13 10.5 23t23.5 10q14 0 23.5 -10t9.5 -23v-659q0 -14 -9.5 -23.5t-23.5 -9.5t-24 10t-10 23zM67 916l86 -91q4 -4 4 -10q0 -12 -8 -20t-18 -8q-14 0 -28 16l-81 88q-4 5 -4 12q0 11 7.5 19t16.5 8t25 -14z" />
    <glyph glyph-name="Iacute" unicode="&#xcd;" horiz-adv-x="227" 
d="M80 24v659q0 13 10.5 23t23.5 10q14 0 23.5 -10t9.5 -23v-659q0 -14 -9.5 -23.5t-23.5 -9.5t-24 10t-10 23zM76 825l87 91q14 14 23 14q10 0 17.5 -8.5t7.5 -18.5q0 -7 -3 -12l-82 -87q-17 -17 -27 -17q-11 0 -19 8.5t-8 19.5q0 5 4 10z" />
    <glyph glyph-name="Icircumflex" unicode="&#xce;" horiz-adv-x="227" 
d="M80 24v659q0 13 10.5 23t23.5 10q14 0 23.5 -10t9.5 -23v-659q0 -14 -9.5 -23.5t-23.5 -9.5t-24 10t-10 23zM116 853l-83 -68q-2 -3 -13 -3q-7 0 -12.5 6t-5.5 13q0 8 16 24l81 69h-1q12 7 18 7q4 0 18 -7h-1l81 -69q16 -19 16 -24q0 -7 -6 -13t-13 -6q-10 0 -12 3z" />
    <glyph glyph-name="Idieresis" unicode="&#xcf;" horiz-adv-x="227" 
d="M80 24v659q0 13 10.5 23t23.5 10q14 0 23.5 -10t9.5 -23v-659q0 -14 -9.5 -23.5t-23.5 -9.5t-24 10t-10 23zM242 846q0 -18 -11.5 -30t-28.5 -12t-29.5 12.5t-12.5 29.5q0 16 13 28.5t29 12.5t28 -12t12 -29zM69 846q0 -18 -12 -30t-29 -12q-16 0 -28 12.5t-12 29.5
q0 16 12 28.5t28 12.5q17 0 29 -12t12 -29z" />
    <glyph glyph-name="Eth" unicode="&#xd0;" horiz-adv-x="574" 
d="M528 263q0 -54 -14.5 -99t-44.5 -82.5t-84.5 -59t-127.5 -21.5h-116q-17 0 -29.5 12t-12.5 29v283h-47q-13 0 -21.5 8t-8.5 21q0 12 8.5 21t21.5 9h47v281q0 17 12.5 29.5t29.5 12.5h116q141 0 206 -71.5t65 -181.5v-191zM335 354q0 -13 -8 -21t-20 -8h-141v-260h108
q99 0 143.5 54t44.5 144v191q0 85 -45 137t-143 52h-108v-259h141q12 0 20 -9t8 -21z" />
    <glyph glyph-name="Ntilde" unicode="&#xd1;" horiz-adv-x="600" 
d="M489 -9q-25 0 -35 19l-309 571v-556q0 -14 -10 -24t-24 -10t-23.5 10t-9.5 24v653q0 16 10.5 27t26.5 11q25 0 36 -21l309 -572v559q0 14 10 24t24 10q13 0 22.5 -10t9.5 -24v-654q0 -16 -10.5 -26.5t-26.5 -10.5zM435 856q0 -22 -25 -38t-52 -16q-25 0 -59 18
q-2 1 -11 6t-16 7t-17 2q-22 0 -45 -18q-11 -9 -19 -9q-23 0 -23 23q0 21 23.5 38.5t51.5 17.5q23 0 58 -19q24 -13 45 -14q29 0 48 17q15 12 21 12q7 0 13.5 -7.5t6.5 -19.5z" />
    <glyph glyph-name="Ograve" unicode="&#xd2;" horiz-adv-x="551" 
d="M278 -9q-109 0 -168.5 71t-59.5 182v219q0 112 56 182.5t172 70.5q115 0 171 -70.5t56 -182.5v-219q0 -111 -59 -182t-168 -71zM278 652q-161 0 -161 -189v-219q0 -87 40.5 -138t120.5 -51t120 51t40 138v219q0 189 -160 189zM235 916l86 -91q4 -4 4 -10q0 -12 -8 -20
t-18 -8q-14 0 -28 16l-81 88q-4 5 -4 12q0 11 7.5 19t16.5 8t25 -14z" />
    <glyph glyph-name="Oacute" unicode="&#xd3;" horiz-adv-x="551" 
d="M278 -9q-109 0 -168.5 71t-59.5 182v219q0 112 56 182.5t172 70.5q115 0 171 -70.5t56 -182.5v-219q0 -111 -59 -182t-168 -71zM278 652q-161 0 -161 -189v-219q0 -87 40.5 -138t120.5 -51t120 51t40 138v219q0 189 -160 189zM240 825l87 91q14 14 23 14q10 0 17.5 -8.5
t7.5 -18.5q0 -7 -3 -12l-82 -87q-17 -17 -27 -17q-11 0 -19 8.5t-8 19.5q0 5 4 10z" />
    <glyph glyph-name="Ocircumflex" unicode="&#xd4;" horiz-adv-x="551" 
d="M278 -9q-109 0 -168.5 71t-59.5 182v219q0 112 56 182.5t172 70.5q115 0 171 -70.5t56 -182.5v-219q0 -111 -59 -182t-168 -71zM278 652q-161 0 -161 -189v-219q0 -87 40.5 -138t120.5 -51t120 51t40 138v219q0 189 -160 189zM277 853l-83 -68q-2 -3 -13 -3q-7 0 -12.5 6
t-5.5 13q0 8 16 24l81 69h-1q12 7 18 7q4 0 18 -7h-1l81 -69q16 -19 16 -24q0 -7 -6 -13t-13 -6q-10 0 -12 3z" />
    <glyph glyph-name="Otilde" unicode="&#xd5;" horiz-adv-x="551" 
d="M278 -9q-109 0 -168.5 71t-59.5 182v219q0 112 56 182.5t172 70.5q115 0 171 -70.5t56 -182.5v-219q0 -111 -59 -182t-168 -71zM278 652q-161 0 -161 -189v-219q0 -87 40.5 -138t120.5 -51t120 51t40 138v219q0 189 -160 189zM410 856q0 -22 -25 -38t-52 -16
q-25 0 -59 18q-2 1 -11 6t-16 7t-17 2q-22 0 -45 -18q-11 -9 -19 -9q-23 0 -23 23q0 21 23.5 38.5t51.5 17.5q23 0 58 -19q24 -13 45 -14q29 0 48 17q15 12 21 12q7 0 13.5 -7.5t6.5 -19.5z" />
    <glyph glyph-name="Odieresis" unicode="&#xd6;" horiz-adv-x="551" 
d="M278 -9q-109 0 -168.5 71t-59.5 182v219q0 112 56 182.5t172 70.5q115 0 171 -70.5t56 -182.5v-219q0 -111 -59 -182t-168 -71zM278 652q-161 0 -161 -189v-219q0 -87 40.5 -138t120.5 -51t120 51t40 138v219q0 189 -160 189zM404 846q0 -18 -11.5 -30t-28.5 -12
t-29.5 12.5t-12.5 29.5q0 16 13 28.5t29 12.5t28 -12t12 -29zM231 846q0 -18 -12 -30t-29 -12q-16 0 -28 12.5t-12 29.5q0 16 12 28.5t28 12.5q17 0 29 -12t12 -29z" />
    <glyph glyph-name="multiply" unicode="&#xd7;" horiz-adv-x="500" 
d="M426 482l-127 -127l127 -128q10 -12 10 -24q0 -11 -10.5 -21t-21.5 -10q-16 0 -24 9l-127 128l-129 -128q-8 -9 -23 -9q-11 0 -21.5 10.5t-10.5 20.5q0 14 10 24l128 128l-128 127q-10 9 -10 24q0 10 11 21t21 11q14 0 24 -10l128 -127l127 127q10 10 24 10q10 0 21 -10
t11 -22q0 -14 -10 -24z" />
    <glyph glyph-name="Oslash" unicode="&#xd8;" horiz-adv-x="551" 
d="M29 29l53 75q-32 67 -32 140v219q0 112 56 182.5t172 70.5q111 0 177 -77l43 60q11 16 27 5q15 -11 4 -27l-53 -75q29 -59 29 -139v-219q0 -111 -59 -182t-168 -71t-175 77l-43 -61q-11 -16 -27 -5q-16 12 -4 27zM278 652q-162 0 -162 -189v-219q0 -28 11 -75l288 411
q-43 72 -137 72zM438 463q0 30 -8 73l-287 -410q44 -71 135 -71q80 0 120 51t40 138v219z" />
    <glyph glyph-name="Ugrave" unicode="&#xd9;" horiz-adv-x="572" 
d="M507 228q0 -105 -58.5 -171t-159.5 -66q-103 0 -161 66t-58 171v452q0 16 10 26t25 10q13 0 22.5 -10.5t9.5 -25.5v-452q0 -79 38.5 -126t113.5 -47q74 0 112 47t38 126v452q0 14 10 25t23 11q14 0 24.5 -11t10.5 -25v-452zM232 916l86 -91q4 -4 4 -10q0 -12 -8 -20
t-18 -8q-14 0 -28 16l-81 88q-4 5 -4 12q0 11 7.5 19t16.5 8t25 -14z" />
    <glyph glyph-name="Uacute" unicode="&#xda;" horiz-adv-x="572" 
d="M507 228q0 -105 -58.5 -171t-159.5 -66q-103 0 -161 66t-58 171v452q0 16 10 26t25 10q13 0 22.5 -10.5t9.5 -25.5v-452q0 -79 38.5 -126t113.5 -47q74 0 112 47t38 126v452q0 14 10 25t23 11q14 0 24.5 -11t10.5 -25v-452zM257 825l87 91q14 14 23 14q10 0 17.5 -8.5
t7.5 -18.5q0 -7 -3 -12l-82 -87q-17 -17 -27 -17q-11 0 -19 8.5t-8 19.5q0 5 4 10z" />
    <glyph glyph-name="Ucircumflex" unicode="&#xdb;" horiz-adv-x="572" 
d="M507 228q0 -105 -58.5 -171t-159.5 -66q-103 0 -161 66t-58 171v452q0 16 10 26t25 10q13 0 22.5 -10.5t9.5 -25.5v-452q0 -79 38.5 -126t113.5 -47q74 0 112 47t38 126v452q0 14 10 25t23 11q14 0 24.5 -11t10.5 -25v-452zM288 853l-83 -68q-2 -3 -13 -3q-7 0 -12.5 6
t-5.5 13q0 8 16 24l81 69h-1q12 7 18 7q4 0 18 -7h-1l81 -69q16 -19 16 -24q0 -7 -6 -13t-13 -6q-10 0 -12 3z" />
    <glyph glyph-name="Udieresis" unicode="&#xdc;" horiz-adv-x="572" 
d="M507 228q0 -105 -58.5 -171t-159.5 -66q-103 0 -161 66t-58 171v452q0 16 10 26t25 10q13 0 22.5 -10.5t9.5 -25.5v-452q0 -79 38.5 -126t113.5 -47q74 0 112 47t38 126v452q0 14 10 25t23 11q14 0 24.5 -11t10.5 -25v-452zM414 846q0 -18 -11.5 -30t-28.5 -12
t-29.5 12.5t-12.5 29.5q0 16 13 28.5t29 12.5t28 -12t12 -29zM241 846q0 -18 -12 -30t-29 -12q-16 0 -28 12.5t-12 29.5q0 16 12 28.5t28 12.5q17 0 29 -12t12 -29z" />
    <glyph glyph-name="Yacute" unicode="&#xdd;" horiz-adv-x="476" 
d="M241 -9q-15 0 -25 10t-10 25v253l-182 386q-4 10 -4 17q0 13 10.5 23.5t24.5 10.5q17 0 24 -13v1l162 -351l161 351v-1q7 13 25 13q13 0 23 -10.5t10 -23.5q0 -5 -3 -17l-183 -390v-249q0 -14 -9.5 -24.5t-23.5 -10.5zM174 825l87 91q14 14 23 14q10 0 17.5 -8.5
t7.5 -18.5q0 -7 -3 -12l-82 -87q-17 -17 -27 -17q-11 0 -19 8.5t-8 19.5q0 5 4 10z" />
    <glyph glyph-name="Thorn" unicode="&#xde;" horiz-adv-x="530" 
d="M79 24v659q0 13 10 23t23 10q14 0 23.5 -10t9.5 -23v-99h126q114 0 167.5 -63t53.5 -159q0 -104 -59 -161t-162 -57h-126v-120q0 -14 -9.5 -23.5t-23.5 -9.5t-23.5 9.5t-9.5 23.5zM145 520v-312h126q155 0 155 155q0 157 -155 157h-126z" />
    <glyph glyph-name="germandbls" unicode="&#xdf;" horiz-adv-x="544" 
d="M516 161q0 -77 -45.5 -120.5t-129.5 -43.5q-125 0 -125 39q0 12 8 21t26 9q14 0 37 -5q34 -6 53 -6q44 0 77.5 26t33.5 78q0 32 -13.5 58t-36 44t-45 29t-47.5 19q-24 7 -37 12.5t-26.5 19t-13.5 32.5q0 37 35 55q71 35 89 50q34 29 34 76q0 51 -33.5 78.5t-89.5 27.5
q-65 0 -94.5 -38t-29.5 -117v-539q0 -13 -9.5 -22.5t-22.5 -9.5q-14 0 -23.5 9t-9.5 23v536q0 103 50.5 160t144.5 57q80 0 130 -41t50 -115q0 -100 -84 -138q-5 -2 -17.5 -6.5t-21 -8.5t-17.5 -9t-13 -11.5t-2 -13.5q4 -9 15.5 -14.5t55.5 -20.5q147 -55 147 -180z" />
    <glyph glyph-name="agrave" unicode="&#xe0;" horiz-adv-x="482" 
d="M335 272v69q0 119 -117 119q-45 0 -81 -22q-12 -8 -24 -8q-20 0 -22 26q-3 29 38.5 44t98.5 15q90 0 131 -50t41 -151v-226q0 -39 27 -39q2 0 4.5 0.5t3.5 0.5q22 0 22 -27t-38 -27q-47 0 -76 57q-63 -60 -143 -60q-74 0 -112 39.5t-38 107.5v4q0 146 174 146
q47 0 111 -18zM223 237q-63 0 -86 -25t-23 -69v-4q0 -90 99 -90q64 0 122 49v120q-58 19 -112 19zM201 716l86 -91q4 -4 4 -10q0 -12 -8 -20t-18 -8q-14 0 -28 16l-81 88q-4 5 -4 12q0 11 7.5 19t16.5 8t25 -14z" />
    <glyph glyph-name="aacute" unicode="&#xe1;" horiz-adv-x="482" 
d="M335 272v69q0 119 -117 119q-45 0 -81 -22q-12 -8 -24 -8q-20 0 -22 26q-3 29 38.5 44t98.5 15q90 0 131 -50t41 -151v-226q0 -39 27 -39q2 0 4.5 0.5t3.5 0.5q22 0 22 -27t-38 -27q-47 0 -76 57q-63 -60 -143 -60q-74 0 -112 39.5t-38 107.5v4q0 146 174 146
q47 0 111 -18zM223 237q-63 0 -86 -25t-23 -69v-4q0 -90 99 -90q64 0 122 49v120q-58 19 -112 19zM206 625l87 91q14 14 23 14q10 0 17.5 -8.5t7.5 -18.5q0 -7 -3 -12l-82 -87q-17 -17 -27 -17q-11 0 -19 8.5t-8 19.5q0 5 4 10z" />
    <glyph glyph-name="acircumflex" unicode="&#xe2;" horiz-adv-x="482" 
d="M335 272v69q0 119 -117 119q-45 0 -81 -22q-12 -8 -24 -8q-20 0 -22 26q-3 29 38.5 44t98.5 15q90 0 131 -50t41 -151v-226q0 -39 27 -39q2 0 4.5 0.5t3.5 0.5q22 0 22 -27t-38 -27q-47 0 -76 57q-63 -60 -143 -60q-74 0 -112 39.5t-38 107.5v4q0 146 174 146
q47 0 111 -18zM223 237q-63 0 -86 -25t-23 -69v-4q0 -90 99 -90q64 0 122 49v120q-58 19 -112 19zM243 653l-83 -68q-2 -3 -13 -3q-7 0 -12.5 6t-5.5 13q0 8 16 24l81 69h-1q12 7 18 7q4 0 18 -7h-1l81 -69q16 -19 16 -24q0 -7 -6 -13t-13 -6q-10 0 -12 3z" />
    <glyph glyph-name="atilde" unicode="&#xe3;" horiz-adv-x="482" 
d="M335 272v69q0 119 -117 119q-45 0 -81 -22q-12 -8 -24 -8q-20 0 -22 26q-3 29 38.5 44t98.5 15q90 0 131 -50t41 -151v-226q0 -39 27 -39q2 0 4.5 0.5t3.5 0.5q22 0 22 -27t-38 -27q-47 0 -76 57q-63 -60 -143 -60q-74 0 -112 39.5t-38 107.5v4q0 146 174 146
q47 0 111 -18zM223 237q-63 0 -86 -25t-23 -69v-4q0 -90 99 -90q64 0 122 49v120q-58 19 -112 19zM376 656q0 -22 -25 -38t-52 -16q-25 0 -59 18q-2 1 -11 6t-16 7t-17 2q-22 0 -45 -18q-10 -9 -19 -9q-23 0 -23 23q0 21 23.5 38.5t51.5 17.5q23 0 58 -19q24 -13 45 -14
q29 0 48 17q15 12 21 12q7 0 13.5 -7.5t6.5 -19.5z" />
    <glyph glyph-name="adieresis" unicode="&#xe4;" horiz-adv-x="482" 
d="M335 272v69q0 119 -117 119q-45 0 -81 -22q-12 -8 -24 -8q-20 0 -22 26q-3 29 38.5 44t98.5 15q90 0 131 -50t41 -151v-226q0 -39 27 -39q2 0 4.5 0.5t3.5 0.5q22 0 22 -27t-38 -27q-47 0 -76 57q-63 -60 -143 -60q-74 0 -112 39.5t-38 107.5v4q0 146 174 146
q47 0 111 -18zM223 237q-63 0 -86 -25t-23 -69v-4q0 -90 99 -90q64 0 122 49v120q-58 19 -112 19zM369 646q0 -18 -11.5 -30t-28.5 -12t-29.5 12.5t-12.5 29.5q0 16 13 28.5t29 12.5t28 -12t12 -29zM196 646q0 -18 -12 -30t-29 -12q-16 0 -28 12.5t-12 29.5q0 16 12 28.5
t28 12.5q17 0 29 -12t12 -29z" />
    <glyph glyph-name="aring" unicode="&#xe5;" horiz-adv-x="482" 
d="M335 272v69q0 119 -117 119q-45 0 -81 -22q-12 -8 -24 -8q-20 0 -22 26q-3 29 38.5 44t98.5 15q90 0 131 -50t41 -151v-226q0 -39 27 -39q2 0 4.5 0.5t3.5 0.5q22 0 22 -27t-38 -27q-47 0 -76 57q-63 -60 -143 -60q-74 0 -112 39.5t-38 107.5v4q0 146 174 146
q47 0 111 -18zM223 237q-63 0 -86 -25t-23 -69v-4q0 -90 99 -90q64 0 122 49v120q-58 19 -112 19zM338 651q0 -39 -27 -66t-66 -27q-40 0 -67.5 27t-27.5 66t27.5 66.5t67.5 27.5q39 0 66 -27.5t27 -66.5zM307 651q0 26 -18 45t-44 19t-44.5 -19t-18.5 -45t18.5 -44
t44.5 -18t44 18t18 44z" />
    <glyph glyph-name="ae" unicode="&#xe6;" horiz-adv-x="712" 
d="M512 210q-59 0 -114 11v-71q0 -47 31.5 -74.5t89.5 -27.5q45 0 110 29q6 3 12 3q11 0 19 -8.5t8 -19.5q0 -30 -52.5 -44.5t-102.5 -14.5q-97 0 -141 77q-76 -77 -173 -77q-74 0 -112.5 40t-38.5 107v4q0 146 174 146q47 0 112 -18v69q0 119 -118 119q-43 0 -80 -22
q-2 0 -6 -3q-10 -5 -19 -5q-20 0 -22 26q-3 29 38.5 44t98.5 15q100 0 141 -96q46 96 152 96q77 0 118 -43t41 -117q0 -145 -166 -145zM614 355q0 103 -101 103q-54 0 -84.5 -27.5t-30.5 -74.5v-85q70 -8 117 -8q57 0 78 25t21 67zM334 98v120q-60 19 -113 19q-63 0 -86 -25
t-23 -69v-4q0 -90 99 -90q64 0 123 49z" />
    <glyph glyph-name="ccedilla" unicode="&#xe7;" horiz-adv-x="393" 
d="M333 -139q0 -32 -27 -55.5t-77 -23.5q-26 0 -30 1q-22 2 -36 13.5t-7 24.5v-1q6 9 27 3l19 -4q37 -8 58 9t21 40q0 41 -69 44q-20 1 -26.5 6.5t-4.5 18.5l10 58q-70 11 -105.5 60t-35.5 119v156q0 81 44.5 131.5t133.5 50.5q46 0 90.5 -13t44.5 -42q0 -11 -8 -19t-19 -8
q-5 0 -15 2h1q-48 25 -86 25q-121 0 -121 -127v-156q0 -126 121 -126q38 0 86 24h-1q11 3 15 3q11 0 19 -8.5t8 -19.5q0 -27 -43.5 -40.5t-92.5 -14.5l-8 -48q114 -1 114 -83z" />
    <glyph glyph-name="egrave" unicode="&#xe8;" horiz-adv-x="435" 
d="M236 48q45 0 110 29q6 3 11 3q12 0 20 -8.5t8 -19.5q0 -30 -52.5 -44.5t-106.5 -14.5q-82 0 -129 46t-47 117v192q0 74 48 120.5t134 46.5q80 0 121 -42.5t41 -117.5q0 -145 -166 -145q-59 0 -113 11v-71q0 -47 31 -74.5t90 -27.5zM330 355q0 103 -101 103
q-54 0 -84 -27.5t-30 -74.5v-85q57 -8 117 -8q57 0 77.5 25t20.5 67zM158 716l86 -91q4 -4 4 -10q0 -12 -8 -20t-18 -8q-14 0 -28 16l-81 88q-4 5 -4 12q0 11 7.5 19t16.5 8t25 -14z" />
    <glyph glyph-name="eacute" unicode="&#xe9;" horiz-adv-x="435" 
d="M236 48q45 0 110 29q6 3 11 3q12 0 20 -8.5t8 -19.5q0 -30 -52.5 -44.5t-106.5 -14.5q-82 0 -129 46t-47 117v192q0 74 48 120.5t134 46.5q80 0 121 -42.5t41 -117.5q0 -145 -166 -145q-59 0 -113 11v-71q0 -47 31 -74.5t90 -27.5zM330 355q0 103 -101 103
q-54 0 -84 -27.5t-30 -74.5v-85q57 -8 117 -8q57 0 77.5 25t20.5 67zM190 625l87 91q14 14 23 14q10 0 17.5 -8.5t7.5 -18.5q0 -7 -3 -12l-82 -87q-17 -17 -27 -17q-11 0 -19 8.5t-8 19.5q0 5 4 10z" />
    <glyph glyph-name="ecircumflex" unicode="&#xea;" horiz-adv-x="435" 
d="M236 48q45 0 110 29q6 3 11 3q12 0 20 -8.5t8 -19.5q0 -30 -52.5 -44.5t-106.5 -14.5q-82 0 -129 46t-47 117v192q0 74 48 120.5t134 46.5q80 0 121 -42.5t41 -117.5q0 -145 -166 -145q-59 0 -113 11v-71q0 -47 31 -74.5t90 -27.5zM330 355q0 103 -101 103
q-54 0 -84 -27.5t-30 -74.5v-85q57 -8 117 -8q57 0 77.5 25t20.5 67zM219 653l-83 -68q-2 -3 -13 -3q-7 0 -12.5 6t-5.5 13q0 8 16 24l81 69h-1q12 7 18 7q4 0 18 -7h-1l81 -69q16 -19 16 -24q0 -7 -6 -13t-13 -6q-10 0 -12 3z" />
    <glyph glyph-name="edieresis" unicode="&#xeb;" horiz-adv-x="435" 
d="M236 48q45 0 110 29q6 3 11 3q12 0 20 -8.5t8 -19.5q0 -30 -52.5 -44.5t-106.5 -14.5q-82 0 -129 46t-47 117v192q0 74 48 120.5t134 46.5q80 0 121 -42.5t41 -117.5q0 -145 -166 -145q-59 0 -113 11v-71q0 -47 31 -74.5t90 -27.5zM330 355q0 103 -101 103
q-54 0 -84 -27.5t-30 -74.5v-85q57 -8 117 -8q57 0 77.5 25t20.5 67zM346 646q0 -18 -11.5 -30t-28.5 -12t-29.5 12.5t-12.5 29.5q0 16 13 28.5t29 12.5t28 -12t12 -29zM173 646q0 -18 -12 -30t-29 -12q-16 0 -28 12.5t-12 29.5q0 16 12 28.5t28 12.5q17 0 29 -12t12 -29z
" />
    <glyph glyph-name="igrave" unicode="&#xec;" horiz-adv-x="245" 
d="M156 25q0 -13 -9.5 -22.5t-22.5 -9.5q-14 0 -23.5 9t-9.5 23v454q0 14 9.5 23.5t23.5 9.5q13 0 22.5 -10t9.5 -23v-454zM71 716l86 -91q4 -4 4 -10q0 -12 -8 -20t-18 -8q-14 0 -28 16l-81 88q-4 5 -4 12q0 11 7.5 19t16.5 8t25 -14z" />
    <glyph glyph-name="iacute" unicode="&#xed;" horiz-adv-x="245" 
d="M156 25q0 -13 -9.5 -22.5t-22.5 -9.5q-14 0 -23.5 9t-9.5 23v454q0 14 9.5 23.5t23.5 9.5q13 0 22.5 -10t9.5 -23v-454zM93 625l87 91q14 14 23 14q10 0 17.5 -8.5t7.5 -18.5q0 -7 -3 -12l-82 -87q-17 -17 -27 -17q-11 0 -19 8.5t-8 19.5q0 5 4 10z" />
    <glyph glyph-name="icircumflex" unicode="&#xee;" horiz-adv-x="245" 
d="M156 25q0 -13 -9.5 -22.5t-22.5 -9.5q-14 0 -23.5 9t-9.5 23v454q0 14 9.5 23.5t23.5 9.5q13 0 22.5 -10t9.5 -23v-454zM125 653l-83 -68q-2 -3 -13 -3q-7 0 -12.5 6t-5.5 13q0 8 16 24l81 69h-1q12 7 18 7q4 0 18 -7h-1l81 -69q16 -19 16 -24q0 -7 -6 -13t-13 -6
q-10 0 -12 3z" />
    <glyph glyph-name="idieresis" unicode="&#xef;" horiz-adv-x="245" 
d="M156 25q0 -13 -9.5 -22.5t-22.5 -9.5q-14 0 -23.5 9t-9.5 23v454q0 14 9.5 23.5t23.5 9.5q13 0 22.5 -10t9.5 -23v-454zM251 646q0 -18 -11.5 -30t-28.5 -12t-29.5 12.5t-12.5 29.5q0 16 13 28.5t29 12.5t28 -12t12 -29zM78 646q0 -18 -12 -30t-29 -12q-16 0 -28 12.5
t-12 29.5q0 16 12 28.5t28 12.5q17 0 29 -12t12 -29z" />
    <glyph glyph-name="eth" unicode="&#xf0;" horiz-adv-x="500" 
d="M478 677q16 -1 19.5 -18t-10.5 -25l-69 -36q43 -107 43 -270q0 -80 -9 -139.5t-25.5 -97t-42 -60t-54.5 -31.5t-68 -9q-108 0 -162.5 60.5t-54.5 158.5t48.5 162t136.5 64q90 0 162 -57q0 120 -25 190l-75 -40q-12 -6 -20 -6t-15 7.5t-6 16.5q2 13 12 19l82 44
q-42 45 -115 53q-25 2 -23 26q1 15 11 21t39 6q87 0 141 -78l61 33q12 6 19 6zM394 282v32q-26 27 -72.5 45t-84.5 18q-59 0 -93 -43t-34 -119q0 -74 35.5 -118.5t111.5 -44.5t106.5 53.5t30.5 176.5z" />
    <glyph glyph-name="ntilde" unicode="&#xf1;" horiz-adv-x="509" 
d="M129 464q71 49 150 49q76 0 115.5 -50t39.5 -137v-301q0 -31 -32 -31q-15 0 -24 8.5t-9 22.5v301q0 63 -26 97t-76 34q-59 0 -122 -48q3 -16 3 -34v-350q0 -31 -32 -31q-33 0 -33 31v350q0 50 -18 76q-6 8 -6 17q0 12 8.5 20.5t20.5 8.5q24 0 41 -33zM378 656
q0 -22 -25 -38t-52 -16q-25 0 -59 18q-2 1 -11 6t-16 7t-17 2q-22 0 -45 -18q-11 -9 -19 -9q-23 0 -23 23q0 21 23.5 38.5t51.5 17.5q23 0 58 -19q24 -13 45 -14q29 0 48 17q15 12 21 12q7 0 13.5 -7.5t6.5 -19.5z" />
    <glyph glyph-name="ograve" unicode="&#xf2;" horiz-adv-x="464" 
d="M235 -7q-87 0 -136 49t-49 126v172q0 77 49 126.5t136 49.5q88 0 136.5 -49.5t48.5 -126.5v-172q0 -77 -48.5 -126t-136.5 -49zM235 52q59 0 89.5 30.5t30.5 85.5v173q0 55 -30.5 86t-89.5 31q-58 0 -89 -31t-31 -86v-173q0 -55 31 -85.5t89 -30.5zM185 716l86 -91
q4 -4 4 -10q0 -12 -8 -20t-18 -8q-14 0 -28 16l-81 88q-4 5 -4 12q0 11 7.5 19t16.5 8t25 -14z" />
    <glyph glyph-name="oacute" unicode="&#xf3;" horiz-adv-x="464" 
d="M235 -7q-87 0 -136 49t-49 126v172q0 77 49 126.5t136 49.5q88 0 136.5 -49.5t48.5 -126.5v-172q0 -77 -48.5 -126t-136.5 -49zM235 52q59 0 89.5 30.5t30.5 85.5v173q0 55 -30.5 86t-89.5 31q-58 0 -89 -31t-31 -86v-173q0 -55 31 -85.5t89 -30.5zM167 625l87 91
q14 14 23 14q10 0 17.5 -8.5t7.5 -18.5q0 -7 -3 -12l-82 -87q-17 -17 -27 -17q-11 0 -19 8.5t-8 19.5q0 5 4 10z" />
    <glyph glyph-name="ocircumflex" unicode="&#xf4;" horiz-adv-x="464" 
d="M235 -7q-87 0 -136 49t-49 126v172q0 77 49 126.5t136 49.5q88 0 136.5 -49.5t48.5 -126.5v-172q0 -77 -48.5 -126t-136.5 -49zM235 52q59 0 89.5 30.5t30.5 85.5v173q0 55 -30.5 86t-89.5 31q-58 0 -89 -31t-31 -86v-173q0 -55 31 -85.5t89 -30.5zM234 653l-83 -68
q-2 -3 -13 -3q-7 0 -12.5 6t-5.5 13q0 8 16 24l81 69h-1q12 7 18 7q4 0 18 -7h-1l81 -69q16 -19 16 -24q0 -7 -6 -13t-13 -6q-10 0 -12 3z" />
    <glyph glyph-name="otilde" unicode="&#xf5;" horiz-adv-x="464" 
d="M235 -7q-87 0 -136 49t-49 126v172q0 77 49 126.5t136 49.5q88 0 136.5 -49.5t48.5 -126.5v-172q0 -77 -48.5 -126t-136.5 -49zM235 52q59 0 89.5 30.5t30.5 85.5v173q0 55 -30.5 86t-89.5 31q-58 0 -89 -31t-31 -86v-173q0 -55 31 -85.5t89 -30.5zM367 656
q0 -22 -25 -38t-52 -16q-25 0 -59 18q-2 1 -11 6t-16 7t-17 2q-22 0 -45 -18q-10 -9 -19 -9q-23 0 -23 23q0 21 23.5 38.5t51.5 17.5q23 0 58 -19q24 -13 45 -14q29 0 48 17q15 12 21 12q7 0 13.5 -7.5t6.5 -19.5z" />
    <glyph glyph-name="odieresis" unicode="&#xf6;" horiz-adv-x="464" 
d="M235 -7q-87 0 -136 49t-49 126v172q0 77 49 126.5t136 49.5q88 0 136.5 -49.5t48.5 -126.5v-172q0 -77 -48.5 -126t-136.5 -49zM235 52q59 0 89.5 30.5t30.5 85.5v173q0 55 -30.5 86t-89.5 31q-58 0 -89 -31t-31 -86v-173q0 -55 31 -85.5t89 -30.5zM360 646
q0 -18 -11.5 -30t-28.5 -12t-29.5 12.5t-12.5 29.5q0 16 13 28.5t29 12.5t28 -12t12 -29zM187 646q0 -18 -12 -30t-29 -12q-16 0 -28 12.5t-12 29.5q0 16 12 28.5t28 12.5q17 0 29 -12t12 -29z" />
    <glyph glyph-name="oslash" unicode="&#xf8;" horiz-adv-x="464" 
d="M44 10l37 53q-31 46 -31 105v172q0 77 49 126.5t136 49.5q75 0 131 -45l33 47q5 7 12.5 8.5t13.5 -3.5q16 -13 6 -27l-39 -55q28 -44 28 -101v-172q0 -77 -48.5 -126t-136.5 -49q-74 0 -128 40l-31 -45q-5 -7 -13 -8t-14 4q-14 9 -5 26zM115 168q0 -14 5 -47l209 298
q-34 39 -94 39q-58 0 -89 -31t-31 -86v-173zM235 52q59 0 89.5 30.5t30.5 85.5v173q0 11 -4 40l-207 -296q33 -33 91 -33z" />
    <glyph glyph-name="ugrave" unicode="&#xf9;" horiz-adv-x="509" 
d="M366 120v360q0 32 33 32q15 0 23.5 -9t8.5 -23v-360q0 -52 11 -65q15 -18 15 -28q0 -12 -9 -20t-21 -8q-22 0 -43 33q-67 -39 -148 -39q-76 0 -116.5 50t-40.5 136v301q0 14 9 23t24 9t23.5 -9t8.5 -23v-301q0 -62 26.5 -96t76.5 -34q62 0 121 38q-2 20 -2 33zM194 716
l86 -91q4 -4 4 -10q0 -12 -8 -20t-18 -8q-14 0 -28 16l-81 88q-4 5 -4 12q0 11 7.5 19t16.5 8t25 -14z" />
    <glyph glyph-name="uacute" unicode="&#xfa;" horiz-adv-x="509" 
d="M366 120v360q0 32 33 32q15 0 23.5 -9t8.5 -23v-360q0 -52 11 -65q15 -18 15 -28q0 -12 -9 -20t-21 -8q-22 0 -43 33q-67 -39 -148 -39q-76 0 -116.5 50t-40.5 136v301q0 14 9 23t24 9t23.5 -9t8.5 -23v-301q0 -62 26.5 -96t76.5 -34q62 0 121 38q-2 20 -2 33zM223 625
l87 91q14 14 23 14q10 0 17.5 -8.5t7.5 -18.5q0 -7 -3 -12l-82 -87q-17 -17 -27 -17q-11 0 -19 8.5t-8 19.5q0 5 4 10z" />
    <glyph glyph-name="ucircumflex" unicode="&#xfb;" horiz-adv-x="509" 
d="M366 120v360q0 32 33 32q15 0 23.5 -9t8.5 -23v-360q0 -52 11 -65q15 -18 15 -28q0 -12 -9 -20t-21 -8q-22 0 -43 33q-67 -39 -148 -39q-76 0 -116.5 50t-40.5 136v301q0 14 9 23t24 9t23.5 -9t8.5 -23v-301q0 -62 26.5 -96t76.5 -34q62 0 121 38q-2 20 -2 33zM256 653
l-83 -68q-2 -3 -13 -3q-7 0 -12.5 6t-5.5 13q0 8 16 24l81 69h-1q12 7 18 7q4 0 18 -7h-1l81 -69q16 -19 16 -24q0 -7 -6 -13t-13 -6q-10 0 -12 3z" />
    <glyph glyph-name="udieresis" unicode="&#xfc;" horiz-adv-x="509" 
d="M366 120v360q0 32 33 32q15 0 23.5 -9t8.5 -23v-360q0 -52 11 -65q15 -18 15 -28q0 -12 -9 -20t-21 -8q-22 0 -43 33q-67 -39 -148 -39q-76 0 -116.5 50t-40.5 136v301q0 14 9 23t24 9t23.5 -9t8.5 -23v-301q0 -62 26.5 -96t76.5 -34q62 0 121 38q-2 20 -2 33zM383 646
q0 -18 -11.5 -30t-28.5 -12t-29.5 12.5t-12.5 29.5q0 16 13 28.5t29 12.5t28 -12t12 -29zM210 646q0 -18 -12 -30t-29 -12q-16 0 -28 12.5t-12 29.5q0 16 12 28.5t28 12.5q17 0 29 -12t12 -29z" />
    <glyph glyph-name="yacute" unicode="&#xfd;" horiz-adv-x="412" 
d="M399 469l-126 -409q-20 -65 -36.5 -104.5t-41.5 -79.5t-59 -59t-78 -19q-15 0 -24.5 8.5t-9.5 22.5q0 12 8 21t22 10q52 2 80 31t53 104l-164 476q-3 3 -3 11q0 13 9.5 21.5t23.5 8.5q20 0 29 -21l136 -415l120 415q11 21 30 21q13 0 22.5 -9.5t9.5 -23.5q0 -3 -0.5 -6
t-0.5 -4zM189 625l87 91q14 14 23 14q10 0 17.5 -8.5t7.5 -18.5q0 -7 -3 -12l-82 -87q-17 -17 -27 -17q-11 0 -19 8.5t-8 19.5q0 5 4 10z" />
    <glyph glyph-name="thorn" unicode="&#xfe;" horiz-adv-x="485" 
d="M144 404v-278q50 -56 126 -56q106 0 106 98v194q0 99 -106 99q-74 0 -126 -57zM79 -186v879q0 13 9 22.5t24 9.5t23.5 -9.5t8.5 -22.5v-227q69 49 146 49q79 0 115 -41.5t36 -111.5v-194q0 -70 -36 -111.5t-115 -41.5q-75 0 -146 49v-250q0 -13 -8.5 -22t-23.5 -9t-24 9
t-9 22z" />
    <glyph glyph-name="ydieresis" unicode="&#xff;" horiz-adv-x="412" 
d="M399 469l-126 -409q-20 -65 -36.5 -104.5t-41.5 -79.5t-59 -59t-78 -19q-15 0 -24.5 8.5t-9.5 22.5q0 12 8 21t22 10q52 2 80 31t53 104l-164 476q-3 3 -3 11q0 13 9.5 21.5t23.5 8.5q20 0 29 -21l136 -415l120 415q11 21 30 21q13 0 22.5 -9.5t9.5 -23.5q0 -3 -0.5 -6
t-0.5 -4zM334 646q0 -18 -11.5 -30t-28.5 -12t-29.5 12.5t-12.5 29.5q0 16 13 28.5t29 12.5t28 -12t12 -29zM161 646q0 -18 -12 -30t-29 -12q-16 0 -28 12.5t-12 29.5q0 16 12 28.5t28 12.5q17 0 29 -12t12 -29z" />
    <glyph glyph-name="Amacron" unicode="&#x100;" horiz-adv-x="549" 
d="M142 163l-45 -148q-5 -9 -14.5 -16.5t-17.5 -7.5q-15 0 -25 9t-10 24q0 7 2 13l199 630q14 49 46 49q31 0 47 -49l199 -630q0 -1 0.5 -6t0.5 -7q0 -15 -10 -24t-25 -9q-9 0 -19 7t-13 17l-46 148h-269zM277 607l-116 -379h231zM432 844q0 -13 -8 -21t-20 -8h-255
q-13 0 -21.5 8t-8.5 21q0 12 8.5 21t21.5 9h255q12 0 20 -9t8 -21z" />
    <glyph glyph-name="amacron" unicode="&#x101;" horiz-adv-x="482" 
d="M335 272v69q0 119 -117 119q-45 0 -81 -22q-12 -8 -24 -8q-20 0 -22 26q-3 29 38.5 44t98.5 15q90 0 131 -50t41 -151v-226q0 -39 27 -39q2 0 4.5 0.5t3.5 0.5q22 0 22 -27t-38 -27q-47 0 -76 57q-63 -60 -143 -60q-74 0 -112 39.5t-38 107.5v4q0 146 174 146
q47 0 111 -18zM223 237q-63 0 -86 -25t-23 -69v-4q0 -90 99 -90q64 0 122 49v120q-58 19 -112 19zM376 644q0 -13 -8 -21t-20 -8h-255q-13 0 -21.5 8t-8.5 21q0 12 8.5 21t21.5 9h255q12 0 20 -9t8 -21z" />
    <glyph glyph-name="Abreve" unicode="&#x102;" horiz-adv-x="549" 
d="M142 163l-45 -148q-5 -9 -14.5 -16.5t-17.5 -7.5q-15 0 -25 9t-10 24q0 7 2 13l199 630q14 49 46 49q31 0 47 -49l199 -630q0 -1 0.5 -6t0.5 -7q0 -15 -10 -24t-25 -9q-9 0 -19 7t-13 17l-46 148h-269zM277 607l-116 -379h231zM276 832q40 0 72 45q10 14 25 14
q27 0 19 -29q-10 -35 -45 -56t-71 -21q-37 0 -74 21t-44 56q-3 13 4.5 21t16.5 8q16 0 24 -14q34 -45 73 -45z" />
    <glyph glyph-name="abreve" unicode="&#x103;" horiz-adv-x="482" 
d="M335 272v69q0 119 -117 119q-45 0 -81 -22q-12 -8 -24 -8q-20 0 -22 26q-3 29 38.5 44t98.5 15q90 0 131 -50t41 -151v-226q0 -39 27 -39q2 0 4.5 0.5t3.5 0.5q22 0 22 -27t-38 -27q-47 0 -76 57q-63 -60 -143 -60q-74 0 -112 39.5t-38 107.5v4q0 146 174 146
q47 0 111 -18zM223 237q-63 0 -86 -25t-23 -69v-4q0 -90 99 -90q64 0 122 49v120q-58 19 -112 19zM243 632q40 0 72 45q10 14 25 14q27 0 19 -29q-10 -35 -45 -56t-71 -21q-37 0 -74 21t-44 56q-3 13 4.5 21t16.5 8q16 0 24 -14q34 -45 73 -45z" />
    <glyph glyph-name="Aogonek" unicode="&#x104;" horiz-adv-x="549" 
d="M593 -167q0 -31 -70 -31q-98 0 -98 84q0 51 45 112q-12 8 -14 17l-46 148h-268l-45 -148q-5 -9 -15 -16.5t-17 -7.5q-15 0 -25.5 9t-10.5 24q0 7 2 13l200 630q14 49 46 49q29 0 47 -49l199 -630q0 -1 0.5 -6t0.5 -7q0 -12 -13 -27q-33 -38 -33 -95q0 -24 13.5 -38.5
t39.5 -14.5q7 0 31 3q10 2 12 2q8 0 13.5 -6.5t5.5 -14.5zM277 607l-116 -379h231z" />
    <glyph glyph-name="aogonek" unicode="&#x105;" horiz-adv-x="482" 
d="M521 -168q0 -32 -71 -32q-46 0 -72.5 21.5t-26.5 63.5q0 49 48 112q-36 15 -56 56q-63 -60 -143 -60q-74 0 -112.5 40t-38.5 107v4q0 146 174 146q48 0 112 -18v69q0 119 -118 119q-43 0 -80 -22q-2 0 -5 -3q-10 -5 -20 -5q-20 0 -22 26q-3 29 39 44t99 15
q90 0 131 -50.5t41 -150.5v-226q0 -39 26 -39q3 0 5.5 0.5t3.5 0.5q10 0 15.5 -8t5.5 -19q0 -12 -12 -22l-4 -3q-35 -35 -35 -97q0 -24 13.5 -39t39.5 -15q3 0 31 4q10 2 13 2q8 0 13.5 -6.5t5.5 -14.5zM222 237q-63 0 -86 -25t-23 -69v-4q0 -90 99 -90q65 0 123 49v120
q-60 19 -113 19z" />
    <glyph glyph-name="Cacute" unicode="&#x106;" horiz-adv-x="482" 
d="M50 244v219q0 118 56 185.5t167 67.5q67 0 120 -24t53 -56q0 -12 -8 -20t-21 -8q-8 0 -22 9q-1 1 -5 3t-5 3q-51 34 -107 34q-87 0 -124 -49.5t-37 -144.5v-219q0 -94 37 -143.5t124 -49.5q60 0 105 32l11 7q14 10 23 10q13 0 21 -8t8 -20q0 -33 -52.5 -56.5
t-120.5 -23.5q-111 0 -167 67t-56 185zM244 825l87 91q14 14 23 14q10 0 17.5 -8.5t7.5 -18.5q0 -7 -3 -12l-82 -87q-17 -17 -27 -17q-11 0 -19 8.5t-8 19.5q0 5 4 10z" />
    <glyph glyph-name="cacute" unicode="&#x107;" horiz-adv-x="393" 
d="M50 174v156q0 81 44.5 131.5t133.5 50.5q46 0 90.5 -13t44.5 -42q0 -11 -8 -19t-19 -8q-5 0 -15 2h1q-48 25 -86 25q-121 0 -121 -127v-156q0 -126 121 -126q38 0 86 24h-1q11 3 15 3q11 0 19 -8.5t8 -19.5q0 -28 -44.5 -41t-90.5 -13q-89 0 -133.5 50t-44.5 131z
M182 625l87 91q14 14 23 14q10 0 17.5 -8.5t7.5 -18.5q0 -7 -3 -12l-82 -87q-17 -17 -27 -17q-11 0 -19 8.5t-8 19.5q0 5 4 10z" />
    <glyph glyph-name="Ccircumflex" unicode="&#x108;" horiz-adv-x="482" 
d="M50 244v219q0 118 56 185.5t167 67.5q67 0 120 -24t53 -56q0 -12 -8 -20t-21 -8q-8 0 -22 9q-1 1 -5 3t-5 3q-51 34 -107 34q-87 0 -124 -49.5t-37 -144.5v-219q0 -94 37 -143.5t124 -49.5q60 0 105 32l11 7q14 10 23 10q13 0 21 -8t8 -20q0 -33 -52.5 -56.5
t-120.5 -23.5q-111 0 -167 67t-56 185zM269 853l-83 -68q-2 -3 -13 -3q-7 0 -12.5 6t-5.5 13q0 8 16 24l81 69h-1q12 7 18 7q4 0 18 -7h-1l81 -69q16 -19 16 -24q0 -7 -6 -13t-13 -6q-10 0 -12 3z" />
    <glyph glyph-name="ccircumflex" unicode="&#x109;" horiz-adv-x="393" 
d="M50 174v156q0 81 44.5 131.5t133.5 50.5q46 0 90.5 -13t44.5 -42q0 -11 -8 -19t-19 -8q-5 0 -15 2h1q-48 25 -86 25q-121 0 -121 -127v-156q0 -126 121 -126q38 0 86 24h-1q11 3 15 3q11 0 19 -8.5t8 -19.5q0 -28 -44.5 -41t-90.5 -13q-89 0 -133.5 50t-44.5 131z
M199 653l-83 -68q-2 -3 -13 -3q-7 0 -12.5 6t-5.5 13q0 8 16 24l81 69h-1q12 7 18 7q4 0 18 -7h-1l81 -69q16 -19 16 -24q0 -7 -6 -13t-13 -6q-10 0 -12 3z" />
    <glyph glyph-name="Cdotaccent" unicode="&#x10a;" horiz-adv-x="482" 
d="M50 244v219q0 118 56 185.5t167 67.5q67 0 120 -24t53 -56q0 -12 -8 -20t-21 -8q-8 0 -22 9q-1 1 -5 3t-5 3q-51 34 -107 34q-87 0 -124 -49.5t-37 -144.5v-219q0 -94 37 -143.5t124 -49.5q60 0 105 32l11 7q14 10 23 10q13 0 21 -8t8 -20q0 -33 -52.5 -56.5
t-120.5 -23.5q-111 0 -167 67t-56 185zM282 846q0 -18 -12 -30t-29 -12q-16 0 -28 12.5t-12 29.5q0 16 12 28.5t28 12.5q17 0 29 -12t12 -29z" />
    <glyph glyph-name="cdotaccent" unicode="&#x10b;" horiz-adv-x="393" 
d="M50 174v156q0 81 44.5 131.5t133.5 50.5q46 0 90.5 -13t44.5 -42q0 -11 -8 -19t-19 -8q-5 0 -15 2h1q-48 25 -86 25q-121 0 -121 -127v-156q0 -126 121 -126q38 0 86 24h-1q11 3 15 3q11 0 19 -8.5t8 -19.5q0 -28 -44.5 -41t-90.5 -13q-89 0 -133.5 50t-44.5 131z
M237 646q0 -18 -12 -30t-29 -12q-16 0 -28 12.5t-12 29.5q0 16 12 28.5t28 12.5q17 0 29 -12t12 -29z" />
    <glyph glyph-name="Ccaron" unicode="&#x10c;" horiz-adv-x="482" 
d="M50 244v219q0 118 56 185.5t167 67.5q67 0 120 -24t53 -56q0 -12 -8 -20t-21 -8q-8 0 -22 9q-1 1 -5 3t-5 3q-51 34 -107 34q-87 0 -124 -49.5t-37 -144.5v-219q0 -94 37 -143.5t124 -49.5q60 0 105 32l11 7q14 10 23 10q13 0 21 -8t8 -20q0 -33 -52.5 -56.5
t-120.5 -23.5q-111 0 -167 67t-56 185zM278 775q-12 0 -19 7l-90 75q-19 17 -19 29q0 9 8 15.5t16 6.5q6 0 14 -6l90 -73l90 73q6 6 14 6q9 0 16 -6.5t7 -15.5q0 -13 -18 -29l-90 -75q-7 -7 -19 -7z" />
    <glyph glyph-name="ccaron" unicode="&#x10d;" horiz-adv-x="393" 
d="M50 174v156q0 81 44.5 131.5t133.5 50.5q46 0 90.5 -13t44.5 -42q0 -11 -8 -19t-19 -8q-5 0 -15 2h1q-48 25 -86 25q-121 0 -121 -127v-156q0 -126 121 -126q38 0 86 24h-1q11 3 15 3q11 0 19 -8.5t8 -19.5q0 -28 -44.5 -41t-90.5 -13q-89 0 -133.5 50t-44.5 131z
M225 575q-12 0 -19 7l-90 75q-19 17 -19 29q0 9 8 15.5t16 6.5q6 0 14 -6l90 -73l90 73q6 6 14 6q9 0 16 -6.5t7 -15.5q0 -13 -18 -29l-90 -75q-7 -7 -19 -7z" />
    <glyph glyph-name="Dcaron" unicode="&#x10e;" horiz-adv-x="554" 
d="M508 263q0 -54 -14.5 -99t-45 -82.5t-85 -59t-127.5 -21.5h-116q-17 0 -29 12t-12 29v623q0 17 12 29.5t29 12.5h116q141 0 206.5 -71.5t65.5 -181.5v-191zM441 263v191q0 85 -45 137t-143 52h-108v-578h108q99 0 143.5 54t44.5 144zM279 775q-12 0 -19 7l-90 75
q-19 17 -19 29q0 9 8 15.5t16 6.5q6 0 14 -6l90 -73l90 73q6 6 14 6q9 0 16 -6.5t7 -15.5q0 -13 -18 -29l-90 -75q-7 -7 -19 -7z" />
    <glyph glyph-name="dcaron" unicode="&#x10f;" horiz-adv-x="605" 
d="M215 511q53 0 121 -22v212q0 13 9 22.5t24 9.5t23.5 -9.5t8.5 -22.5v-591q0 -46 30 -68q4 -8 4 -14q0 -12 -8.5 -20t-19.5 -8q-30 0 -52 35q-82 -42 -148 -42q-76 0 -116.5 50.5t-40.5 135.5v131q0 96 38 148.5t127 52.5zM336 110v322q-61 25 -111 25q-60 0 -85 -34.5
t-25 -112.5v-131q0 -130 108 -130q53 0 117 32q-4 17 -4 29zM575 679q0 -47 -25 -103t-44 -56q-13 0 -13 9q0 12 18 44q14 23 22 56q-22 2 -37 16.5t-15 33.5t14 33t34 14q19 0 32.5 -13.5t13.5 -33.5z" />
    <glyph glyph-name="Dcroat" unicode="&#x110;" horiz-adv-x="574" 
d="M528 263q0 -54 -14.5 -99t-44.5 -82.5t-84.5 -59t-127.5 -21.5h-116q-17 0 -29.5 12t-12.5 29v283h-47q-13 0 -21.5 8t-8.5 21q0 12 8.5 21t21.5 9h47v281q0 17 12.5 29.5t29.5 12.5h116q141 0 206 -71.5t65 -181.5v-191zM335 354q0 -13 -8 -21t-20 -8h-141v-260h108
q99 0 143.5 54t44.5 144v191q0 85 -45 137t-143 52h-108v-259h141q12 0 20 -9t8 -21z" />
    <glyph glyph-name="dcroat" unicode="&#x111;" horiz-adv-x="488" 
d="M486 617q0 -12 -8 -20.5t-20 -8.5h-57v-478q0 -46 30 -68q4 -8 4 -14q0 -12 -9 -20t-19 -8q-30 0 -52 35q-84 -42 -149 -42q-75 0 -116 50.5t-41 135.5v131q0 201 165 201q54 0 122 -22v99h-135q-13 0 -22 8.5t-9 20.5q0 13 9 22t22 9h135v53q0 14 8.5 23t24.5 9
q15 0 23.5 -9.5t8.5 -22.5v-53h57q12 0 20 -9t8 -22zM336 110v322q-61 25 -111 25q-61 0 -86 -34.5t-25 -112.5v-131q0 -130 109 -130q53 0 117 32q-4 17 -4 29z" />
    <glyph glyph-name="Emacron" unicode="&#x112;" horiz-adv-x="474" 
d="M440 35q0 -15 -9.5 -24.5t-23.5 -9.5h-271q-57 0 -57 40v624q0 16 12 28.5t29 12.5h277q13 0 22.5 -10t9.5 -24q0 -13 -9 -21.5t-23 -8.5h-252v-255h232q13 0 22.5 -9.5t9.5 -22.5t-9.5 -22.5t-22.5 -9.5h-232v-258h262q13 0 23 -9t10 -21zM395 844q0 -13 -8 -21t-20 -8
h-255q-13 0 -21.5 8t-8.5 21q0 12 8.5 21t21.5 9h255q12 0 20 -9t8 -21z" />
    <glyph glyph-name="emacron" unicode="&#x113;" horiz-adv-x="435" 
d="M236 48q45 0 110 29q6 3 11 3q12 0 20 -8.5t8 -19.5q0 -30 -52.5 -44.5t-106.5 -14.5q-82 0 -129 46t-47 117v192q0 74 48 120.5t134 46.5q80 0 121 -42.5t41 -117.5q0 -145 -166 -145q-59 0 -113 11v-71q0 -47 31 -74.5t90 -27.5zM330 355q0 103 -101 103
q-54 0 -84 -27.5t-30 -74.5v-85q57 -8 117 -8q57 0 77.5 25t20.5 67zM375 644q0 -13 -8 -21t-20 -8h-255q-13 0 -21.5 8t-8.5 21q0 12 8.5 21t21.5 9h255q12 0 20 -9t8 -21z" />
    <glyph glyph-name="Ebreve" unicode="&#x114;" horiz-adv-x="474" 
d="M440 35q0 -15 -9.5 -24.5t-23.5 -9.5h-271q-57 0 -57 40v624q0 16 12 28.5t29 12.5h277q13 0 22.5 -10t9.5 -24q0 -13 -9 -21.5t-23 -8.5h-252v-255h232q13 0 22.5 -9.5t9.5 -22.5t-9.5 -22.5t-22.5 -9.5h-232v-258h262q13 0 23 -9t10 -21zM239 832q40 0 72 45
q10 14 25 14q27 0 19 -29q-10 -35 -45 -56t-71 -21q-37 0 -74 21t-44 56q-3 13 4.5 21t16.5 8q16 0 24 -14q34 -45 73 -45z" />
    <glyph glyph-name="ebreve" unicode="&#x115;" horiz-adv-x="435" 
d="M236 48q45 0 110 29q6 3 11 3q12 0 20 -8.5t8 -19.5q0 -30 -52.5 -44.5t-106.5 -14.5q-82 0 -129 46t-47 117v192q0 74 48 120.5t134 46.5q80 0 121 -42.5t41 -117.5q0 -145 -166 -145q-59 0 -113 11v-71q0 -47 31 -74.5t90 -27.5zM330 355q0 103 -101 103
q-54 0 -84 -27.5t-30 -74.5v-85q57 -8 117 -8q57 0 77.5 25t20.5 67zM219 632q40 0 72 45q10 14 25 14q27 0 19 -29q-10 -35 -45 -56t-71 -21q-37 0 -74 21t-44 56q-3 13 4.5 21t16.5 8q16 0 24 -14q34 -45 73 -45z" />
    <glyph glyph-name="Edotaccent" unicode="&#x116;" horiz-adv-x="474" 
d="M440 35q0 -15 -9.5 -24.5t-23.5 -9.5h-271q-57 0 -57 40v624q0 16 12 28.5t29 12.5h277q13 0 22.5 -10t9.5 -24q0 -13 -9 -21.5t-23 -8.5h-252v-255h232q13 0 22.5 -9.5t9.5 -22.5t-9.5 -22.5t-22.5 -9.5h-232v-258h262q13 0 23 -9t10 -21zM278 846q0 -18 -12 -30
t-29 -12q-16 0 -28 12.5t-12 29.5q0 16 12 28.5t28 12.5q17 0 29 -12t12 -29z" />
    <glyph glyph-name="edotaccent" unicode="&#x117;" horiz-adv-x="435" 
d="M236 48q45 0 110 29q6 3 11 3q12 0 20 -8.5t8 -19.5q0 -30 -52.5 -44.5t-106.5 -14.5q-82 0 -129 46t-47 117v192q0 74 48 120.5t134 46.5q80 0 121 -42.5t41 -117.5q0 -145 -166 -145q-59 0 -113 11v-71q0 -47 31 -74.5t90 -27.5zM330 355q0 103 -101 103
q-54 0 -84 -27.5t-30 -74.5v-85q57 -8 117 -8q57 0 77.5 25t20.5 67zM258 646q0 -18 -12 -30t-29 -12q-16 0 -28 12.5t-12 29.5q0 16 12 28.5t28 12.5q17 0 29 -12t12 -29z" />
    <glyph glyph-name="Eogonek" unicode="&#x118;" horiz-adv-x="474" 
d="M482 -167q0 -31 -70 -31q-98 0 -98 84q0 50 47 115h-225q-57 0 -57 40v624q0 16 12 28.5t29 12.5h276q14 0 23.5 -10t9.5 -24q0 -13 -9.5 -21.5t-23.5 -8.5h-251v-255h232q12 0 22 -9.5t10 -22.5t-9.5 -22.5t-22.5 -9.5h-232v-258h262q13 0 22.5 -9t9.5 -21
q0 -15 -11 -24.5t-26 -9.5l-7 -13q-28 -65 -28 -86q0 -24 13.5 -38.5t39.5 -14.5q7 0 31 3q10 2 12 2q8 0 13.5 -6.5t5.5 -14.5z" />
    <glyph glyph-name="eogonek" unicode="&#x119;" horiz-adv-x="435" 
d="M394 -168q0 -32 -71 -32q-46 0 -72.5 21.5t-26.5 63.5q0 51 42 109q-3 0 -15 -0.5t-14 -0.5h-11q-82 0 -129 46t-47 117v192q0 74 48 120.5t134 46.5q80 0 121 -42.5t41 -117.5q0 -145 -166 -145q-59 0 -113 11v-71q0 -47 31 -74.5t90 -27.5q45 0 110 29q6 3 11 3
q12 0 20 -8.5t8 -19.5q0 -16 -38 -34l-26 -15q-43 -29 -43 -102q0 -24 13.5 -39t40.5 -15q2 0 30 4q12 2 13 2q8 0 13.5 -6.5t5.5 -14.5zM330 355q0 103 -101 103q-54 0 -84 -27.5t-30 -74.5v-85q57 -8 117 -8q57 0 77.5 25t20.5 67z" />
    <glyph glyph-name="Ecaron" unicode="&#x11a;" horiz-adv-x="474" 
d="M440 35q0 -15 -9.5 -24.5t-23.5 -9.5h-271q-57 0 -57 40v624q0 16 12 28.5t29 12.5h277q13 0 22.5 -10t9.5 -24q0 -13 -9 -21.5t-23 -8.5h-252v-255h232q13 0 22.5 -9.5t9.5 -22.5t-9.5 -22.5t-22.5 -9.5h-232v-258h262q13 0 23 -9t10 -21zM269 775q-12 0 -19 7l-90 75
q-19 17 -19 29q0 9 8 15.5t16 6.5q6 0 14 -6l90 -73l90 73q6 6 14 6q9 0 16 -6.5t7 -15.5q0 -13 -18 -29l-90 -75q-7 -7 -19 -7z" />
    <glyph glyph-name="ecaron" unicode="&#x11b;" horiz-adv-x="435" 
d="M236 48q45 0 110 29q6 3 11 3q12 0 20 -8.5t8 -19.5q0 -30 -52.5 -44.5t-106.5 -14.5q-82 0 -129 46t-47 117v192q0 74 48 120.5t134 46.5q80 0 121 -42.5t41 -117.5q0 -145 -166 -145q-59 0 -113 11v-71q0 -47 31 -74.5t90 -27.5zM330 355q0 103 -101 103
q-54 0 -84 -27.5t-30 -74.5v-85q57 -8 117 -8q57 0 77.5 25t20.5 67zM219 575q-12 0 -19 7l-90 75q-19 17 -19 29q0 9 8 15.5t16 6.5q6 0 14 -6l90 -73l90 73q6 6 14 6q9 0 16 -6.5t7 -15.5q0 -13 -18 -29l-90 -75q-7 -7 -19 -7z" />
    <glyph glyph-name="Gcircumflex" unicode="&#x11c;" horiz-adv-x="520" 
d="M117 463v-219q0 -94 37 -143.5t124 -49.5q71 0 123 41v232h-107q-12 0 -21.5 9t-9.5 22t9.5 22t21.5 9h122q50 0 50 -40v-244q0 -53 -59.5 -81.5t-133.5 -28.5q-111 0 -167 67t-56 185v219q0 118 56 185.5t167 67.5q67 0 120 -24t53 -56q0 -12 -8.5 -20t-20.5 -8
q-8 0 -22 9q-1 1 -5.5 3t-5.5 3q-49 34 -106 34q-87 0 -124 -49.5t-37 -144.5zM262 853l-83 -68q-2 -3 -13 -3q-7 0 -12.5 6t-5.5 13q0 8 16 24l81 69h-1q12 7 18 7q4 0 18 -7h-1l81 -69q16 -19 16 -24q0 -7 -6 -13t-13 -6q-10 0 -12 3z" />
    <glyph glyph-name="gcircumflex" unicode="&#x11d;" horiz-adv-x="493" 
d="M234 515q75 0 139 -38q17 30 39.5 46.5t38.5 16.5q13 0 21.5 -8t8.5 -21q0 -11 -4 -15l-9 -10q-29 -27 -39.5 -44.5t-10.5 -50.5v-64q0 -79 -46 -128.5t-132 -49.5q-43 0 -85 16q-17 -30 -17 -58t19.5 -40t44.5 -12h43q89 0 143.5 -35t54.5 -104q0 -73 -57 -116t-146 -43
q-86 0 -138 40t-52 110q0 67 57 118q-34 33 -34 79q0 45 44 84q-60 56 -60 146q0 81 45.5 131t131.5 50zM354 390q0 12 3 34q-57 35 -113 35q-60 0 -91 -33t-31 -94q0 -58 29 -91t89 -33q114 0 114 117v65zM204 -4q-27 0 -49 5q-41 -32 -41 -83q0 -103 128 -103q62 0 99 25
t37 74q0 43 -32 62.5t-99 19.5h-43zM248 653l-83 -68q-1 -3 -13 -3q-7 0 -12.5 6t-5.5 13q0 8 16 24l81 69h-1q12 7 18 7q4 0 18 -7h-1l81 -69q16 -19 16 -24q0 -7 -6 -13t-13 -6q-11 0 -12 3z" />
    <glyph glyph-name="Gbreve" unicode="&#x11e;" horiz-adv-x="520" 
d="M117 463v-219q0 -94 37 -143.5t124 -49.5q71 0 123 41v232h-107q-12 0 -21.5 9t-9.5 22t9.5 22t21.5 9h122q50 0 50 -40v-244q0 -53 -59.5 -81.5t-133.5 -28.5q-111 0 -167 67t-56 185v219q0 118 56 185.5t167 67.5q67 0 120 -24t53 -56q0 -12 -8.5 -20t-20.5 -8
q-8 0 -22 9q-1 1 -5.5 3t-5.5 3q-49 34 -106 34q-87 0 -124 -49.5t-37 -144.5zM262 832q40 0 72 45q10 14 25 14q27 0 19 -29q-10 -35 -45 -56t-71 -21q-37 0 -74 21t-44 56q-3 13 4.5 21t16.5 8q16 0 24 -14q34 -45 73 -45z" />
    <glyph glyph-name="gbreve" unicode="&#x11f;" horiz-adv-x="493" 
d="M234 515q75 0 139 -38q17 30 39.5 46.5t38.5 16.5q13 0 21.5 -8t8.5 -21q0 -11 -4 -15l-9 -10q-29 -27 -39.5 -44.5t-10.5 -50.5v-64q0 -79 -46 -128.5t-132 -49.5q-43 0 -85 16q-17 -30 -17 -58t19.5 -40t44.5 -12h43q89 0 143.5 -35t54.5 -104q0 -73 -57 -116t-146 -43
q-86 0 -138 40t-52 110q0 67 57 118q-34 33 -34 79q0 45 44 84q-60 56 -60 146q0 81 45.5 131t131.5 50zM354 390q0 12 3 34q-57 35 -113 35q-60 0 -91 -33t-31 -94q0 -58 29 -91t89 -33q114 0 114 117v65zM204 -4q-27 0 -49 5q-41 -32 -41 -83q0 -103 128 -103q62 0 99 25
t37 74q0 43 -32 62.5t-99 19.5h-43zM248 632q40 0 72 45q10 14 25 14q27 0 19 -29q-10 -35 -45 -56t-71 -21q-37 0 -74 21t-44 56q-3 13 4.5 21t16.5 8q16 0 24 -14q34 -45 73 -45z" />
    <glyph glyph-name="Gdotaccent" unicode="&#x120;" horiz-adv-x="520" 
d="M117 463v-219q0 -94 37 -143.5t124 -49.5q71 0 123 41v232h-107q-12 0 -21.5 9t-9.5 22t9.5 22t21.5 9h122q50 0 50 -40v-244q0 -53 -59.5 -81.5t-133.5 -28.5q-111 0 -167 67t-56 185v219q0 118 56 185.5t167 67.5q67 0 120 -24t53 -56q0 -12 -8.5 -20t-20.5 -8
q-8 0 -22 9q-1 1 -5.5 3t-5.5 3q-49 34 -106 34q-87 0 -124 -49.5t-37 -144.5zM301 846q0 -18 -12 -30t-29 -12q-16 0 -28 12.5t-12 29.5q0 16 12 28.5t28 12.5q17 0 29 -12t12 -29z" />
    <glyph glyph-name="gdotaccent" unicode="&#x121;" horiz-adv-x="493" 
d="M234 515q75 0 139 -38q17 30 39.5 46.5t38.5 16.5q13 0 21.5 -8t8.5 -21q0 -11 -4 -15l-9 -10q-29 -27 -39.5 -44.5t-10.5 -50.5v-64q0 -79 -46 -128.5t-132 -49.5q-43 0 -85 16q-17 -30 -17 -58t19.5 -40t44.5 -12h43q89 0 143.5 -35t54.5 -104q0 -73 -57 -116t-146 -43
q-86 0 -138 40t-52 110q0 67 57 118q-34 33 -34 79q0 45 44 84q-60 56 -60 146q0 81 45.5 131t131.5 50zM354 390q0 12 3 34q-57 35 -113 35q-60 0 -91 -33t-31 -94q0 -58 29 -91t89 -33q114 0 114 117v65zM204 -4q-27 0 -49 5q-41 -32 -41 -83q0 -103 128 -103q62 0 99 25
t37 74q0 43 -32 62.5t-99 19.5h-43zM287 646q0 -18 -12 -30t-29 -12q-16 0 -28 12.5t-12 29.5q0 16 12 28.5t28 12.5q17 0 29 -12t12 -29z" />
    <glyph glyph-name="uni0122" unicode="&#x122;" horiz-adv-x="520" 
d="M117 463v-219q0 -94 37 -143.5t124 -49.5q71 0 123 41v232h-107q-12 0 -21.5 9t-9.5 22t9.5 22t21.5 9h122q50 0 50 -40v-244q0 -53 -59.5 -81.5t-133.5 -28.5q-111 0 -167 67t-56 185v219q0 118 56 185.5t167 67.5q67 0 120 -24t53 -56q0 -12 -8.5 -20t-20.5 -8
q-8 0 -22 9q-1 1 -5.5 3t-5.5 3q-49 34 -106 34q-87 0 -124 -49.5t-37 -144.5zM329 -113q0 -39 -25.5 -84t-44.5 -45q-12 0 -12 9q0 3 16 28q17 19 26 42q-23 1 -38.5 15.5t-15.5 34.5t14 33.5t34 13.5q19 0 32.5 -14t13.5 -33z" />
    <glyph glyph-name="uni0123" unicode="&#x123;" horiz-adv-x="493" 
d="M234 515q75 0 139 -38q17 30 39.5 46.5t38.5 16.5q13 0 21.5 -8t8.5 -21q0 -11 -4 -15l-9 -10q-29 -27 -39.5 -44.5t-10.5 -50.5v-64q0 -79 -46 -128.5t-132 -49.5q-43 0 -85 16q-17 -30 -17 -58t19.5 -40t44.5 -12h43q89 0 143.5 -37t54.5 -108q0 -73 -57 -116t-146 -43
q-86 0 -138 40t-52 110q0 69 57 124q-34 33 -34 79q0 45 44 84q-60 56 -60 146q0 81 45.5 131t131.5 50zM354 390q0 12 3 34q-57 35 -113 35q-60 0 -91 -33t-31 -94q0 -58 29 -91t89 -33q114 0 114 117v65zM204 -4q-27 0 -49 5q-41 -37 -41 -89q0 -103 128 -103q62 0 99 25
t37 74q0 88 -131 88h-43zM203 649q0 40 25.5 85.5t45.5 45.5q12 0 12 -10t-16 -28q-11 -13 -26 -42q23 -1 38.5 -16t15.5 -35q0 -19 -14 -32.5t-34 -13.5q-19 0 -33 13.5t-14 32.5z" />
    <glyph glyph-name="Hcircumflex" unicode="&#x124;" horiz-adv-x="580" 
d="M506 25q0 -14 -9.5 -24t-23.5 -10q-13 0 -23.5 10t-10.5 24v297h-294v-297q0 -14 -9.5 -24t-23.5 -10t-23.5 10t-9.5 24v658q0 13 10 23t23 10q14 0 23.5 -10t9.5 -23v-297h294v297q0 13 10.5 23t23.5 10t23 -10t10 -23v-658zM292 853l-83 -68q-2 -3 -13 -3q-7 0 -12.5 6
t-5.5 13q0 8 16 24l81 69h-1q12 7 18 7q4 0 18 -7h-1l81 -69q16 -19 16 -24q0 -7 -6 -13t-13 -6q-10 0 -12 3z" />
    <glyph glyph-name="Itilde" unicode="&#x128;" horiz-adv-x="227" 
d="M80 24v659q0 13 10.5 23t23.5 10q14 0 23.5 -10t9.5 -23v-659q0 -14 -9.5 -23.5t-23.5 -9.5t-24 10t-10 23zM249 856q0 -22 -25 -38t-52 -16q-25 0 -59 18q-2 1 -11 6t-16 7t-17 2q-22 0 -45 -18q-11 -9 -19 -9q-23 0 -23 23q0 21 23.5 38.5t51.5 17.5q23 0 58 -19
q24 -13 45 -14q29 0 48 17q15 12 21 12q7 0 13.5 -7.5t6.5 -19.5z" />
    <glyph glyph-name="itilde" unicode="&#x129;" horiz-adv-x="245" 
d="M156 25q0 -13 -9.5 -22.5t-22.5 -9.5q-14 0 -23.5 9t-9.5 23v454q0 14 9.5 23.5t23.5 9.5q13 0 22.5 -10t9.5 -23v-454zM258 656q0 -22 -25 -38t-52 -16q-25 0 -59 18q-2 1 -11 6t-16 7t-17 2q-22 0 -45 -18q-11 -9 -19 -9q-23 0 -23 23q0 21 23.5 38.5t51.5 17.5
q23 0 58 -19q24 -13 45 -14q29 0 48 17q15 12 21 12q7 0 13.5 -7.5t6.5 -19.5z" />
    <glyph glyph-name="Imacron" unicode="&#x12a;" horiz-adv-x="227" 
d="M80 24v659q0 13 10.5 23t23.5 10q14 0 23.5 -10t9.5 -23v-659q0 -14 -9.5 -23.5t-23.5 -9.5t-24 10t-10 23zM272 844q0 -13 -8 -21t-20 -8h-255q-13 0 -21.5 8t-8.5 21q0 12 8.5 21t21.5 9h255q12 0 20 -9t8 -21z" />
    <glyph glyph-name="imacron" unicode="&#x12b;" horiz-adv-x="245" 
d="M156 25q0 -13 -9.5 -22.5t-22.5 -9.5q-14 0 -23.5 9t-9.5 23v454q0 14 9.5 23.5t23.5 9.5q13 0 22.5 -10t9.5 -23v-454zM281 644q0 -13 -8 -21t-20 -8h-255q-13 0 -21.5 8t-8.5 21q0 12 8.5 21t21.5 9h255q12 0 20 -9t8 -21z" />
    <glyph glyph-name="Ibreve" unicode="&#x12c;" horiz-adv-x="227" 
d="M80 24v659q0 13 10.5 23t23.5 10q14 0 23.5 -10t9.5 -23v-659q0 -14 -9.5 -23.5t-23.5 -9.5t-24 10t-10 23zM116 832q40 0 72 45q10 14 25 14q27 0 19 -29q-10 -35 -45 -56t-71 -21q-37 0 -74 21t-44 56q-3 13 4.5 21t16.5 8q16 0 24 -14q34 -45 73 -45z" />
    <glyph glyph-name="ibreve" unicode="&#x12d;" horiz-adv-x="245" 
d="M156 25q0 -13 -9.5 -22.5t-22.5 -9.5q-14 0 -23.5 9t-9.5 23v454q0 14 9.5 23.5t23.5 9.5q13 0 22.5 -10t9.5 -23v-454zM125 632q40 0 72 45q10 14 25 14q27 0 19 -29q-10 -35 -45 -56t-71 -21q-37 0 -74 21t-44 56q-3 13 4.5 21t16.5 8q16 0 24 -14q34 -45 73 -45z" />
    <glyph glyph-name="Iogonek" unicode="&#x12e;" horiz-adv-x="227" 
d="M216 -167q0 -31 -70 -31q-98 0 -98 84q0 53 46 110q-14 14 -14 28v659q0 13 10.5 23t23.5 10t23 -10t10 -23v-659q0 -11 -13 -26q-33 -47 -33 -96q0 -24 13.5 -38.5t39.5 -14.5q9 0 30 3q12 2 13 2q8 0 13.5 -6.5t5.5 -14.5z" />
    <glyph glyph-name="iogonek" unicode="&#x12f;" horiz-adv-x="245" 
d="M225 -168q0 -32 -72 -32q-46 0 -72 21.5t-26 63.5q0 55 48 113q-12 15 -12 27v454q0 14 9.5 23.5t23.5 9.5q13 0 22.5 -10t9.5 -23v-454q0 -11 -12 -25q-36 -44 -36 -99q0 -24 14 -39t40 -15q6 0 10.5 0.5t7.5 1t7 1.5t6 1q10 2 12 2q8 0 14 -6.5t6 -14.5zM165 681
q0 -17 -12.5 -29t-28.5 -12q-18 0 -30.5 12t-12.5 29q0 18 12.5 30t30.5 12q17 0 29 -12t12 -30z" />
    <glyph glyph-name="Idotaccent" unicode="&#x130;" horiz-adv-x="227" 
d="M80 24v659q0 13 10.5 23t23.5 10q14 0 23.5 -10t9.5 -23v-659q0 -14 -9.5 -23.5t-23.5 -9.5t-24 10t-10 23zM155 846q0 -18 -12 -30t-29 -12q-16 0 -28 12.5t-12 29.5q0 16 12 28.5t28 12.5q17 0 29 -12t12 -29z" />
    <glyph glyph-name="dotlessi" unicode="&#x131;" horiz-adv-x="245" 
d="M156 25q0 -13 -9.5 -22.5t-22.5 -9.5q-14 0 -23.5 9t-9.5 23v454q0 14 9.5 23.5t23.5 9.5q13 0 22.5 -10t9.5 -23v-454z" />
    <glyph glyph-name="Jcircumflex" unicode="&#x134;" horiz-adv-x="385" 
d="M309 683v-460q0 -115 -44.5 -173.5t-153.5 -58.5q-80 0 -80 38q0 15 9 23.5t19 8.5q2 0 16 -2q28 -5 47 -5q70 0 95 42t25 127v460q0 14 10 23.5t24 9.5q13 0 23 -10t10 -23zM272 853l-83 -68q-2 -3 -13 -3q-7 0 -12.5 6t-5.5 13q0 8 16 24l81 69h-1q12 7 18 7q4 0 18 -7
h-1l81 -69q16 -19 16 -24q0 -7 -6 -13t-13 -6q-10 0 -12 3z" />
    <glyph glyph-name="jcircumflex" unicode="&#x135;" horiz-adv-x="245" 
d="M157 479v-502q0 -75 -37.5 -124.5t-100.5 -60.5h-7h-6.5h-5.5q-22 0 -27 20q-3 15 5 24t20 11q47 11 70.5 39.5t23.5 86.5v506q0 14 9.5 23.5t23.5 9.5q13 0 22.5 -10t9.5 -23zM125 653l-83 -68q-2 -3 -13 -3q-7 0 -12.5 6t-5.5 13q0 8 16 24l81 69h-1q12 7 18 7
q4 0 18 -7h-1l81 -69q16 -19 16 -24q0 -7 -6 -13t-13 -6q-10 0 -12 3z" />
    <glyph glyph-name="uni0136" unicode="&#x136;" horiz-adv-x="498" 
d="M432 6l-228 331l-59 -73v-239q0 -14 -9.5 -24t-23.5 -10t-23.5 10t-9.5 24v658q0 13 10 23t23 10q14 0 23.5 -10t9.5 -23v-320l273 336q11 17 31 17q11 0 20 -8.5t8 -23.5q-1 -13 -8 -23v1l-223 -274l241 -346h-1q4 -7 4 -15q0 -36 -29 -36q-17 0 -29 15zM336 -113
q0 -39 -25.5 -84t-44.5 -45q-12 0 -12 9q0 3 16 28q17 19 26 42q-23 1 -38.5 15.5t-15.5 34.5t14 33.5t34 13.5q19 0 32.5 -14t13.5 -33z" />
    <glyph glyph-name="uni0137" unicode="&#x137;" horiz-adv-x="439" 
d="M145 700v-403l200 207q6 7 19 7t21.5 -8.5t8.5 -21.5q0 -14 -7 -21l-156 -159l177 -263q6 -8 6 -19q1 -12 -8.5 -19t-22.5 -7q-18 0 -27 15l-165 251l-46 -48v-186q0 -13 -9.5 -22.5t-22.5 -9.5q-14 0 -23.5 9t-9.5 23v675q0 14 9.5 23.5t23.5 9.5q13 0 22.5 -10t9.5 -23
zM295 -113q0 -39 -25.5 -84t-44.5 -45q-12 0 -12 9q0 3 16 28q17 19 26 42q-23 1 -38.5 15.5t-15.5 34.5t14 33.5t34 13.5q19 0 32.5 -14t13.5 -33z" />
    <glyph glyph-name="Lacute" unicode="&#x139;" horiz-adv-x="448" 
d="M437 33q0 -13 -9 -22.5t-22 -9.5h-288q-16 0 -27.5 11t-11.5 27v644q0 13 10 23t24 10q13 0 22.5 -10t9.5 -23v-619h261q12 0 21.5 -9t9.5 -22zM100 825l87 91q14 14 23 14q10 0 17.5 -8.5t7.5 -18.5q0 -7 -3 -12l-82 -87q-17 -17 -27 -17q-11 0 -19 8.5t-8 19.5
q0 5 4 10z" />
    <glyph glyph-name="lacute" unicode="&#x13a;" horiz-adv-x="228" 
d="M82 90v610q0 13 9.5 23t22.5 10t22.5 -9.5t9.5 -23.5v-610q0 -35 18 -54q4 -6 4 -14q0 -13 -8 -21t-21 -8q-57 0 -57 97zM92 811l87 91q14 14 23 14q10 0 17.5 -8.5t7.5 -18.5q0 -7 -3 -12l-82 -87q-17 -17 -27 -17q-11 0 -19 8.5t-8 19.5q0 5 4 10z" />
    <glyph glyph-name="uni013B" unicode="&#x13b;" horiz-adv-x="448" 
d="M437 33q0 -13 -9 -22.5t-22 -9.5h-288q-16 0 -27.5 11t-11.5 27v644q0 13 10 23t24 10q13 0 22.5 -10t9.5 -23v-619h261q12 0 21.5 -9t9.5 -22zM318 -113q0 -39 -25.5 -84t-44.5 -45q-12 0 -12 9q0 3 16 28q17 19 26 42q-23 1 -38.5 15.5t-15.5 34.5t14 33.5t34 13.5
q19 0 32.5 -14t13.5 -33z" />
    <glyph glyph-name="uni013C" unicode="&#x13c;" horiz-adv-x="228" 
d="M82 90v610q0 13 9.5 23t22.5 10t22.5 -9.5t9.5 -23.5v-610q0 -35 18 -54q4 -6 4 -14q0 -13 -8 -21t-21 -8q-57 0 -57 97zM163 -113q0 -39 -25.5 -84t-44.5 -45q-12 0 -12 9q0 3 16 28q17 19 26 42q-23 1 -38.5 15.5t-15.5 34.5t14 33.5t34 13.5q19 0 32.5 -14t13.5 -33z
" />
    <glyph glyph-name="Lcaron" unicode="&#x13d;" horiz-adv-x="448" 
d="M437 33q0 -13 -9 -22.5t-22 -9.5h-288q-16 0 -27.5 11t-11.5 27v644q0 13 10 23t24 10q13 0 22.5 -10t9.5 -23v-619h261q12 0 21.5 -9t9.5 -22zM391 679q0 -47 -25 -103t-44 -56q-13 0 -13 9q0 12 18 44q14 23 22 56q-22 2 -37 16.5t-15 33.5t14 33t34 14
q19 0 32.5 -13.5t13.5 -33.5z" />
    <glyph glyph-name="lcaron" unicode="&#x13e;" horiz-adv-x="359" 
d="M82 90v610q0 13 9.5 23t22.5 10t22.5 -9.5t9.5 -23.5v-610q0 -35 18 -54q4 -6 4 -14q0 -13 -8 -21t-21 -8q-57 0 -57 97zM328 679q0 -47 -25 -103t-44 -56q-13 0 -13 9q0 12 18 44q14 23 22 56q-22 2 -37 16.5t-15 33.5t14 33t34 14q19 0 32.5 -13.5t13.5 -33.5z" />
    <glyph glyph-name="Lslash" unicode="&#x141;" horiz-adv-x="494" 
d="M484 33q0 -13 -9 -22.5t-22 -9.5h-288q-16 0 -27.5 11t-11.5 27v265l-52 -33q-13 -9 -20 -9q-14 0 -24 7.5t-10 22.5q0 16 14 25l92 60v306q0 13 10 23t24 10q13 0 22.5 -10t9.5 -23v-263l68 45q14 9 25 9q17 0 27 -20q1 -4 1 -11q0 -14 -12 -23l-109 -72v-284h261
q12 0 21.5 -9t9.5 -22z" />
    <glyph glyph-name="lslash" unicode="&#x142;" horiz-adv-x="337" 
d="M128 90v219l-53 -36q-13 -9 -20 -9q-14 0 -24.5 8t-10.5 23t15 24l93 61v320q0 13 10 23t23 10t22.5 -9.5t9.5 -23.5v-276l69 45q16 9 26 9q17 0 27 -20q1 -5 1 -11q0 -15 -13 -23l-110 -74v-260q0 -36 18 -54q4 -6 4 -14q0 -13 -8.5 -21t-20.5 -8q-58 0 -58 97z" />
    <glyph glyph-name="Nacute" unicode="&#x143;" horiz-adv-x="600" 
d="M489 -9q-25 0 -35 19l-309 571v-556q0 -14 -10 -24t-24 -10t-23.5 10t-9.5 24v653q0 16 10.5 27t26.5 11q25 0 36 -21l309 -572v559q0 14 10 24t24 10q13 0 22.5 -10t9.5 -24v-654q0 -16 -10.5 -26.5t-26.5 -10.5zM276 825l87 91q14 14 23 14q10 0 17.5 -8.5t7.5 -18.5
q0 -7 -3 -12l-82 -87q-17 -17 -27 -17q-11 0 -19 8.5t-8 19.5q0 5 4 10z" />
    <glyph glyph-name="nacute" unicode="&#x144;" horiz-adv-x="509" 
d="M129 464q71 49 150 49q76 0 115.5 -50t39.5 -137v-301q0 -31 -32 -31q-15 0 -24 8.5t-9 22.5v301q0 63 -26 97t-76 34q-59 0 -122 -48q3 -16 3 -34v-350q0 -31 -32 -31q-33 0 -33 31v350q0 50 -18 76q-6 8 -6 17q0 12 8.5 20.5t20.5 8.5q24 0 41 -33zM190 625l87 91
q14 14 23 14q10 0 17.5 -8.5t7.5 -18.5q0 -7 -3 -12l-82 -87q-17 -17 -27 -17q-11 0 -19 8.5t-8 19.5q0 5 4 10z" />
    <glyph glyph-name="uni0145" unicode="&#x145;" horiz-adv-x="600" 
d="M489 -9q-25 0 -35 19l-309 571v-556q0 -14 -10 -24t-24 -10t-23.5 10t-9.5 24v653q0 16 10.5 27t26.5 11q25 0 36 -21l309 -572v559q0 14 10 24t24 10q13 0 22.5 -10t9.5 -24v-654q0 -16 -10.5 -26.5t-26.5 -10.5zM349 -113q0 -39 -25.5 -84t-44.5 -45q-12 0 -12 9
q0 3 16 28q17 19 26 42q-23 1 -38.5 15.5t-15.5 34.5t14 33.5t34 13.5q19 0 32.5 -14t13.5 -33z" />
    <glyph glyph-name="uni0146" unicode="&#x146;" horiz-adv-x="509" 
d="M129 464q71 49 150 49q76 0 115.5 -50t39.5 -137v-301q0 -31 -32 -31q-15 0 -24 8.5t-9 22.5v301q0 63 -26 97t-76 34q-59 0 -122 -48q3 -16 3 -34v-350q0 -31 -32 -31q-33 0 -33 31v350q0 50 -18 76q-6 8 -6 17q0 12 8.5 20.5t20.5 8.5q24 0 41 -33zM303 -113
q0 -39 -25.5 -84t-44.5 -45q-12 0 -12 9q0 3 16 28q17 19 26 42q-23 1 -38.5 15.5t-15.5 34.5t14 33.5t34 13.5q19 0 32.5 -14t13.5 -33z" />
    <glyph glyph-name="Ncaron" unicode="&#x147;" horiz-adv-x="600" 
d="M489 -9q-25 0 -35 19l-309 571v-556q0 -14 -10 -24t-24 -10t-23.5 10t-9.5 24v653q0 16 10.5 27t26.5 11q25 0 36 -21l309 -572v559q0 14 10 24t24 10q13 0 22.5 -10t9.5 -24v-654q0 -16 -10.5 -26.5t-26.5 -10.5zM302 775q-12 0 -19 7l-90 75q-19 17 -19 29q0 9 8 15.5
t16 6.5q6 0 14 -6l90 -73l90 73q6 6 14 6q9 0 16 -6.5t7 -15.5q0 -13 -18 -29l-90 -75q-7 -7 -19 -7z" />
    <glyph glyph-name="ncaron" unicode="&#x148;" horiz-adv-x="509" 
d="M129 464q71 49 150 49q76 0 115.5 -50t39.5 -137v-301q0 -31 -32 -31q-15 0 -24 8.5t-9 22.5v301q0 63 -26 97t-76 34q-59 0 -122 -48q3 -16 3 -34v-350q0 -31 -32 -31q-33 0 -33 31v350q0 50 -18 76q-6 8 -6 17q0 12 8.5 20.5t20.5 8.5q24 0 41 -33zM256 575
q-12 0 -19 7l-90 75q-19 17 -19 29q0 9 8 15.5t16 6.5q6 0 14 -6l90 -73l90 73q6 6 14 6q9 0 16 -6.5t7 -15.5q0 -13 -18 -29l-90 -75q-7 -7 -19 -7z" />
    <glyph glyph-name="Omacron" unicode="&#x14c;" horiz-adv-x="551" 
d="M278 -9q-109 0 -168.5 71t-59.5 182v219q0 112 56 182.5t172 70.5q115 0 171 -70.5t56 -182.5v-219q0 -111 -59 -182t-168 -71zM278 652q-161 0 -161 -189v-219q0 -87 40.5 -138t120.5 -51t120 51t40 138v219q0 189 -160 189zM433 844q0 -13 -8 -21t-20 -8h-255
q-13 0 -21.5 8t-8.5 21q0 12 8.5 21t21.5 9h255q12 0 20 -9t8 -21z" />
    <glyph glyph-name="omacron" unicode="&#x14d;" horiz-adv-x="464" 
d="M235 -7q-87 0 -136 49t-49 126v172q0 77 49 126.5t136 49.5q88 0 136.5 -49.5t48.5 -126.5v-172q0 -77 -48.5 -126t-136.5 -49zM235 52q59 0 89.5 30.5t30.5 85.5v173q0 55 -30.5 86t-89.5 31q-58 0 -89 -31t-31 -86v-173q0 -55 31 -85.5t89 -30.5zM390 644q0 -13 -8 -21
t-20 -8h-255q-13 0 -21.5 8t-8.5 21q0 12 8.5 21t21.5 9h255q12 0 20 -9t8 -21z" />
    <glyph glyph-name="Obreve" unicode="&#x14e;" horiz-adv-x="551" 
d="M278 -9q-109 0 -168.5 71t-59.5 182v219q0 112 56 182.5t172 70.5q115 0 171 -70.5t56 -182.5v-219q0 -111 -59 -182t-168 -71zM278 652q-161 0 -161 -189v-219q0 -87 40.5 -138t120.5 -51t120 51t40 138v219q0 189 -160 189zM277 832q40 0 72 45q10 14 25 14
q27 0 19 -29q-10 -35 -45 -56t-71 -21q-37 0 -74 21t-44 56q-3 13 4.5 21t16.5 8q16 0 24 -14q34 -45 73 -45z" />
    <glyph glyph-name="obreve" unicode="&#x14f;" horiz-adv-x="464" 
d="M235 -7q-87 0 -136 49t-49 126v172q0 77 49 126.5t136 49.5q88 0 136.5 -49.5t48.5 -126.5v-172q0 -77 -48.5 -126t-136.5 -49zM235 52q59 0 89.5 30.5t30.5 85.5v173q0 55 -30.5 86t-89.5 31q-58 0 -89 -31t-31 -86v-173q0 -55 31 -85.5t89 -30.5zM234 632q40 0 72 45
q10 14 25 14q27 0 19 -29q-10 -35 -45 -56t-71 -21q-37 0 -74 21t-44 56q-3 13 4.5 21t16.5 8q16 0 24 -14q34 -45 73 -45z" />
    <glyph glyph-name="Ohungarumlaut" unicode="&#x150;" horiz-adv-x="551" 
d="M278 -9q-109 0 -168.5 71t-59.5 182v219q0 112 56 182.5t172 70.5q115 0 171 -70.5t56 -182.5v-219q0 -111 -59 -182t-168 -71zM278 652q-161 0 -161 -189v-219q0 -87 40.5 -138t120.5 -51t120 51t40 138v219q0 189 -160 189zM315 815l66 98q15 24 27 24q10 0 19 -8.5
t9 -18.5q0 -6 -2 -9l-72 -107q-9 -14 -21 -14q-11 0 -19.5 7.5t-8.5 17.5q0 7 2 10zM177 815l70 104q11 18 23 18t19.5 -9.5t7.5 -19.5q0 -7 -1 -8q-37 -62 -65 -98q-17 -22 -29 -22q-11 0 -19 8t-8 19q0 4 2 8z" />
    <glyph glyph-name="ohungarumlaut" unicode="&#x151;" horiz-adv-x="464" 
d="M235 -7q-87 0 -136 49t-49 126v172q0 77 49 126.5t136 49.5q88 0 136.5 -49.5t48.5 -126.5v-172q0 -77 -48.5 -126t-136.5 -49zM235 52q59 0 89.5 30.5t30.5 85.5v173q0 55 -30.5 86t-89.5 31q-58 0 -89 -31t-31 -86v-173q0 -55 31 -85.5t89 -30.5zM279 615l66 98
q15 24 27 24q10 0 19 -8.5t9 -18.5q0 -6 -2 -9l-72 -107q-9 -14 -21 -14q-11 0 -19.5 7.5t-8.5 17.5q0 7 2 10zM141 615l70 104q11 18 23 18t19.5 -9.5t7.5 -19.5q0 -7 -1 -8q-37 -62 -65 -98q-17 -22 -29 -22q-11 0 -19 8t-8 19q0 4 2 8z" />
    <glyph glyph-name="OE" unicode="&#x152;" horiz-adv-x="756" 
d="M726 35q0 -15 -9 -24.5t-23 -9.5h-240q-55 0 -58 55q-62 -65 -140 -65q-99 0 -153 66t-54 167v259q0 104 50.5 168.5t156.5 64.5q80 0 137 -59q4 20 16.5 34.5t27.5 14.5h246q14 0 23.5 -10t9.5 -24q0 -13 -9.5 -21.5t-23.5 -8.5h-220v-255h201q12 0 22 -9.5t10 -22.5
t-9.5 -22.5t-22.5 -9.5h-201v-258h231q13 0 22.5 -9t9.5 -21zM256 652q-141 0 -141 -169v-259q0 -77 35.5 -123t105.5 -46t105 46t35 123v259q0 169 -140 169z" />
    <glyph glyph-name="oe" unicode="&#x153;" horiz-adv-x="731" 
d="M229 -7q-84 0 -132.5 49.5t-48.5 125.5v172q0 76 48.5 126t132.5 50q107 0 156 -98q46 97 153 97q77 0 118 -43t41 -117q0 -145 -166 -145q-59 0 -113 11v-71q0 -47 31 -74.5t89 -27.5q46 0 111 29q6 3 11 3q12 0 20 -8.5t8 -19.5q0 -30 -52.5 -44.5t-103.5 -14.5
q-103 0 -148 95q-48 -95 -155 -95zM233 52q59 0 89.5 30.5t30.5 85.5v173q0 55 -30.5 86t-89.5 31q-58 0 -89 -31t-31 -86v-173q0 -55 31 -85.5t89 -30.5zM633 355q0 103 -101 103q-54 0 -84 -27.5t-30 -74.5v-85q69 -8 116 -8q58 0 78.5 25t20.5 67z" />
    <glyph glyph-name="Racute" unicode="&#x154;" horiz-adv-x="575" 
d="M511 509q0 -76 -43 -125t-119 -64l169 -278l-1 1q4 -10 4 -21q0 -12 -12.5 -21t-23.5 -9q-17 0 -27 15l-183 311h-130v-292q0 -14 -10 -24.5t-24 -10.5q-13 0 -23 10t-10 25v638q0 17 12 29.5t28 12.5h178q113 0 164 -56.5t51 -140.5zM444 509q0 133 -152 133h-147v-261
h153q146 0 146 128zM223 825l87 91q14 14 23 14q10 0 17.5 -8.5t7.5 -18.5q0 -7 -3 -12l-82 -87q-17 -17 -27 -17q-11 0 -19 8.5t-8 19.5q0 5 4 10z" />
    <glyph glyph-name="racute" unicode="&#x155;" horiz-adv-x="337" 
d="M149 373v-348q0 -13 -9.5 -22.5t-22.5 -9.5q-14 0 -23.5 9t-9.5 23v348q0 50 -18 76q-6 7 -6 17q0 12 9 20.5t21 8.5q20 0 39 -31q74 47 143 47q46 0 46 -32q0 -15 -9.5 -25t-22.5 -9q-28 1 -44.5 -0.5t-42 -11t-51.5 -28.5v-1q1 -1 1 -31zM168 625l87 91q14 14 23 14
q10 0 17.5 -8.5t7.5 -18.5q0 -7 -3 -12l-82 -87q-17 -17 -27 -17q-11 0 -19 8.5t-8 19.5q0 5 4 10z" />
    <glyph glyph-name="uni0156" unicode="&#x156;" horiz-adv-x="575" 
d="M511 509q0 -76 -43 -125t-119 -64l169 -278l-1 1q4 -10 4 -21q0 -12 -12.5 -21t-23.5 -9q-17 0 -27 15l-183 311h-130v-292q0 -14 -10 -24.5t-24 -10.5q-13 0 -23 10t-10 25v638q0 17 12 29.5t28 12.5h178q113 0 164 -56.5t51 -140.5zM444 509q0 133 -152 133h-147v-261
h153q146 0 146 128zM336 -113q0 -39 -25.5 -84t-44.5 -45q-12 0 -12 9q0 3 16 28q17 19 26 42q-23 1 -38.5 15.5t-15.5 34.5t14 33.5t34 13.5q19 0 32.5 -14t13.5 -33z" />
    <glyph glyph-name="uni0157" unicode="&#x157;" horiz-adv-x="337" 
d="M149 373v-348q0 -13 -9.5 -22.5t-22.5 -9.5q-14 0 -23.5 9t-9.5 23v348q0 50 -18 76q-6 7 -6 17q0 12 9 20.5t21 8.5q20 0 39 -31q74 47 143 47q46 0 46 -32q0 -15 -9.5 -25t-22.5 -9q-28 1 -44.5 -0.5t-42 -11t-51.5 -28.5v-1q1 -1 1 -31zM163 -113q0 -39 -25.5 -84
t-44.5 -45q-12 0 -12 9q0 3 16 28q17 19 26 42q-23 1 -38.5 15.5t-15.5 34.5t14 33.5t34 13.5q19 0 32.5 -14t13.5 -33z" />
    <glyph glyph-name="Rcaron" unicode="&#x158;" horiz-adv-x="575" 
d="M511 509q0 -76 -43 -125t-119 -64l169 -278l-1 1q4 -10 4 -21q0 -12 -12.5 -21t-23.5 -9q-17 0 -27 15l-183 311h-130v-292q0 -14 -10 -24.5t-24 -10.5q-13 0 -23 10t-10 25v638q0 17 12 29.5t28 12.5h178q113 0 164 -56.5t51 -140.5zM444 509q0 133 -152 133h-147v-261
h153q146 0 146 128zM289 775q-12 0 -19 7l-90 75q-19 17 -19 29q0 9 8 15.5t16 6.5q6 0 14 -6l90 -73l90 73q6 6 14 6q9 0 16 -6.5t7 -15.5q0 -13 -18 -29l-90 -75q-7 -7 -19 -7z" />
    <glyph glyph-name="rcaron" unicode="&#x159;" horiz-adv-x="337" 
d="M149 373v-348q0 -13 -9.5 -22.5t-22.5 -9.5q-14 0 -23.5 9t-9.5 23v348q0 50 -18 76q-6 7 -6 17q0 12 9 20.5t21 8.5q20 0 39 -31q74 47 143 47q46 0 46 -32q0 -15 -9.5 -25t-22.5 -9q-28 1 -44.5 -0.5t-42 -11t-51.5 -28.5v-1q1 -1 1 -31zM171 575q-12 0 -19 7l-90 75
q-19 17 -19 29q0 9 8 15.5t16 6.5q6 0 14 -6l90 -73l90 73q6 6 14 6q9 0 16 -6.5t7 -15.5q0 -13 -18 -29l-90 -75q-7 -7 -19 -7z" />
    <glyph glyph-name="Sacute" unicode="&#x15a;" horiz-adv-x="486" 
d="M372 188q0 78 -62 110q-25 13 -80 32q-31 10 -45 15.5t-40.5 18t-40 25.5t-29 32t-22 45t-6.5 58q0 90 53.5 141t146.5 51q55 0 110.5 -14.5t55.5 -47.5q0 -13 -9 -22t-24 -9t-35 9q-51 20 -92 20q-60 0 -98 -28.5t-38 -94.5q0 -76 64 -109q35 -18 80 -32
q41 -13 66 -24.5t55.5 -33.5t45.5 -55.5t15 -79.5q0 -95 -60 -149.5t-156 -54.5q-61 0 -121 17t-60 50q0 13 9 23t21 10q4 0 37 -11q59 -25 115 -25q71 0 107.5 34.5t36.5 98.5zM224 825l87 91q14 14 23 14q10 0 17.5 -8.5t7.5 -18.5q0 -7 -3 -12l-82 -87q-17 -17 -27 -17
q-11 0 -19 8.5t-8 19.5q0 5 4 10z" />
    <glyph glyph-name="sacute" unicode="&#x15b;" horiz-adv-x="406" 
d="M59 374q0 65 41 103t118 38q48 0 88.5 -12t40.5 -38q0 -12 -8 -20.5t-21 -8.5q-5 0 -15 4q-42 20 -82 20q-99 0 -99 -81q0 -27 11.5 -43t41.5 -32q16 -8 48.5 -20.5t52.5 -22t42 -26t33 -41.5t11 -59q0 -67 -42 -104.5t-123 -37.5q-52 0 -98.5 12t-46.5 39q0 12 8.5 21
t22.5 9q3 0 6 -1q63 -25 108 -25q102 0 102 84q0 51 -41 73q-17 9 -49.5 20.5t-55 21.5t-46 26t-36 41.5t-12.5 59.5zM182 625l87 91q14 14 23 14q10 0 17.5 -8.5t7.5 -18.5q0 -7 -3 -12l-82 -87q-17 -17 -27 -17q-11 0 -19 8.5t-8 19.5q0 5 4 10z" />
    <glyph glyph-name="Scircumflex" unicode="&#x15c;" horiz-adv-x="486" 
d="M372 188q0 78 -62 110q-25 13 -80 32q-31 10 -45 15.5t-40.5 18t-40 25.5t-29 32t-22 45t-6.5 58q0 90 53.5 141t146.5 51q55 0 110.5 -14.5t55.5 -47.5q0 -13 -9 -22t-24 -9t-35 9q-51 20 -92 20q-60 0 -98 -28.5t-38 -94.5q0 -76 64 -109q35 -18 80 -32
q41 -13 66 -24.5t55.5 -33.5t45.5 -55.5t15 -79.5q0 -95 -60 -149.5t-156 -54.5q-61 0 -121 17t-60 50q0 13 9 23t21 10q4 0 37 -11q59 -25 115 -25q71 0 107.5 34.5t36.5 98.5zM245 853l-83 -68q-2 -3 -13 -3q-7 0 -12.5 6t-5.5 13q0 8 16 24l81 69h-1q12 7 18 7q4 0 18 -7
h-1l81 -69q16 -19 16 -24q0 -7 -6 -13t-13 -6q-10 0 -12 3z" />
    <glyph glyph-name="scircumflex" unicode="&#x15d;" horiz-adv-x="406" 
d="M59 374q0 65 41 103t118 38q48 0 88.5 -12t40.5 -38q0 -12 -8 -20.5t-21 -8.5q-5 0 -15 4q-42 20 -82 20q-99 0 -99 -81q0 -27 11.5 -43t41.5 -32q16 -8 48.5 -20.5t52.5 -22t42 -26t33 -41.5t11 -59q0 -67 -42 -104.5t-123 -37.5q-52 0 -98.5 12t-46.5 39q0 12 8.5 21
t22.5 9q3 0 6 -1q63 -25 108 -25q102 0 102 84q0 51 -41 73q-17 9 -49.5 20.5t-55 21.5t-46 26t-36 41.5t-12.5 59.5zM205 653l-83 -68q-2 -3 -13 -3q-7 0 -12.5 6t-5.5 13q0 8 16 24l81 69h-1q12 7 18 7q4 0 18 -7h-1l81 -69q16 -19 16 -24q0 -7 -6 -13t-13 -6q-10 0 -12 3
z" />
    <glyph glyph-name="Scedilla" unicode="&#x15e;" horiz-adv-x="486" 
d="M356 -138q0 -32 -27 -55.5t-76 -23.5q-26 0 -30 1q-21 2 -35 13.5t-8 24.5v-1q6 9 28 3l18 -4q36 -7 57.5 9.5t21.5 39.5q0 41 -69 44q-19 1 -25.5 6t-4.5 19l8 53q-63 3 -115.5 20t-52.5 47q0 13 9 23t21 10q4 0 37 -11q59 -25 115 -25q71 0 107.5 34.5t36.5 98.5
q0 78 -62 110q-25 13 -80 32q-31 10 -45 15.5t-40.5 18t-40 25.5t-29 32t-22 45t-6.5 58q0 90 53.5 141t146.5 51q55 0 110.5 -14.5t55.5 -47.5q0 -13 -9 -22t-24 -9t-35 9q-51 20 -92 20q-60 0 -98 -28.5t-38 -94.5q0 -76 64 -109q35 -18 80 -32q41 -13 66 -24.5
t55.5 -33.5t45.5 -55.5t15 -79.5q0 -87 -53 -141t-139 -62l-7 -47q112 -1 112 -83z" />
    <glyph glyph-name="scedilla" unicode="&#x15f;" horiz-adv-x="406" 
d="M318 -139q0 -32 -27 -55.5t-77 -23.5q-26 0 -30 1q-21 2 -35 13.5t-8 24.5v-1q6 9 28 3l18 -4q37 -8 58.5 9t21.5 40q0 41 -69 44q-20 1 -26.5 6.5t-4.5 18.5l9 55q-124 9 -124 52q0 12 8.5 21t22.5 9q3 0 6 -1q63 -25 108 -25q102 0 102 84q0 49 -41 71q-8 4 -56 22h1
l-40.5 15t-37 18.5t-35.5 27t-21.5 37t-9.5 51.5q0 65 41 103t118 38q48 0 88.5 -12t40.5 -38q0 -12 -8 -20.5t-21 -8.5q-5 0 -15 4q-42 20 -82 20q-99 0 -99 -81q0 -26 11.5 -42t41.5 -31q10 -5 50 -19h-1q33 -12 50 -20.5t41.5 -26t35.5 -43.5t11 -62q0 -62 -38.5 -99.5
t-111.5 -42.5l-7 -49q113 -1 113 -83z" />
    <glyph glyph-name="Scaron" unicode="&#x160;" horiz-adv-x="486" 
d="M372 188q0 78 -62 110q-25 13 -80 32q-31 10 -45 15.5t-40.5 18t-40 25.5t-29 32t-22 45t-6.5 58q0 90 53.5 141t146.5 51q55 0 110.5 -14.5t55.5 -47.5q0 -13 -9 -22t-24 -9t-35 9q-51 20 -92 20q-60 0 -98 -28.5t-38 -94.5q0 -76 64 -109q35 -18 80 -32
q41 -13 66 -24.5t55.5 -33.5t45.5 -55.5t15 -79.5q0 -95 -60 -149.5t-156 -54.5q-61 0 -121 17t-60 50q0 13 9 23t21 10q4 0 37 -11q59 -25 115 -25q71 0 107.5 34.5t36.5 98.5zM245 775q-12 0 -19 7l-90 75q-19 17 -19 29q0 9 8 15.5t16 6.5q6 0 14 -6l90 -73l90 73
q6 6 14 6q9 0 16 -6.5t7 -15.5q0 -13 -18 -29l-90 -75q-7 -7 -19 -7z" />
    <glyph glyph-name="scaron" unicode="&#x161;" horiz-adv-x="406" 
d="M59 374q0 65 41 103t118 38q48 0 88.5 -12t40.5 -38q0 -12 -8 -20.5t-21 -8.5q-5 0 -15 4q-42 20 -82 20q-99 0 -99 -81q0 -27 11.5 -43t41.5 -32q16 -8 48.5 -20.5t52.5 -22t42 -26t33 -41.5t11 -59q0 -67 -42 -104.5t-123 -37.5q-52 0 -98.5 12t-46.5 39q0 12 8.5 21
t22.5 9q3 0 6 -1q63 -25 108 -25q102 0 102 84q0 51 -41 73q-17 9 -49.5 20.5t-55 21.5t-46 26t-36 41.5t-12.5 59.5zM205 575q-12 0 -19 7l-90 75q-19 17 -19 29q0 9 8 15.5t16 6.5q6 0 14 -6l90 -73l90 73q6 6 14 6q9 0 16 -6.5t7 -15.5q0 -13 -18 -29l-90 -75
q-7 -7 -19 -7z" />
    <glyph glyph-name="uni0162" unicode="&#x162;" horiz-adv-x="483" 
d="M375 -138q0 -33 -26.5 -56t-76.5 -23q-25 0 -29 1q-22 2 -36 13.5t-7 24.5v-1q6 9 27 3l19 -4q36 -7 57 9.5t21 39.5q0 41 -68 44q-20 1 -26.5 6t-4.5 19l9 54q-24 10 -24 32v618h-146q-15 0 -24.5 9t-9.5 22q0 12 10 22.5t24 10.5h359q14 0 24 -9.5t10 -23.5
q0 -13 -10 -22t-24 -9h-147v-618q0 -8 -4 -16l-9 -63q112 -1 112 -83z" />
    <glyph glyph-name="uni0163" unicode="&#x163;" horiz-adv-x="321" 
d="M300 -139q0 -32 -27 -55.5t-77 -23.5q-26 0 -30 1q-22 2 -36 13.5t-7 24.5v-1q6 9 28 3l18 -4q37 -8 58 8.5t21 40.5q0 41 -69 44q-19 2 -25.5 7t-4.5 18q4 40 13 73q-46 22 -63.5 68t-17.5 124v431q0 13 8.5 22.5t23.5 9.5t23.5 -9.5t8.5 -22.5v-150h116q12 0 20.5 -9
t8.5 -22q0 -12 -8.5 -20.5t-20.5 -8.5h-116v-214q0 -88 17.5 -120t75.5 -32h9q2 0 6 0.5t5 0.5q45 0 45 -30q0 -31 -50 -31q-29 0 -61 4q-7 -31 -3 -57q111 -1 111 -83z" />
    <glyph glyph-name="Tcaron" unicode="&#x164;" horiz-adv-x="483" 
d="M210 24v618h-146q-15 0 -24.5 9t-9.5 22q0 12 10 22.5t24 10.5h359q14 0 24 -9.5t10 -23.5q0 -13 -10 -22t-24 -9h-147v-618q0 -14 -9.5 -23.5t-22.5 -9.5q-14 0 -24 9.5t-10 23.5zM243 775q-12 0 -19 7l-90 75q-19 17 -19 29q0 9 8 15.5t16 6.5q6 0 14 -6l90 -73l90 73
q6 6 14 6q9 0 16 -6.5t7 -15.5q0 -13 -18 -29l-90 -75q-7 -7 -19 -7z" />
    <glyph glyph-name="tcaron" unicode="&#x165;" horiz-adv-x="431" 
d="M81 202v431q0 13 8.5 22.5t23.5 9.5t23.5 -9.5t8.5 -22.5v-150h116q12 0 20.5 -9t8.5 -22q0 -12 -8.5 -20.5t-20.5 -8.5h-116v-214q0 -88 17.5 -120t75.5 -32q4 0 10 0.5t10 0.5q45 0 45 -30q0 -31 -50 -31q-99 0 -135.5 48.5t-36.5 156.5zM408 679q0 -47 -25 -103
t-44 -56q-13 0 -13 9q0 12 18 44q14 23 22 56q-22 2 -37 16.5t-15 33.5t14 33t34 14q19 0 32.5 -13.5t13.5 -33.5z" />
    <glyph glyph-name="Utilde" unicode="&#x168;" horiz-adv-x="572" 
d="M507 228q0 -105 -58.5 -171t-159.5 -66q-103 0 -161 66t-58 171v452q0 16 10 26t25 10q13 0 22.5 -10.5t9.5 -25.5v-452q0 -79 38.5 -126t113.5 -47q74 0 112 47t38 126v452q0 14 10 25t23 11q14 0 24.5 -11t10.5 -25v-452zM421 856q0 -22 -25 -38t-52 -16q-25 0 -59 18
q-2 1 -11 6t-16 7t-17 2q-22 0 -45 -18q-11 -9 -19 -9q-23 0 -23 23q0 21 23.5 38.5t51.5 17.5q23 0 58 -19q24 -13 45 -14q29 0 48 17q15 12 21 12q7 0 13.5 -7.5t6.5 -19.5z" />
    <glyph glyph-name="utilde" unicode="&#x169;" horiz-adv-x="509" 
d="M366 120v360q0 32 33 32q15 0 23.5 -9t8.5 -23v-360q0 -52 11 -65q15 -18 15 -28q0 -12 -9 -20t-21 -8q-22 0 -43 33q-67 -39 -148 -39q-76 0 -116.5 50t-40.5 136v301q0 14 9 23t24 9t23.5 -9t8.5 -23v-301q0 -62 26.5 -96t76.5 -34q62 0 121 38q-2 20 -2 33zM389 656
q0 -22 -25 -38t-52 -16q-25 0 -59 18q-2 1 -11 6t-16 7t-17 2q-22 0 -45 -18q-11 -9 -19 -9q-23 0 -23 23q0 21 23.5 38.5t51.5 17.5q23 0 58 -19q24 -13 45 -14q29 0 48 17q15 12 21 12q7 0 13.5 -7.5t6.5 -19.5z" />
    <glyph glyph-name="Umacron" unicode="&#x16a;" horiz-adv-x="572" 
d="M507 228q0 -105 -58.5 -171t-159.5 -66q-103 0 -161 66t-58 171v452q0 16 10 26t25 10q13 0 22.5 -10.5t9.5 -25.5v-452q0 -79 38.5 -126t113.5 -47q74 0 112 47t38 126v452q0 14 10 25t23 11q14 0 24.5 -11t10.5 -25v-452zM444 844q0 -13 -8 -21t-20 -8h-255
q-13 0 -21.5 8t-8.5 21q0 12 8.5 21t21.5 9h255q12 0 20 -9t8 -21z" />
    <glyph glyph-name="umacron" unicode="&#x16b;" horiz-adv-x="509" 
d="M366 120v360q0 32 33 32q15 0 23.5 -9t8.5 -23v-360q0 -52 11 -65q15 -18 15 -28q0 -12 -9 -20t-21 -8q-22 0 -43 33q-67 -39 -148 -39q-76 0 -116.5 50t-40.5 136v301q0 14 9 23t24 9t23.5 -9t8.5 -23v-301q0 -62 26.5 -96t76.5 -34q62 0 121 38q-2 20 -2 33zM412 644
q0 -13 -8 -21t-20 -8h-255q-13 0 -21.5 8t-8.5 21q0 12 8.5 21t21.5 9h255q12 0 20 -9t8 -21z" />
    <glyph glyph-name="Ubreve" unicode="&#x16c;" horiz-adv-x="572" 
d="M507 228q0 -105 -58.5 -171t-159.5 -66q-103 0 -161 66t-58 171v452q0 16 10 26t25 10q13 0 22.5 -10.5t9.5 -25.5v-452q0 -79 38.5 -126t113.5 -47q74 0 112 47t38 126v452q0 14 10 25t23 11q14 0 24.5 -11t10.5 -25v-452zM288 832q40 0 72 45q10 14 25 14q27 0 19 -29
q-10 -35 -45 -56t-71 -21q-37 0 -74 21t-44 56q-3 13 4.5 21t16.5 8q16 0 24 -14q34 -45 73 -45z" />
    <glyph glyph-name="ubreve" unicode="&#x16d;" horiz-adv-x="509" 
d="M366 120v360q0 32 33 32q15 0 23.5 -9t8.5 -23v-360q0 -52 11 -65q15 -18 15 -28q0 -12 -9 -20t-21 -8q-22 0 -43 33q-67 -39 -148 -39q-76 0 -116.5 50t-40.5 136v301q0 14 9 23t24 9t23.5 -9t8.5 -23v-301q0 -62 26.5 -96t76.5 -34q62 0 121 38q-2 20 -2 33zM256 632
q40 0 72 45q10 14 25 14q27 0 19 -29q-10 -35 -45 -56t-71 -21q-37 0 -74 21t-44 56q-3 13 4.5 21t16.5 8q16 0 24 -14q34 -45 73 -45z" />
    <glyph glyph-name="Uring" unicode="&#x16e;" horiz-adv-x="572" 
d="M507 228q0 -105 -58.5 -171t-159.5 -66q-103 0 -161 66t-58 171v452q0 16 10 26t25 10q13 0 22.5 -10.5t9.5 -25.5v-452q0 -79 38.5 -126t113.5 -47q74 0 112 47t38 126v452q0 14 10 25t23 11q14 0 24.5 -11t10.5 -25v-452zM382 851q0 -39 -27 -66t-66 -27
q-40 0 -67.5 27t-27.5 66t27.5 66.5t67.5 27.5q39 0 66 -27.5t27 -66.5zM351 851q0 26 -18 45t-44 19t-44.5 -19t-18.5 -45t18.5 -44t44.5 -18t44 18t18 44z" />
    <glyph glyph-name="uring" unicode="&#x16f;" horiz-adv-x="509" 
d="M366 120v360q0 32 33 32q15 0 23.5 -9t8.5 -23v-360q0 -52 11 -65q15 -18 15 -28q0 -12 -9 -20t-21 -8q-22 0 -43 33q-67 -39 -148 -39q-76 0 -116.5 50t-40.5 136v301q0 14 9 23t24 9t23.5 -9t8.5 -23v-301q0 -62 26.5 -96t76.5 -34q62 0 121 38q-2 20 -2 33zM351 651
q0 -39 -27 -66t-66 -27q-40 0 -67.5 27t-27.5 66t27.5 66.5t67.5 27.5q39 0 66 -27.5t27 -66.5zM320 651q0 26 -18 45t-44 19t-44.5 -19t-18.5 -45t18.5 -44t44.5 -18t44 18t18 44z" />
    <glyph glyph-name="Uhungarumlaut" unicode="&#x170;" horiz-adv-x="572" 
d="M507 228q0 -105 -58.5 -171t-159.5 -66q-103 0 -161 66t-58 171v452q0 16 10 26t25 10q13 0 22.5 -10.5t9.5 -25.5v-452q0 -79 38.5 -126t113.5 -47q74 0 112 47t38 126v452q0 14 10 25t23 11q14 0 24.5 -11t10.5 -25v-452zM334 815l66 98q15 24 27 24q10 0 19 -8.5
t9 -18.5q0 -6 -2 -9l-72 -107q-9 -14 -21 -14q-11 0 -19.5 7.5t-8.5 17.5q0 7 2 10zM196 815l70 104q11 18 23 18t19.5 -9.5t7.5 -19.5q0 -7 -1 -8q-37 -62 -65 -98q-17 -22 -29 -22q-11 0 -19 8t-8 19q0 4 2 8z" />
    <glyph glyph-name="uhungarumlaut" unicode="&#x171;" horiz-adv-x="509" 
d="M366 120v360q0 32 33 32q15 0 23.5 -9t8.5 -23v-360q0 -52 11 -65q15 -18 15 -28q0 -12 -9 -20t-21 -8q-22 0 -43 33q-67 -39 -148 -39q-76 0 -116.5 50t-40.5 136v301q0 14 9 23t24 9t23.5 -9t8.5 -23v-301q0 -62 26.5 -96t76.5 -34q62 0 121 38q-2 20 -2 33zM300 615
l66 98q15 24 27 24q10 0 19 -8.5t9 -18.5q0 -6 -2 -9l-72 -107q-9 -14 -21 -14q-11 0 -19.5 7.5t-8.5 17.5q0 7 2 10zM162 615l70 104q11 18 23 18t19.5 -9.5t7.5 -19.5q0 -7 -1 -8q-37 -62 -65 -98q-17 -22 -29 -22q-11 0 -19 8t-8 19q0 4 2 8z" />
    <glyph glyph-name="Uogonek" unicode="&#x172;" horiz-adv-x="572" 
d="M507 228q0 -77 -32.5 -134.5t-91.5 -84.5q-40 -78 -40 -107q0 -23 14 -38t39 -15q10 0 31 3q10 2 12 2q9 0 14.5 -6t5.5 -15q0 -31 -71 -31q-98 0 -98 84q0 46 40 107q-18 -2 -41 -2q-103 0 -161 66t-58 171v452q0 16 10 26t25 10q13 0 22.5 -10.5t9.5 -25.5v-452
q0 -79 38.5 -126t113.5 -47q74 0 112 47t38 126v452q0 14 10 25t23 11q14 0 24.5 -11t10.5 -25v-452z" />
    <glyph glyph-name="uogonek" unicode="&#x173;" horiz-adv-x="509" 
d="M526 -168q0 -32 -71 -32q-46 0 -72.5 21.5t-26.5 63.5q0 51 53 118q-15 12 -24 29q-72 -39 -150 -39q-76 0 -116 50t-40 136v301q0 32 33 32q15 0 23.5 -9t8.5 -23v-301q0 -62 26.5 -96t76.5 -34q61 0 121 37q-3 15 -3 34v360q0 14 9 23t24 9q32 0 32 -32v-360
q0 -53 12 -65q7 -7 9 -12l-1 1q6 -10 6 -17q0 -11 -9 -22q-37 -49 -37 -104q0 -24 13.5 -39t39.5 -15q3 0 31 4q10 2 13 2q8 0 13.5 -6.5t5.5 -14.5z" />
    <glyph glyph-name="Wcircumflex" unicode="&#x174;" horiz-adv-x="776" 
d="M517 33l-125 554l-126 -555q-14 -41 -47 -41q-36 0 -48 41l-153 648v4q0 13 12 20.5t27 7.5q21 0 30 -24l134 -578l125 552q7 28 16.5 41t29.5 13q33 0 45 -54l127 -553l133 579q9 24 27 24q15 0 28 -7.5t13 -21.5q0 -6 -1 -9v-1l-152 -641q-12 -41 -47 -41q-36 0 -48 42
zM390 853l-83 -68q-2 -3 -13 -3q-7 0 -12.5 6t-5.5 13q0 8 16 24l81 69h-1q12 7 18 7q4 0 18 -7h-1l81 -69q16 -19 16 -24q0 -7 -6 -13t-13 -6q-10 0 -12 3z" />
    <glyph glyph-name="wcircumflex" unicode="&#x175;" horiz-adv-x="655" 
d="M636 477l-119 -444q-12 -40 -44 -40q-30 0 -40 29l-99 389q-77 -310 -100 -389q-8 -29 -41 -29t-45 40l-120 446v2q0 12 9.5 21.5t23.5 9.5q21 0 30 -23l103 -403q18 64 101 395q9 31 39 31q28 0 37 -31q24 -104 102 -395l102 403q2 10 11 16.5t19 6.5q13 0 22 -9.5
t9 -23.5v-2zM329 653l-83 -68q-2 -3 -13 -3q-7 0 -12.5 6t-5.5 13q0 8 16 24l81 69h-1q12 7 18 7q4 0 18 -7h-1l81 -69q16 -19 16 -24q0 -7 -6 -13t-13 -6q-10 0 -12 3z" />
    <glyph glyph-name="Ycircumflex" unicode="&#x176;" horiz-adv-x="476" 
d="M241 -9q-15 0 -25 10t-10 25v253l-182 386q-4 10 -4 17q0 13 10.5 23.5t24.5 10.5q17 0 24 -13v1l162 -351l161 351v-1q7 13 25 13q13 0 23 -10.5t10 -23.5q0 -5 -3 -17l-183 -390v-249q0 -14 -9.5 -24.5t-23.5 -10.5zM240 853l-83 -68q-2 -3 -13 -3q-7 0 -12.5 6
t-5.5 13q0 8 16 24l81 69h-1q12 7 18 7q4 0 18 -7h-1l81 -69q16 -19 16 -24q0 -7 -6 -13t-13 -6q-10 0 -12 3z" />
    <glyph glyph-name="ycircumflex" unicode="&#x177;" horiz-adv-x="411" 
d="M398 469l-126 -409q-20 -65 -36.5 -104.5t-41.5 -79.5t-59 -59t-78 -19q-15 0 -24.5 8.5t-9.5 22.5q0 12 8 21t22 10q52 2 80 31t53 104l-164 476q-3 3 -3 11q0 13 9.5 21.5t23.5 8.5q20 0 29 -21l136 -415l120 415q11 21 30 21q13 0 22.5 -9.5t9.5 -23.5q0 -3 -0.5 -6
t-0.5 -4zM182 653l-83 -68q-1 -3 -13 -3q-7 0 -12.5 6t-5.5 13q0 8 16 24l81 69h-1q12 7 18 7q4 0 18 -7h-1l81 -69q16 -19 16 -24q0 -7 -6 -13t-13 -6q-11 0 -12 3z" />
    <glyph glyph-name="Ydieresis" unicode="&#x178;" horiz-adv-x="476" 
d="M241 -9q-15 0 -25 10t-10 25v253l-182 386q-4 10 -4 17q0 13 10.5 23.5t24.5 10.5q17 0 24 -13v1l162 -351l161 351v-1q7 13 25 13q13 0 23 -10.5t10 -23.5q0 -5 -3 -17l-183 -390v-249q0 -14 -9.5 -24.5t-23.5 -10.5zM366 846q0 -18 -11.5 -30t-28.5 -12t-29.5 12.5
t-12.5 29.5q0 16 13 28.5t29 12.5t28 -12t12 -29zM193 846q0 -18 -12 -30t-29 -12q-16 0 -28 12.5t-12 29.5q0 16 12 28.5t28 12.5q17 0 29 -12t12 -29z" />
    <glyph glyph-name="Zacute" unicode="&#x179;" horiz-adv-x="484" 
d="M453 35q0 -15 -9.5 -24.5t-23.5 -9.5h-350q-16 0 -26 10.5t-10 26.5q0 10 10 28l322 574h-297q-14 0 -23.5 9t-9.5 23t9.5 24t23.5 10h346q16 0 26 -10.5t10 -26.5q0 -6 -9 -27l-323 -575h301q14 0 23.5 -9.5t9.5 -22.5zM217 825l87 91q14 14 23 14q10 0 17.5 -8.5
t7.5 -18.5q0 -7 -3 -12l-82 -87q-17 -17 -27 -17q-11 0 -19 8.5t-8 19.5q0 5 4 10z" />
    <glyph glyph-name="zacute" unicode="&#x17a;" horiz-adv-x="384" 
d="M367 471q0 -13 -7 -25l-262 -387h241q13 0 21.5 -9t8.5 -21q0 -13 -8.5 -21t-21.5 -8h-285q-14 0 -24 10t-10 25q0 13 6 22l264 389h-230q-13 0 -21.5 8.5t-8.5 20.5q0 13 8.5 21.5t21.5 8.5h273q15 0 24.5 -9t9.5 -25zM178 625l87 91q14 14 23 14q10 0 17.5 -8.5
t7.5 -18.5q0 -7 -3 -12l-82 -87q-17 -17 -27 -17q-11 0 -19 8.5t-8 19.5q0 5 4 10z" />
    <glyph glyph-name="Zdotaccent" unicode="&#x17b;" horiz-adv-x="484" 
d="M453 35q0 -15 -9.5 -24.5t-23.5 -9.5h-350q-16 0 -26 10.5t-10 26.5q0 10 10 28l322 574h-297q-14 0 -23.5 9t-9.5 23t9.5 24t23.5 10h346q16 0 26 -10.5t10 -26.5q0 -6 -9 -27l-323 -575h301q14 0 23.5 -9.5t9.5 -22.5zM283 846q0 -18 -12 -30t-29 -12q-16 0 -28 12.5
t-12 29.5q0 16 12 28.5t28 12.5q17 0 29 -12t12 -29z" />
    <glyph glyph-name="zdotaccent" unicode="&#x17c;" horiz-adv-x="384" 
d="M367 471q0 -13 -7 -25l-262 -387h241q13 0 21.5 -9t8.5 -21q0 -13 -8.5 -21t-21.5 -8h-285q-14 0 -24 10t-10 25q0 13 6 22l264 389h-230q-13 0 -21.5 8.5t-8.5 20.5q0 13 8.5 21.5t21.5 8.5h273q15 0 24.5 -9t9.5 -25zM233 646q0 -18 -12 -30t-29 -12q-16 0 -28 12.5
t-12 29.5q0 16 12 28.5t28 12.5q17 0 29 -12t12 -29z" />
    <glyph glyph-name="Zcaron" unicode="&#x17d;" horiz-adv-x="484" 
d="M453 35q0 -15 -9.5 -24.5t-23.5 -9.5h-350q-16 0 -26 10.5t-10 26.5q0 10 10 28l322 574h-297q-14 0 -23.5 9t-9.5 23t9.5 24t23.5 10h346q16 0 26 -10.5t10 -26.5q0 -6 -9 -27l-323 -575h301q14 0 23.5 -9.5t9.5 -22.5zM244 775q-12 0 -19 7l-90 75q-19 17 -19 29
q0 9 8 15.5t16 6.5q6 0 14 -6l90 -73l90 73q6 6 14 6q9 0 16 -6.5t7 -15.5q0 -13 -18 -29l-90 -75q-7 -7 -19 -7z" />
    <glyph glyph-name="zcaron" unicode="&#x17e;" horiz-adv-x="384" 
d="M367 471q0 -13 -7 -25l-262 -387h241q13 0 21.5 -9t8.5 -21q0 -13 -8.5 -21t-21.5 -8h-285q-14 0 -24 10t-10 25q0 13 6 22l264 389h-230q-13 0 -21.5 8.5t-8.5 20.5q0 13 8.5 21.5t21.5 8.5h273q15 0 24.5 -9t9.5 -25zM195 575q-12 0 -19 7l-90 75q-19 17 -19 29
q0 9 8 15.5t16 6.5q6 0 14 -6l90 -73l90 73q6 6 14 6q9 0 16 -6.5t7 -15.5q0 -13 -18 -29l-90 -75q-7 -7 -19 -7z" />
    <glyph glyph-name="florin" unicode="&#x192;" horiz-adv-x="492" 
d="M481 685q0 -28 -34 -23q-6 0 -12.5 1t-11 1.5t-5.5 0.5q-30 0 -52 -19.5t-29 -53.5l-23 -144h94q27 0 27 -29q0 -26 -27 -26h-106q-13 -81 -42 -243t-35 -199q-14 -80 -46.5 -123t-95.5 -43q-26 0 -39.5 1t-25 7.5t-11.5 19.5q0 31 33 31h11q3 0 9 -0.5t9 -0.5
q42 0 60.5 23t28.5 76l79 451h-95q-28 0 -28 27q0 28 28 28h105l26 154q12 53 53 86.5t102 33.5q53 0 53 -37z" />
    <glyph glyph-name="uni0218" unicode="&#x218;" horiz-adv-x="486" 
d="M372 188q0 78 -62 110q-25 13 -80 32q-31 10 -45 15.5t-40.5 18t-40 25.5t-29 32t-22 45t-6.5 58q0 90 53.5 141t146.5 51q55 0 110.5 -14.5t55.5 -47.5q0 -13 -9 -22t-24 -9t-35 9q-51 20 -92 20q-60 0 -98 -28.5t-38 -94.5q0 -76 64 -109q35 -18 80 -32
q41 -13 66 -24.5t55.5 -33.5t45.5 -55.5t15 -79.5q0 -95 -60 -149.5t-156 -54.5q-61 0 -121 17t-60 50q0 13 9 23t21 10q4 0 37 -11q59 -25 115 -25q71 0 107.5 34.5t36.5 98.5zM292 -113q0 -39 -25.5 -84t-44.5 -45q-12 0 -12 9q0 3 16 28q17 19 26 42q-23 1 -38.5 15.5
t-15.5 34.5t14 33.5t34 13.5q19 0 32.5 -14t13.5 -33z" />
    <glyph glyph-name="uni0219" unicode="&#x219;" horiz-adv-x="406" 
d="M59 374q0 65 41 103t118 38q48 0 88.5 -12t40.5 -38q0 -12 -8 -20.5t-21 -8.5q-5 0 -15 4q-42 20 -82 20q-99 0 -99 -81q0 -27 11.5 -43t41.5 -32q16 -8 48.5 -20.5t52.5 -22t42 -26t33 -41.5t11 -59q0 -67 -42 -104.5t-123 -37.5q-52 0 -98.5 12t-46.5 39q0 12 8.5 21
t22.5 9q3 0 6 -1q63 -25 108 -25q102 0 102 84q0 51 -41 73q-17 9 -49.5 20.5t-55 21.5t-46 26t-36 41.5t-12.5 59.5zM252 -113q0 -39 -25.5 -84t-44.5 -45q-12 0 -12 9q0 3 16 28q17 19 26 42q-23 1 -38.5 15.5t-15.5 34.5t14 33.5t34 13.5q19 0 32.5 -14t13.5 -33z" />
    <glyph glyph-name="uni021A" unicode="&#x21a;" horiz-adv-x="483" 
d="M210 24v618h-146q-15 0 -24.5 9t-9.5 22q0 12 10 22.5t24 10.5h359q14 0 24 -9.5t10 -23.5q0 -13 -10 -22t-24 -9h-147v-618q0 -14 -9.5 -23.5t-22.5 -9.5q-14 0 -24 9.5t-10 23.5zM290 -113q0 -39 -25.5 -84t-44.5 -45q-12 0 -12 9q0 3 16 28q17 19 26 42
q-23 1 -38.5 15.5t-15.5 34.5t14 33.5t34 13.5q19 0 32.5 -14t13.5 -33z" />
    <glyph glyph-name="uni021B" unicode="&#x21b;" horiz-adv-x="321" 
d="M81 202v431q0 13 8.5 22.5t23.5 9.5t23.5 -9.5t8.5 -22.5v-150h116q12 0 20.5 -9t8.5 -22q0 -12 -8.5 -20.5t-20.5 -8.5h-116v-214q0 -88 17.5 -120t75.5 -32q4 0 10 0.5t10 0.5q45 0 45 -30q0 -31 -50 -31q-99 0 -135.5 48.5t-36.5 156.5zM269 -113q0 -39 -25.5 -84
t-44.5 -45q-12 0 -12 9q0 3 16 28q17 19 26 42q-23 1 -38.5 15.5t-15.5 34.5t14 33.5t34 13.5q19 0 32.5 -14t13.5 -33z" />
    <glyph glyph-name="dotlessj" unicode="&#x237;" horiz-adv-x="245" 
d="M157 479v-502q0 -75 -37.5 -124.5t-100.5 -60.5h-7h-6.5h-5.5q-22 0 -27 20q-3 15 5 24t20 11q47 11 70.5 39.5t23.5 86.5v506q0 14 9.5 23.5t23.5 9.5q13 0 22.5 -10t9.5 -23z" />
    <glyph glyph-name="circumflex" unicode="&#x2c6;" horiz-adv-x="396" 
d="M199 653l-83 -68q-2 -3 -13 -3q-7 0 -12.5 6t-5.5 13q0 8 16 24l81 69h-1q12 7 18 7q4 0 18 -7h-1l81 -69q16 -19 16 -24q0 -7 -6 -13t-13 -6q-10 0 -12 3z" />
    <glyph glyph-name="caron" unicode="&#x2c7;" horiz-adv-x="391" 
d="M197 575q-12 0 -19 7l-90 75q-19 17 -19 29q0 9 8 15.5t16 6.5q6 0 14 -6l90 -73l90 73q6 6 14 6q9 0 16 -6.5t7 -15.5q0 -13 -18 -29l-90 -75q-7 -7 -19 -7z" />
    <glyph glyph-name="breve" unicode="&#x2d8;" horiz-adv-x="368" 
d="M185 632q40 0 72 45q10 14 25 14q27 0 19 -29q-10 -35 -45 -56t-71 -21q-37 0 -74 21t-44 56q-3 13 4.5 21t16.5 8q16 0 24 -14q34 -45 73 -45z" />
    <glyph glyph-name="dotaccent" unicode="&#x2d9;" horiz-adv-x="238" 
d="M160 646q0 -18 -12 -30t-29 -12q-16 0 -28 12.5t-12 29.5q0 16 12 28.5t28 12.5q17 0 29 -12t12 -29z" />
    <glyph glyph-name="ring" unicode="&#x2da;" horiz-adv-x="571" 
d="M378 651q0 -39 -27 -66t-66 -27q-40 0 -67.5 27t-27.5 66t27.5 66.5t67.5 27.5q39 0 66 -27.5t27 -66.5zM347 651q0 26 -18 45t-44 19t-44.5 -19t-18.5 -45t18.5 -44t44.5 -18t44 18t18 44z" />
    <glyph glyph-name="ogonek" unicode="&#x2db;" horiz-adv-x="322" 
d="M244 -167q0 -31 -70 -31q-98 0 -98 84q0 48 35 100h46q-28 -58 -28 -84q0 -24 13.5 -38.5t39.5 -14.5q10 0 31 3q10 2 12 2q8 0 13.5 -6.5t5.5 -14.5z" />
    <glyph glyph-name="tilde" unicode="&#x2dc;" horiz-adv-x="375" 
d="M330 656q0 -22 -25 -38t-52 -16q-25 0 -59 18q-2 1 -11 6t-16 7t-17 2q-22 0 -45 -18q-11 -9 -19 -9q-23 0 -23 23q0 21 23.5 38.5t51.5 17.5q23 0 58 -19q24 -13 45 -14q29 0 48 17q15 12 21 12q7 0 13.5 -7.5t6.5 -19.5z" />
    <glyph glyph-name="hungarumlaut" unicode="&#x2dd;" horiz-adv-x="410" 
d="M217 615l66 98q15 24 27 24q10 0 19 -8.5t9 -18.5q0 -6 -2 -9l-72 -107q-9 -14 -21 -14q-11 0 -19.5 7.5t-8.5 17.5q0 7 2 10zM79 615l70 104q11 18 23 18t19.5 -9.5t7.5 -19.5q0 -7 -1 -8q-37 -62 -65 -98q-17 -22 -29 -22q-11 0 -19 8t-8 19q0 4 2 8z" />
    <glyph glyph-name="uni0400" unicode="&#x400;" horiz-adv-x="474" 
d="M440 35q0 -15 -9.5 -24.5t-23.5 -9.5h-271q-57 0 -57 40v624q0 16 12 28.5t29 12.5h277q13 0 22.5 -10t9.5 -24q0 -13 -9 -21.5t-23 -8.5h-252v-255h232q13 0 22.5 -9.5t9.5 -22.5t-9.5 -22.5t-22.5 -9.5h-232v-258h262q13 0 23 -9t10 -21zM217 917l86 -91q4 -4 4 -10
q0 -12 -8 -20t-18 -8q-14 0 -28 16l-81 88q-4 5 -4 12q0 11 7.5 19t16.5 8t25 -14z" />
    <glyph glyph-name="uni0401" unicode="&#x401;" horiz-adv-x="474" 
d="M440 35q0 -15 -9.5 -24.5t-23.5 -9.5h-271q-57 0 -57 40v624q0 16 12 28.5t29 12.5h277q13 0 22.5 -10t9.5 -24q0 -13 -9 -21.5t-23 -8.5h-252v-255h232q13 0 22.5 -9.5t9.5 -22.5t-9.5 -22.5t-22.5 -9.5h-232v-258h262q13 0 23 -9t10 -21zM396 847q0 -18 -11.5 -30
t-28.5 -12t-29.5 12.5t-12.5 29.5q0 16 13 28.5t29 12.5t28 -12t12 -29zM223 847q0 -18 -12 -30t-29 -12q-16 0 -28 12.5t-12 29.5q0 16 12 28.5t28 12.5q17 0 29 -12t12 -29z" />
    <glyph glyph-name="uni0402" unicode="&#x402;" horiz-adv-x="644" 
d="M168 24v619h-105q-14 0 -24 9t-10 21q0 13 10.5 23.5t23.5 10.5h360q13 0 23 -9.5t10 -23.5q0 -13 -9.5 -22t-23.5 -9h-188v-234q72 31 141 31q99 0 152.5 -56.5t53.5 -166.5q0 -104 -46 -165t-125 -61q-42 0 -69.5 15t-27.5 38q0 12 9 20.5t20 8.5q4 0 16 -7
q18 -11 44 -11q113 0 113 160q0 87 -35 124t-111 37q-80 0 -135 -32v-320q0 -14 -9.5 -23.5t-23.5 -9.5t-24 10t-10 23z" />
    <glyph glyph-name="uni0403" unicode="&#x403;" horiz-adv-x="430" 
d="M145 641v-616q0 -14 -9.5 -23.5t-22.5 -9.5q-14 0 -24 9.5t-10 23.5v641q0 16 11 27.5t28 11.5h278q13 0 22 -9.5t9 -23.5q0 -13 -9 -22t-22 -9h-251zM229 826l87 91q14 14 23 14q10 0 17.5 -8.5t7.5 -18.5q0 -8 -3 -12l-82 -87q-17 -17 -27 -17q-11 0 -19 8.5t-8 19.5
q0 5 4 10z" />
    <glyph glyph-name="uni0404" unicode="&#x404;" horiz-adv-x="482" 
d="M50 244v219q0 118 56 185.5t167 67.5q67 0 120 -24t53 -56q0 -12 -8 -20t-21 -8q-8 0 -22 9q-1 1 -5 3t-5 3q-51 34 -107 34q-87 0 -124 -49.5t-37 -144.5v-76h198q12 0 21.5 -9.5t9.5 -22.5q0 -14 -9 -23.5t-22 -9.5h-198v-78q0 -94 37 -143.5t124 -49.5q60 0 105 32
l11 7q14 10 23 10q13 0 21 -8t8 -20q0 -33 -52.5 -56.5t-120.5 -23.5q-111 0 -167 67t-56 185z" />
    <glyph glyph-name="uni0405" unicode="&#x405;" horiz-adv-x="486" 
d="M372 188q0 78 -62 110q-25 13 -80 32q-31 10 -45 15.5t-40.5 18t-40 25.5t-29 32t-22 45t-6.5 58q0 90 53.5 141t146.5 51q55 0 110.5 -14.5t55.5 -47.5q0 -13 -9 -22t-24 -9t-35 9q-51 20 -92 20q-60 0 -98 -28.5t-38 -94.5q0 -76 64 -109q35 -18 80 -32
q41 -13 66 -24.5t55.5 -33.5t45.5 -55.5t15 -79.5q0 -95 -60 -149.5t-156 -54.5q-61 0 -121 17t-60 50q0 13 9 23t21 10q4 0 37 -11q59 -25 115 -25q71 0 107.5 34.5t36.5 98.5z" />
    <glyph glyph-name="uni0406" unicode="&#x406;" horiz-adv-x="227" 
d="M80 24v659q0 13 10.5 23t23.5 10q14 0 23.5 -10t9.5 -23v-659q0 -14 -9.5 -23.5t-23.5 -9.5t-24 10t-10 23z" />
    <glyph glyph-name="uni0407" unicode="&#x407;" horiz-adv-x="227" 
d="M80 24v659q0 13 10.5 23t23.5 10q14 0 23.5 -10t9.5 -23v-659q0 -14 -9.5 -23.5t-23.5 -9.5t-24 10t-10 23zM242 847q0 -18 -11.5 -30t-28.5 -12t-29.5 12.5t-12.5 29.5q0 16 13 28.5t29 12.5t28 -12t12 -29zM69 847q0 -18 -12 -30t-29 -12q-16 0 -28 12.5t-12 29.5
q0 16 12 28.5t28 12.5q17 0 29 -12t12 -29z" />
    <glyph glyph-name="uni0408" unicode="&#x408;" horiz-adv-x="385" 
d="M309 683v-460q0 -115 -44.5 -173.5t-153.5 -58.5q-80 0 -80 38q0 15 9 23.5t19 8.5q2 0 16 -2q28 -5 47 -5q70 0 95 42t25 127v460q0 14 10 23.5t24 9.5q13 0 23 -10t10 -23z" />
    <glyph glyph-name="uni0409" unicode="&#x409;" horiz-adv-x="877" 
d="M447 578l1 -7v72h-212l-32 -477q-12 -173 -121 -173q-23 0 -35.5 1.5t-23.5 9t-11 22.5q0 17 9 25.5t21 8.5q6 0 13 -1.5t16 -1.5q58 0 65 101l37 515q2 17 11.5 25.5t20.5 8.5h276q13 0 22.5 -10t9.5 -23v-233h105q102 0 161.5 -57t59.5 -161q0 -96 -53.5 -159
t-167.5 -63h-130q-17 0 -29.5 12t-12.5 29v536zM514 377v-312h105q155 0 155 157q0 155 -155 155h-105z" />
    <glyph glyph-name="uni040A" unicode="&#x40a;" horiz-adv-x="848" 
d="M143 322v-297q0 -14 -9.5 -24t-22.5 -10q-14 0 -24 10t-10 24v658q0 13 10 23t24 10q13 0 22.5 -10t9.5 -23v-297h274v294q0 15 10 25.5t24 10.5q13 0 23 -11t10 -25v-239h105q103 0 162.5 -57t59.5 -161q0 -96 -54 -159t-168 -63h-130q-17 0 -29.5 12t-12.5 29v280h-274
zM484 377v-312h105q155 0 155 157q0 155 -155 155h-105z" />
    <glyph glyph-name="uni040B" unicode="&#x40b;" horiz-adv-x="644" 
d="M456 674q0 -13 -9.5 -22t-23.5 -9h-188v-234q72 31 141 31q99 0 152.5 -56.5t53.5 -161.5v-196q0 -14 -9.5 -24.5t-23.5 -10.5q-13 0 -23 10t-10 25v195q0 83 -35.5 119t-111.5 36q-79 0 -134 -32v-320q0 -14 -9.5 -23.5t-23.5 -9.5t-24 10t-10 23v619h-105q-14 0 -24 9
t-10 22q0 12 10.5 22.5t23.5 10.5h360q13 0 23 -9.5t10 -23.5z" />
    <glyph glyph-name="uni040C" unicode="&#x40c;" horiz-adv-x="516" 
d="M145 683v-297h72l215 314q13 16 28 16q13 0 21.5 -12t8.5 -25q0 -7 -3 -15l-217 -311l216 -311q4 -7 4 -15q0 -13 -8.5 -24.5t-21.5 -11.5q-18 0 -28 15l-217 316h-70v-297q0 -14 -9.5 -24t-23.5 -10t-23.5 10t-9.5 24v658q0 13 10 23t23 10q14 0 23.5 -10t9.5 -23z
M247 826l87 91q14 14 23 14q10 0 17.5 -8.5t7.5 -18.5q0 -8 -3 -12l-82 -87q-17 -17 -27 -17q-11 0 -19 8.5t-8 19.5q0 5 4 10z" />
    <glyph glyph-name="uni040D" unicode="&#x40d;" horiz-adv-x="589" 
d="M116 -9q-16 0 -27 10.5t-11 26.5v654q0 14 10 24t23 10q14 0 24 -10t10 -24v-551l299 564q11 21 36 21q15 0 25.5 -11t10.5 -27v-653q0 -14 -9.5 -24t-22.5 -10q-14 0 -24.5 10t-10.5 24v550l-298 -565q-11 -19 -35 -19zM226 917l86 -91q4 -4 4 -10q0 -12 -8 -20t-18 -8
q-14 0 -28 16l-81 88q-4 5 -4 12q0 11 7.5 19t16.5 8t25 -14z" />
    <glyph glyph-name="uni040E" unicode="&#x40e;" horiz-adv-x="503" 
d="M476 674l-165 -446l-19 -50t-18 -44t-20 -41l-21 -32.5t-26 -29t-29.5 -20t-36.5 -14.5t-44 -4q-14 0 -23.5 9t-9.5 22q0 12 8 20.5t22 9.5q51 2 79 25.5t53 83.5l-194 511q-2 3 -2 13q0 13 9.5 21t23.5 8q20 0 28 -22l166 -447l159 448q11 21 30 21q12 0 21.5 -9
t9.5 -23q0 -3 -1 -6v-4zM253 833q40 0 72 45q10 14 25 14q27 0 19 -29q-10 -35 -45 -56t-71 -21q-37 0 -74 21t-44 56q-3 13 4.5 21t16.5 8q16 0 24 -14q34 -45 73 -45z" />
    <glyph glyph-name="uni040F" unicode="&#x40f;" horiz-adv-x="579" 
d="M258 -130v131h-146q-14 0 -23.5 9.5t-9.5 23.5v649q0 14 10 24t23 10q14 0 23.5 -10t9.5 -24v-618h294v618q0 13 10.5 23.5t23.5 10.5t23 -10t10 -24v-649q0 -13 -10 -23t-23 -10h-148v-131q0 -13 -10 -22.5t-23 -9.5q-14 0 -24 9.5t-10 22.5z" />
    <glyph glyph-name="uni0410" unicode="&#x410;" horiz-adv-x="549" 
d="M142 163l-45 -148q-5 -9 -14.5 -16.5t-17.5 -7.5q-15 0 -25 9t-10 24q0 7 2 13l199 630q14 49 46 49q31 0 47 -49l199 -630q0 -1 0.5 -6t0.5 -7q0 -15 -10 -24t-25 -9q-9 0 -19 7t-13 17l-46 148h-269zM277 607l-116 -379h231z" />
    <glyph glyph-name="uni0411" unicode="&#x411;" horiz-adv-x="531" 
d="M416 641h-271v-220h126q102 0 161.5 -54.5t59.5 -153.5q0 -92 -53.5 -152t-167.5 -60h-150q-17 0 -29.5 12t-12.5 29v624q0 15 11 27t27 12h299q13 0 22 -9.5t9 -23.5q0 -13 -9 -22t-22 -9zM145 65h126q155 0 155 147q0 145 -155 145h-126v-292z" />
    <glyph glyph-name="uni0412" unicode="&#x412;" horiz-adv-x="542" 
d="M145 400h126q58 0 102.5 33.5t44.5 94.5q0 49 -31 81.5t-99 32.5h-143v-242zM274 335h-129v-270h133q78 0 118.5 35.5t40.5 95.5q0 66 -45 102.5t-118 36.5zM289 1h-169q-17 0 -29 12t-12 29v622q0 18 12 30t29 12h173q91 0 141 -52.5t50 -126.5q0 -105 -126 -164
q32 -12 52 -21.5t44.5 -28.5t37 -48t12.5 -68q0 -85 -58.5 -140.5t-156.5 -55.5z" />
    <glyph glyph-name="uni0413" unicode="&#x413;" horiz-adv-x="430" 
d="M145 641v-616q0 -14 -9.5 -23.5t-22.5 -9.5q-14 0 -24 9.5t-10 23.5v641q0 16 11 27.5t28 11.5h278q13 0 22 -9.5t9 -23.5q0 -13 -9 -22t-22 -9h-251z" />
    <glyph glyph-name="uni0414" unicode="&#x414;" horiz-adv-x="628" 
d="M502 705q14 0 23.5 -9.5t9.5 -23.5v-607h34q14 0 23.5 -13t9.5 -32v-130q0 -14 -9.5 -23t-23.5 -9t-23.5 9t-9.5 23v111h-440v-111q0 -13 -9.5 -22.5t-22.5 -9.5q-14 0 -23.5 9.5t-9.5 22.5v130q0 19 9.5 32t23.5 13h34q51 72 61 278l15 329q1 17 11 25t21 8h296z
M226 343q-8 -178 -65 -278h308v576h-232z" />
    <glyph glyph-name="uni0415" unicode="&#x415;" horiz-adv-x="474" 
d="M440 35q0 -15 -9.5 -24.5t-23.5 -9.5h-271q-57 0 -57 40v624q0 16 12 28.5t29 12.5h277q13 0 22.5 -10t9.5 -24q0 -13 -9 -21.5t-23 -8.5h-252v-255h232q13 0 22.5 -9.5t9.5 -22.5t-9.5 -22.5t-22.5 -9.5h-232v-258h262q13 0 23 -9t10 -21z" />
    <glyph glyph-name="uni0416" unicode="&#x416;" horiz-adv-x="746" 
d="M410 683v-297h59l197 314q10 16 28 16q21 0 28.5 -19t-1.5 -33l-191 -311l190 -311q4 -7 4 -15q0 -13 -8.5 -24.5t-21.5 -11.5q-16 0 -28 15l-197 316h-59v-297q0 -14 -9.5 -24t-23.5 -10t-24 10t-10 24v297h-58l-197 -316q-12 -15 -28 -15q-14 0 -22.5 11.5t-8.5 24.5
q0 6 5 15l189 311l-190 311q-10 17 1.5 34.5t28.5 17.5q15 0 25 -16l196 -314h59v297q0 13 10.5 23t23.5 10t23 -10t10 -23z" />
    <glyph glyph-name="uni0417" unicode="&#x417;" horiz-adv-x="485" 
d="M443 191q0 -83 -59 -141.5t-155 -58.5q-65 0 -129.5 21t-64.5 56q0 13 8.5 21.5t20.5 8.5q5 0 16 -6q31 -16 44.5 -22t43 -13.5t60.5 -7.5q72 0 110.5 39.5t38.5 101.5q0 129 -183 138q-13 1 -20.5 2.5t-15 9t-7.5 20.5q0 30 34 30q70 0 123.5 36t53.5 104q0 54 -32.5 91
t-101.5 37q-65 0 -97 -21l-22 -14q-21 -13 -35 -14q-11 0 -19.5 7.5t-8.5 19.5q0 34 62 57t125 23q90 0 140.5 -56t50.5 -131q0 -108 -134 -166q153 -53 153 -172z" />
    <glyph glyph-name="uni0418" unicode="&#x418;" horiz-adv-x="589" 
d="M116 -9q-16 0 -27 10.5t-11 26.5v654q0 14 10 24t23 10q14 0 24 -10t10 -24v-551l299 564q11 21 36 21q15 0 25.5 -11t10.5 -27v-653q0 -14 -9.5 -24t-22.5 -10q-14 0 -24.5 10t-10.5 24v550l-298 -565q-11 -19 -35 -19z" />
    <glyph glyph-name="uni0419" unicode="&#x419;" horiz-adv-x="589" 
d="M116 -9q-16 0 -27 10.5t-11 26.5v654q0 14 10 24t23 10q14 0 24 -10t10 -24v-551l299 564q11 21 36 21q15 0 25.5 -11t10.5 -27v-653q0 -14 -9.5 -24t-22.5 -10q-14 0 -24.5 10t-10.5 24v550l-298 -565q-11 -19 -35 -19zM296 833q40 0 72 45q10 14 25 14q27 0 19 -29
q-10 -35 -45 -56t-71 -21q-37 0 -74 21t-44 56q-3 13 4.5 21t16.5 8q16 0 24 -14q34 -45 73 -45z" />
    <glyph glyph-name="uni041A" unicode="&#x41a;" horiz-adv-x="516" 
d="M145 683v-297h72l215 314q13 16 28 16q13 0 21.5 -12t8.5 -25q0 -7 -3 -15l-217 -311l216 -311q4 -7 4 -15q0 -13 -8.5 -24.5t-21.5 -11.5q-18 0 -28 15l-217 316h-70v-297q0 -14 -9.5 -24t-23.5 -10t-23.5 10t-9.5 24v658q0 13 10 23t23 10q14 0 23.5 -10t9.5 -23z" />
    <glyph glyph-name="uni041B" unicode="&#x41b;" horiz-adv-x="610" 
d="M536 25h1q-1 -14 -10.5 -23t-22.5 -9q-15 0 -24.5 9t-9.5 23v616h-232l-33 -475q-6 -80 -35.5 -126.5t-84.5 -46.5q-17 0 -27 0.5t-21.5 3.5t-17 10.5t-5.5 18.5q0 17 9 25.5t22 8.5q6 0 12.5 -1.5t16.5 -1.5q58 0 65 101l37 513q1 17 10.5 25.5t20.5 8.5h297
q13 0 22.5 -9.5t9.5 -23.5v-647z" />
    <glyph glyph-name="uni041C" unicode="&#x41c;" horiz-adv-x="690" 
d="M626 680v-658q0 -13 -9.5 -22t-22.5 -9q-14 0 -24.5 9t-10.5 22v530l-179 -380q-11 -20 -32 -20q-22 0 -32 20l-180 380v-530q0 -13 -10 -22t-25 -9q-13 0 -22 9t-9 22v658q0 16 10 26t26 10q24 0 36 -23v1l207 -443l206 444v-1q12 22 36 22q14 0 24.5 -10.5t10.5 -25.5z
" />
    <glyph glyph-name="uni041D" unicode="&#x41d;" horiz-adv-x="580" 
d="M506 25q0 -14 -9.5 -24t-23.5 -10q-13 0 -23.5 10t-10.5 24v297h-294v-297q0 -14 -9.5 -24t-23.5 -10t-23.5 10t-9.5 24v658q0 13 10 23t23 10q14 0 23.5 -10t9.5 -23v-297h294v297q0 13 10.5 23t23.5 10t23 -10t10 -23v-658z" />
    <glyph glyph-name="uni041E" unicode="&#x41e;" horiz-adv-x="551" 
d="M278 -9q-109 0 -168.5 71t-59.5 182v219q0 112 56 182.5t172 70.5q115 0 171 -70.5t56 -182.5v-219q0 -111 -59 -182t-168 -71zM278 652q-161 0 -161 -189v-219q0 -87 40.5 -138t120.5 -51t120 51t40 138v219q0 189 -160 189z" />
    <glyph glyph-name="uni041F" unicode="&#x41f;" horiz-adv-x="579" 
d="M506 25q0 -14 -9.5 -24t-23.5 -10q-13 0 -23.5 10t-10.5 24v616h-294v-616q0 -14 -9.5 -24t-23.5 -10t-23.5 10t-9.5 24v646q0 14 10 24t23 10h361q13 0 23 -10.5t10 -23.5v-646z" />
    <glyph glyph-name="uni0420" unicode="&#x420;" horiz-adv-x="530" 
d="M271 267h-126v-241q0 -14 -9.5 -24.5t-23.5 -10.5q-13 0 -23 10t-10 25v638q0 17 12.5 29.5t29.5 12.5h150q114 0 167.5 -63t53.5 -159q0 -104 -59 -160.5t-162 -56.5zM145 642v-311h126q155 0 155 154q0 157 -155 157h-126z" />
    <glyph glyph-name="uni0421" unicode="&#x421;" horiz-adv-x="481" 
d="M50 244v219q0 118 56 185.5t167 67.5q67 0 120 -24t53 -56q0 -12 -8 -20t-21 -8q-8 0 -22 9q-1 1 -5 3t-5 3q-51 34 -107 34q-87 0 -124 -49.5t-37 -144.5v-219q0 -94 37 -143.5t124 -49.5q60 0 105 32l11 7q14 10 23 10q13 0 21 -8t8 -20q0 -33 -52.5 -56.5
t-120.5 -23.5q-111 0 -167 67t-56 185z" />
    <glyph glyph-name="uni0422" unicode="&#x422;" horiz-adv-x="483" 
d="M210 24v618h-146q-15 0 -24.5 9t-9.5 22q0 12 10 22.5t24 10.5h359q14 0 24 -9.5t10 -23.5q0 -13 -10 -22t-24 -9h-147v-618q0 -14 -9.5 -23.5t-22.5 -9.5q-14 0 -24 9.5t-10 23.5z" />
    <glyph glyph-name="uni0423" unicode="&#x423;" horiz-adv-x="503" 
d="M476 674l-165 -446l-19 -50t-18 -44t-20 -41l-21 -32.5t-26 -29t-29.5 -20t-36.5 -14.5t-44 -4q-14 0 -23.5 9t-9.5 22q0 12 8 20.5t22 9.5q51 2 79 25.5t53 83.5l-194 511q-2 3 -2 13q0 13 9.5 21t23.5 8q20 0 28 -22l166 -447l159 448q11 21 30 21q12 0 21.5 -9
t9.5 -23q0 -3 -1 -6v-4z" />
    <glyph glyph-name="uni0424" unicode="&#x424;" horiz-adv-x="750" 
d="M345 24v141h-73q-103 0 -163 56.5t-60 160.5q0 97 54 160t169 63h73v78q0 13 10.5 23t23.5 10q14 0 23.5 -10t9.5 -23v-78h74q115 0 168.5 -63t53.5 -160q0 -104 -59.5 -160.5t-162.5 -56.5h-74v-141q0 -14 -10 -23.5t-23 -9.5q-14 0 -24 10t-10 23zM486 540h-74v-311h74
q156 0 156 154q0 157 -156 157zM272 229h73v311h-73q-157 0 -157 -157q0 -154 157 -154z" />
    <glyph glyph-name="uni0425" unicode="&#x425;" horiz-adv-x="483" 
d="M244 319l-170 -303q-14 -25 -32 -25q-12 0 -21.5 10.5t-9.5 23.5q0 11 5 18l188 325l-173 297l1 -1q-5 10 -5 20q0 12 9.5 22t21.5 10q19 0 36 -32l150 -268l149 268h-1q18 32 39 32q11 0 19.5 -10t8.5 -23q0 -9 -4 -19l1 1l-172 -297l188 -325q4 -8 4 -18
q0 -13 -9.5 -23.5t-20.5 -10.5q-17 0 -33 25z" />
    <glyph glyph-name="uni0426" unicode="&#x426;" horiz-adv-x="604" 
d="M112 1q-14 0 -24 9.5t-10 23.5v648q0 14 10 24t24 10q13 0 23 -10t10 -24v-617h294v617q0 14 10.5 24t23.5 10t22.5 -10t9.5 -24v-617h49q13 0 23 -10t10 -23v-161q0 -13 -9.5 -23t-23.5 -10q-13 0 -23 10t-10 23v130h-409z" />
    <glyph glyph-name="uni0427" unicode="&#x427;" horiz-adv-x="547" 
d="M406 361v319q0 14 10 25t24 11q13 0 22.5 -10.5t9.5 -25.5v-654q0 -15 -9.5 -25t-22.5 -10q-14 0 -24 10.5t-10 24.5v270q-68 -29 -140 -29q-99 0 -153.5 56t-54.5 161v196q0 14 10.5 25t23.5 11t23 -10.5t10 -25.5v-195q0 -82 36 -118t112 -36t133 30z" />
    <glyph glyph-name="uni0428" unicode="&#x428;" horiz-adv-x="760" 
d="M689 682v-648q0 -13 -10 -23t-23 -10h-545q-13 0 -23 9.5t-10 23.5v648q0 14 10 24t23 10q14 0 23.5 -10t9.5 -24v-617h205v618q0 13 10.5 23t23.5 10t23 -10t10 -23v-618h206v617q0 14 10 24t24 10q13 0 23 -10t10 -24z" />
    <glyph glyph-name="uni0429" unicode="&#x429;" horiz-adv-x="784" 
d="M688 682v-617h49q13 0 23 -10t10 -23v-161q0 -14 -9.5 -23.5t-23.5 -9.5q-13 0 -23.5 10t-10.5 23v130h-592q-14 0 -24 9.5t-10 23.5v648q0 14 10 24t24 10q13 0 23 -10t10 -24v-617h205v618q0 13 10 23t24 10q13 0 22.5 -10t9.5 -23v-618h207v617q0 13 10 23.5t23 10.5
q14 0 23.5 -10t9.5 -24z" />
    <glyph glyph-name="uni042A" unicode="&#x42a;" horiz-adv-x="654" 
d="M200 42v601h-147q-14 0 -23.5 9t-9.5 22q0 14 9.5 23.5t23.5 9.5h175q16 0 27 -12t11 -27v-227h126q103 0 162.5 -57t59.5 -161q0 -96 -54 -159t-168 -63h-150q-17 0 -29.5 12t-12.5 29zM266 65h126q155 0 155 157q0 155 -155 155h-126v-312z" />
    <glyph glyph-name="uni042B" unicode="&#x42b;" horiz-adv-x="725" 
d="M144 441h126q103 0 162.5 -57t59.5 -161q0 -96 -54 -159t-168 -63h-150q-17 0 -29.5 12t-12.5 29v638q0 15 10 25.5t23 10.5q14 0 23.5 -10.5t9.5 -25.5v-239zM144 377v-312h126q155 0 155 157q0 155 -155 155h-126zM587 24v659q0 13 10 23t23 10q14 0 23.5 -10t9.5 -23
v-659q0 -14 -9.5 -23.5t-23.5 -9.5t-23.5 9.5t-9.5 23.5z" />
    <glyph glyph-name="uni042C" unicode="&#x42c;" horiz-adv-x="535" 
d="M145 441h126q103 0 162 -57t59 -161q0 -96 -53.5 -159t-167.5 -63h-150q-17 0 -29.5 12t-12.5 29v638q0 15 10 25.5t23 10.5q14 0 23.5 -10.5t9.5 -25.5v-239zM145 377v-312h126q155 0 155 157q0 155 -155 155h-126z" />
    <glyph glyph-name="uni042D" unicode="&#x42d;" horiz-adv-x="498" 
d="M451 463v-219q0 -118 -55.5 -185t-166.5 -67q-68 0 -121 24t-53 56q0 11 8.5 19.5t21.5 8.5q6 0 24 -10q2 -1 5.5 -4t4.5 -3q45 -32 105 -32q87 0 123.5 49.5t36.5 143.5v78h-197q-13 0 -22 9.5t-9 23.5q0 13 9.5 22.5t21.5 9.5h197v76q0 95 -36.5 144.5t-123.5 49.5
q-57 0 -106 -34l-10 -6q-14 -9 -23 -9q-13 0 -21.5 8t-8.5 20q0 32 53 56t121 24q111 0 166.5 -67t55.5 -186z" />
    <glyph glyph-name="uni042E" unicode="&#x42e;" horiz-adv-x="758" 
d="M499 -9q-104 0 -160.5 68.5t-56.5 174.5v89h-138v-298q0 -14 -9.5 -24t-23.5 -10t-24 10t-10 24v658q0 13 10.5 23t23.5 10q14 0 23.5 -10t9.5 -23v-297h138v87q0 108 53 175.5t164 67.5t164 -67.5t53 -175.5v-239q0 -106 -56.5 -174.5t-160.5 -68.5zM499 652
q-151 0 -151 -179v-239q0 -82 38 -130.5t113 -48.5t113 48.5t38 130.5v239q0 179 -151 179z" />
    <glyph glyph-name="uni042F" unicode="&#x42f;" horiz-adv-x="561" 
d="M76 509q0 83 51 139.5t164 56.5h158q16 0 27 -12.5t11 -29.5v-637q0 -15 -9 -25t-22 -10q-14 0 -24.5 10.5t-10.5 24.5v292h-109l-182 -311q-10 -15 -28 -15q-11 0 -24 9t-13 21t5 20l168 278q-76 15 -119 63.5t-43 125.5zM142 509q0 -63 37.5 -95.5t109.5 -32.5h132v260
h-126q-153 0 -153 -132z" />
    <glyph glyph-name="uni0430" unicode="&#x430;" horiz-adv-x="482" 
d="M335 272v69q0 119 -117 119q-45 0 -81 -22q-12 -8 -24 -8q-20 0 -22 26q-3 29 38.5 44t98.5 15q90 0 131 -50t41 -151v-226q0 -39 27 -39q2 0 4.5 0.5t3.5 0.5q22 0 22 -27t-38 -27q-47 0 -76 57q-63 -60 -143 -60q-74 0 -112 39.5t-38 107.5v4q0 146 174 146
q47 0 111 -18zM223 237q-63 0 -86 -25t-23 -69v-4q0 -90 99 -90q64 0 122 49v120q-58 19 -112 19z" />
    <glyph glyph-name="uni0431" unicode="&#x431;" horiz-adv-x="465" 
d="M50 484q0 196 198 216q14 2 18 2q37 2 91 27q6 3 11 3q12 0 20 -9t8 -21q0 -47 -149 -59q-25 -2 -41.5 -6.5t-40.5 -18.5t-37 -46.5t-13 -81.5v-77q57 73 136 73q78 0 123.5 -50t45.5 -126v-142q0 -77 -48.5 -126t-136.5 -49q-87 0 -136 49t-49 126v316zM235 52
q59 0 89.5 30.5t30.5 85.5v143q0 117 -114 117q-58 0 -91 -30t-35 -82v-148q0 -55 31 -85.5t89 -30.5z" />
    <glyph glyph-name="uni0432" unicode="&#x432;" horiz-adv-x="468" 
d="M413 368q0 -76 -87 -109q97 -36 97 -120q0 -63 -42 -100.5t-121 -37.5h-148q-14 0 -23.5 9t-9.5 23v440q0 14 9.5 23.5t23.5 9.5h138q80 0 121.5 -38t41.5 -100zM359 142q0 89 -112 89h-103v-176h114q101 0 101 87zM144 452v-169h106q99 0 99 81q0 88 -101 88h-104z" />
    <glyph glyph-name="uni0433" unicode="&#x433;" horiz-adv-x="372" 
d="M144 449v-424q0 -13 -9.5 -22.5t-22.5 -9.5q-14 0 -23.5 9t-9.5 23v452q0 13 8.5 21t21.5 8h232q12 0 20.5 -8.5t8.5 -20.5q0 -11 -8.5 -19.5t-20.5 -8.5h-197z" />
    <glyph glyph-name="uni0434" unicode="&#x434;" horiz-adv-x="538" 
d="M418 506q13 0 22.5 -9.5t9.5 -23.5v-419h36q13 0 22.5 -9.5t9.5 -23.5v-132q0 -13 -9 -22.5t-23 -9.5t-23.5 9.5t-9.5 22.5v112h-361v-112q0 -13 -9.5 -22.5t-22.5 -9.5q-14 0 -23.5 9t-9.5 23v132q0 14 9.5 23.5t23.5 9.5h22q50 50 58 210l9 209q2 17 11.5 25t20.5 8
h237zM201 264q-5 -131 -53 -210h237v399h-177z" />
    <glyph glyph-name="uni0435" unicode="&#x435;" horiz-adv-x="433" 
d="M236 48q45 0 110 29q6 3 11 3q12 0 20 -8.5t8 -19.5q0 -30 -52.5 -44.5t-106.5 -14.5q-82 0 -129 46t-47 117v192q0 74 48 120.5t134 46.5q80 0 121 -42.5t41 -117.5q0 -145 -166 -145q-59 0 -113 11v-71q0 -47 31 -74.5t90 -27.5zM330 355q0 103 -101 103
q-54 0 -84 -27.5t-30 -74.5v-85q57 -8 117 -8q57 0 77.5 25t20.5 67z" />
    <glyph glyph-name="uni0436" unicode="&#x436;" horiz-adv-x="608" 
d="M341 25q0 -13 -9.5 -22.5t-22.5 -9.5q-14 0 -23.5 9t-9.5 23v211h-50l-140 -228q-12 -15 -27 -15q-29 0 -31 26q0 11 5 19l131 213l-133 218q-3 3 -3 15q2 27 31 27q17 0 27 -16l127 -206h63v190q0 14 9.5 23.5t23.5 9.5q13 0 22.5 -10t9.5 -23v-190h62l128 206
q9 16 27 16q29 0 31 -27h-1q0 -14 -4 -19l-131 -214l131 -213q4 -5 4 -19h1q-2 -26 -31 -26q-17 0 -27 15l-140 228h-50v-211z" />
    <glyph glyph-name="uni0437" unicode="&#x437;" horiz-adv-x="408" 
d="M353 375q0 -99 -93 -116v-1q104 -19 104 -125q0 -65 -42.5 -102.5t-125.5 -37.5q-54 0 -103 12t-49 40q0 11 8.5 20t25.5 9q3 0 4 -1q61 -25 117 -25q102 0 102 90q0 15 -3.5 27t-15 27t-39.5 25t-70 12q-43 2 -43 28q0 11 7 16.5t13 7t21 2.5q120 11 120 97
q0 80 -102 80q-29 0 -62 -12t-43 -12q-12 0 -20.5 8t-8.5 20q0 26 43.5 38.5t93.5 12.5q79 0 120 -38t41 -102z" />
    <glyph glyph-name="uni0438" unicode="&#x438;" horiz-adv-x="530" 
d="M116 -9q-16 0 -27 10.5t-11 26.5v450q0 14 9.5 24.5t22.5 10.5q14 0 23.5 -10.5t9.5 -24.5v-374l243 388q13 21 37 21q15 0 25 -11t10 -27v-450q0 -14 -9.5 -24t-22.5 -10q-14 0 -23.5 10t-9.5 24v373l-241 -388q-14 -19 -36 -19z" />
    <glyph glyph-name="uni0439" unicode="&#x439;" horiz-adv-x="530" 
d="M116 -9q-16 0 -27 10.5t-11 26.5v450q0 14 9.5 24.5t22.5 10.5q14 0 23.5 -10.5t9.5 -24.5v-374l243 388q13 21 37 21q15 0 25 -11t10 -27v-450q0 -14 -9.5 -24t-22.5 -10q-14 0 -23.5 10t-9.5 24v373l-241 -388q-14 -19 -36 -19zM267 632q40 0 72 45q10 14 25 14
q27 0 19 -29q-10 -35 -45 -56t-71 -21q-37 0 -74 21t-44 56q-3 13 4.5 21t16.5 8q16 0 24 -14q34 -45 73 -45z" />
    <glyph glyph-name="uni043A" unicode="&#x43a;" horiz-adv-x="436" 
d="M144 25q0 -13 -9.5 -22.5t-22.5 -9.5q-14 0 -23.5 9t-9.5 23v454q0 14 9.5 23.5t23.5 9.5q13 0 22.5 -10t9.5 -23v-190h75l136 206q10 16 27 16q13 0 21.5 -7.5t8.5 -19.5q0 -11 -5 -19l-144 -214l144 -213q6 -8 6 -19q1 -12 -8.5 -19t-22.5 -7q-18 0 -27 15l-151 228
h-60v-211z" />
    <glyph glyph-name="uni043B" unicode="&#x43b;" horiz-adv-x="524" 
d="M453 25q0 -13 -9.5 -22.5t-22.5 -9.5q-14 0 -23.5 9t-9.5 23v428h-177l-24 -291q-13 -166 -116 -166q-18 0 -28 1t-19 7.5t-9 19.5q0 16 9 24t22 8h6q1 0 3 -0.5t4 -0.5q59 0 66 99l27 318q2 17 11.5 25.5t20.5 8.5h237q13 0 22.5 -9.5t9.5 -23.5v-448z" />
    <glyph glyph-name="uni043C" unicode="&#x43c;" horiz-adv-x="640" 
d="M325 87h-2q-20 0 -32 20l-150 268v-350q0 -13 -9.5 -22.5t-22.5 -9.5t-22 9.5t-9 22.5v451q0 16 10 26t26 10q18 0 34 -23l176 -322l176 322q14 23 34 23q15 0 25 -10t10 -26v-451q0 -13 -9 -22.5t-22 -9.5q-14 0 -23.5 9.5t-9.5 22.5v350l-148 -268q-12 -20 -32 -20z
" />
    <glyph glyph-name="uni043D" unicode="&#x43d;" horiz-adv-x="514" 
d="M143 25q0 -13 -9.5 -22.5t-22.5 -9.5q-14 0 -23.5 9.5t-9.5 22.5v454q0 13 10 23t23 10t22.5 -9.5t9.5 -23.5v-190h234v190q0 13 9.5 23t23.5 10q13 0 22.5 -9.5t9.5 -23.5v-454q0 -13 -9 -22.5t-23 -9.5t-23.5 9.5t-9.5 22.5v211h-234v-211z" />
    <glyph glyph-name="uni043E" unicode="&#x43e;" horiz-adv-x="465" 
d="M235 -7q-87 0 -136 49t-49 126v172q0 77 49 126.5t136 49.5q88 0 136.5 -49.5t48.5 -126.5v-172q0 -77 -48.5 -126t-136.5 -49zM235 52q59 0 89.5 30.5t30.5 85.5v173q0 55 -30.5 86t-89.5 31q-58 0 -89 -31t-31 -86v-173q0 -55 31 -85.5t89 -30.5z" />
    <glyph glyph-name="uni043F" unicode="&#x43f;" horiz-adv-x="504" 
d="M143 25q0 -13 -9 -22.5t-22 -9.5q-14 0 -23.5 9t-9.5 23v448q0 14 9.5 23.5t23.5 9.5h288q13 0 22.5 -9.5t9.5 -23.5v-448q0 -13 -9 -22.5t-23 -9.5t-23.5 9.5t-9.5 22.5v428h-224v-428z" />
    <glyph glyph-name="uni0440" unicode="&#x440;" horiz-adv-x="478" 
d="M270 -6q-56 0 -122 21v-199q0 -13 -8.5 -22t-23.5 -9q-16 0 -24.5 9t-8.5 22v557q0 50 -18 76q-6 7 -6 17q0 12 8.5 20.5t20.5 8.5q19 0 38 -28q89 48 153 48q75 0 115 -50.5t40 -136.5v-134q0 -95 -37.5 -147.5t-126.5 -52.5zM148 373v-301q54 -24 112 -24q59 0 84 34.5
t25 111.5v134q0 131 -107 131q-54 0 -119 -40q5 -25 5 -46z" />
    <glyph glyph-name="uni0441" unicode="&#x441;" horiz-adv-x="390" 
d="M50 174v156q0 81 44.5 131.5t133.5 50.5q46 0 90.5 -13t44.5 -42q0 -11 -8 -19t-19 -8q-5 0 -15 2h1q-48 25 -86 25q-121 0 -121 -127v-156q0 -126 121 -126q38 0 86 24h-1q11 3 15 3q11 0 19 -8.5t8 -19.5q0 -28 -44.5 -41t-90.5 -13q-89 0 -133.5 50t-44.5 131z" />
    <glyph glyph-name="uni0442" unicode="&#x442;" horiz-adv-x="408" 
d="M239 445v-420q0 -13 -9.5 -22.5t-22.5 -9.5q-14 0 -23.5 9.5t-9.5 22.5v420h-114q-13 0 -21.5 9t-8.5 21q0 13 8.5 22t21.5 9h294q13 0 21 -8.5t8 -22.5q0 -12 -8.5 -21t-20.5 -9h-115z" />
    <glyph glyph-name="uni0443" unicode="&#x443;" horiz-adv-x="412" 
d="M399 469l-126 -409q-20 -65 -36.5 -104.5t-41.5 -79.5t-59 -59t-78 -19q-15 0 -24.5 8.5t-9.5 22.5q0 12 8 21t22 10q52 2 80 31t53 104l-164 476q-3 3 -3 11q0 13 9.5 21.5t23.5 8.5q20 0 29 -21l136 -415l120 415q11 21 30 21q13 0 22.5 -9.5t9.5 -23.5q0 -3 -0.5 -6
t-0.5 -4z" />
    <glyph glyph-name="uni0444" unicode="&#x444;" horiz-adv-x="585" 
d="M262 -189v182q-102 0 -157.5 63t-55.5 164v78q0 96 55.5 156.5t157.5 60.5v185q0 13 10 23t23 10t22.5 -9.5t9.5 -23.5v-185q104 0 160 -60t56 -157v-78q0 -101 -56 -164t-158 -63l-2 -182q0 -13 -9.5 -22.5t-22.5 -9.5t-23 9.5t-10 22.5zM338 457h-11v-405
q74 0 112.5 44t38.5 124v79q0 74 -36 116t-104 42zM262 52v405q-73 0 -110.5 -42t-37.5 -116v-79q0 -80 37.5 -124t110.5 -44z" />
    <glyph glyph-name="uni0445" unicode="&#x445;" horiz-adv-x="431" 
d="M184 259l-138 207q-4 5 -4 15q0 13 10 22t21 9q17 0 32 -23l115 -178l115 178q15 23 32 23q11 0 21 -9t10 -22q0 -10 -4 -15l-138 -207l148 -219q3 -5 3 -13q0 -14 -9.5 -24t-23.5 -10q-17 0 -33 23l-123 189l-128 -196q-10 -16 -26 -16q-14 0 -24 9t-10 23q0 6 4 13z
" />
    <glyph glyph-name="uni0446" unicode="&#x446;" horiz-adv-x="529" 
d="M442 479v-425h36q13 0 22.5 -10t9.5 -23v-132q0 -13 -9.5 -22.5t-22.5 -9.5q-14 0 -23.5 9t-9.5 23v112h-334q-14 0 -23.5 9t-9.5 23v446q0 14 9.5 23.5t23.5 9.5q13 0 22.5 -9.5t9.5 -23.5v-425h234v425q0 14 9.5 23.5t23.5 9.5q13 0 22.5 -9.5t9.5 -23.5z" />
    <glyph glyph-name="uni0447" unicode="&#x447;" horiz-adv-x="468" 
d="M115 479v-145q0 -42 20.5 -67t78.5 -25q46 0 115 16v221q0 13 9.5 23t23.5 10q13 0 22.5 -9.5t9.5 -23.5v-454q0 -13 -9 -22.5t-23 -9.5t-23.5 9.5t-9.5 22.5v180q-60 -15 -112 -15q-167 0 -167 144v145q0 13 10 23t23 10t22.5 -9.5t9.5 -23.5z" />
    <glyph glyph-name="uni0448" unicode="&#x448;" horiz-adv-x="705" 
d="M637 479v-446q0 -13 -9.5 -22.5t-22.5 -9.5h-495q-14 0 -23.5 9t-9.5 23v446q0 14 9.5 23.5t23.5 9.5q13 0 22.5 -9.5t9.5 -23.5v-425h182v425q0 13 10 23t23 10t22.5 -9.5t9.5 -23.5v-425h183v425q0 14 9.5 23.5t23.5 9.5q13 0 22.5 -9.5t9.5 -23.5z" />
    <glyph glyph-name="uni0449" unicode="&#x449;" horiz-adv-x="718" 
d="M636 479v-425h36q13 0 22.5 -9.5t9.5 -23.5v-132q0 -13 -9 -22.5t-23 -9.5t-23.5 9.5t-9.5 22.5v112h-530q-14 0 -23.5 9.5t-9.5 22.5v446q0 14 9.5 23.5t23.5 9.5t23 -9.5t9 -23.5v-425h183v425q0 14 9.5 23.5t23.5 9.5q13 0 22.5 -10t9.5 -23v-425h182v425
q0 14 9.5 23.5t23.5 9.5t23 -9.5t9 -23.5z" />
    <glyph glyph-name="uni044A" unicode="&#x44a;" horiz-adv-x="528" 
d="M136 449h-92q-13 0 -21.5 8.5t-8.5 19.5q0 12 9 20.5t21 8.5h128q13 0 21 -8t8 -21v-183h114q176 0 176 -150q0 -65 -42 -104t-121 -39h-159q-14 0 -23.5 9.5t-9.5 22.5v416zM315 241h-114v-186h125q101 0 101 92q0 94 -112 94z" />
    <glyph glyph-name="uni044B" unicode="&#x44b;" horiz-adv-x="654" 
d="M142 479v-185h114q176 0 176 -150q0 -65 -42 -104t-121 -39h-159q-14 0 -23.5 9.5t-9.5 22.5v446q0 13 9.5 23t23.5 10q13 0 22.5 -9.5t9.5 -23.5zM584 25q0 -13 -9 -22.5t-23 -9.5t-23 9.5t-9 22.5v454q0 14 9.5 23.5t22.5 9.5t22.5 -9.5t9.5 -23.5v-454zM256 241h-114
v-186h125q101 0 101 92q0 94 -112 94z" />
    <glyph glyph-name="uni044C" unicode="&#x44c;" horiz-adv-x="472" 
d="M143 479v-185h114q176 0 176 -150q0 -65 -42 -104t-121 -39h-159q-13 0 -22.5 9.5t-9.5 22.5v446q0 14 9.5 23.5t22.5 9.5t22.5 -9.5t9.5 -23.5zM257 241h-114v-186h125q101 0 101 92q0 94 -112 94z" />
    <glyph glyph-name="uni044D" unicode="&#x44d;" horiz-adv-x="393" 
d="M282 227h-165q-13 0 -21.5 8t-8.5 20t8.5 20t21.5 8h165v36q0 138 -110 138q-37 0 -97 -25h1q-8 -2 -14 -2q-11 0 -19.5 8t-8.5 19q0 29 48 42t99 13q82 0 123.5 -53t41.5 -140v-135q0 -86 -41.5 -138.5t-123.5 -52.5q-51 0 -99 13t-48 41q0 11 8.5 19.5t19.5 8.5
q5 0 14 -3h-1q56 -24 97 -24q110 0 110 136v43z" />
    <glyph glyph-name="uni044E" unicode="&#x44e;" horiz-adv-x="681" 
d="M142 25q0 -13 -9.5 -22.5t-22.5 -9.5q-14 0 -23.5 9t-9.5 23v454q0 14 9.5 23.5t23.5 9.5q13 0 22.5 -10t9.5 -23v-190h129v50q0 77 49 126.5t136 49.5q88 0 136.5 -49.5t48.5 -126.5v-171q0 -77 -48.5 -126t-136.5 -49q-87 0 -136 49t-49 126v68h-129v-211zM456 52
q59 0 89.5 30.5t30.5 85.5v172q0 55 -30.5 86t-89.5 31q-58 0 -89 -31t-31 -86v-172q0 -55 31 -85.5t89 -30.5z" />
    <glyph glyph-name="uni044F" unicode="&#x44f;" horiz-adv-x="487" 
d="M382 -7q-14 0 -23.5 9t-9.5 23v188h-101l-135 -205q-12 -15 -27 -15q-29 0 -31 26q0 12 5 19l120 178q-121 27 -121 146q0 66 42 105t122 39h159q13 0 22.5 -10t9.5 -23v-448q0 -13 -9.5 -22.5t-22.5 -9.5zM123 359q0 -93 114 -93h112v186h-124q-102 0 -102 -93z" />
    <glyph glyph-name="uni0450" unicode="&#x450;" horiz-adv-x="433" 
d="M236 48q45 0 110 29q6 3 11 3q12 0 20 -8.5t8 -19.5q0 -30 -52.5 -44.5t-106.5 -14.5q-82 0 -129 46t-47 117v192q0 74 48 120.5t134 46.5q80 0 121 -42.5t41 -117.5q0 -145 -166 -145q-59 0 -113 11v-71q0 -47 31 -74.5t90 -27.5zM330 355q0 103 -101 103
q-54 0 -84 -27.5t-30 -74.5v-85q57 -8 117 -8q57 0 77.5 25t20.5 67zM175 716l86 -91q4 -4 4 -10q0 -12 -8 -20t-18 -8q-14 0 -28 16l-81 88q-4 5 -4 12q0 11 7.5 19t16.5 8t25 -14z" />
    <glyph glyph-name="uni0451" unicode="&#x451;" horiz-adv-x="433" 
d="M236 48q45 0 110 29q6 3 11 3q12 0 20 -8.5t8 -19.5q0 -30 -52.5 -44.5t-106.5 -14.5q-82 0 -129 46t-47 117v192q0 74 48 120.5t134 46.5q80 0 121 -42.5t41 -117.5q0 -145 -166 -145q-59 0 -113 11v-71q0 -47 31 -74.5t90 -27.5zM330 355q0 103 -101 103
q-54 0 -84 -27.5t-30 -74.5v-85q57 -8 117 -8q57 0 77.5 25t20.5 67zM366 646q0 -18 -11.5 -30t-28.5 -12t-29.5 12.5t-12.5 29.5q0 16 13 28.5t29 12.5t28 -12t12 -29zM193 646q0 -18 -12 -30t-29 -12q-16 0 -28 12.5t-12 29.5q0 16 12 28.5t28 12.5q17 0 29 -12t12 -29z
" />
    <glyph glyph-name="uni0452" unicode="&#x452;" horiz-adv-x="582" 
d="M445 14v285q0 64 -23 95t-74 31q-77 0 -127 -66v-334q0 -13 -9 -22.5t-22 -9.5q-14 0 -23.5 9t-9.5 23v563h-97q-13 0 -22 8.5t-9 20.5q0 13 9 22t22 9h97v58q0 13 9 23t23 10q13 0 22.5 -9.5t9.5 -23.5v-58h95q13 0 21 -9t8 -22q0 -12 -8 -20.5t-21 -8.5h-95v-156
q66 52 137 52q76 0 114 -49.5t38 -134.5v-281q0 -95 -36.5 -154.5t-101.5 -72.5h-19q-21 0 -26 20q-6 29 28 36q45 14 67.5 52.5t22.5 113.5z" />
    <glyph glyph-name="uni0453" unicode="&#x453;" horiz-adv-x="372" 
d="M144 449v-424q0 -13 -9.5 -22.5t-22.5 -9.5q-14 0 -23.5 9t-9.5 23v452q0 13 8.5 21t21.5 8h232q12 0 20.5 -8.5t8.5 -20.5q0 -11 -8.5 -19.5t-20.5 -8.5h-197zM200 625l87 91q14 14 23 14q10 0 17.5 -8.5t7.5 -18.5q0 -7 -3 -12l-82 -87q-17 -17 -27 -17q-11 0 -19 8.5
t-8 19.5q0 5 4 10z" />
    <glyph glyph-name="uni0454" unicode="&#x454;" horiz-adv-x="390" 
d="M281 227h-166v-43q0 -136 111 -136q42 0 96 24h-1q11 3 15 3q11 0 19 -8.5t8 -19.5q0 -28 -48 -41t-98 -13q-83 0 -125 52.5t-42 138.5v135q0 87 42 140t125 53q50 0 98 -13t48 -42q0 -11 -8 -19t-19 -8q-5 0 -15 2h1q-58 25 -96 25q-111 0 -111 -138v-36h166q13 0 21 -8
t8 -20t-8 -20t-21 -8z" />
    <glyph glyph-name="uni0455" unicode="&#x455;" horiz-adv-x="416" 
d="M59 374q0 65 41 103t118 38q48 0 88.5 -12t40.5 -38q0 -12 -8 -20.5t-21 -8.5q-5 0 -15 4q-42 20 -82 20q-99 0 -99 -81q0 -27 11.5 -43t41.5 -32q16 -8 48.5 -20.5t52.5 -22t42 -26t33 -41.5t11 -59q0 -67 -42 -104.5t-123 -37.5q-52 0 -98.5 12t-46.5 39q0 12 8.5 21
t22.5 9q3 0 6 -1q63 -25 108 -25q102 0 102 84q0 51 -41 73q-17 9 -49.5 20.5t-55 21.5t-46 26t-36 41.5t-12.5 59.5z" />
    <glyph glyph-name="uni0456" unicode="&#x456;" horiz-adv-x="245" 
d="M165 681q0 -17 -12.5 -29t-28.5 -12q-18 0 -30 12t-12 29q0 18 12 30t30 12q17 0 29 -12t12 -30zM156 25q0 -13 -9.5 -22.5t-22.5 -9.5q-14 0 -23.5 9t-9.5 23v454q0 14 9.5 23.5t23.5 9.5q13 0 22.5 -10t9.5 -23v-454z" />
    <glyph glyph-name="uni0457" unicode="&#x457;" horiz-adv-x="245" 
d="M156 25q0 -13 -9.5 -22.5t-22.5 -9.5q-14 0 -23.5 9t-9.5 23v454q0 14 9.5 23.5t23.5 9.5q13 0 22.5 -10t9.5 -23v-454zM267 631q0 -20 -13.5 -34t-32.5 -14t-33.5 14.5t-14.5 33.5q0 18 14.5 32t33.5 14t32.5 -13.5t13.5 -32.5zM73 631q0 -20 -13.5 -34t-32.5 -14
t-32.5 14t-13.5 34q0 18 13.5 32t32.5 14t32.5 -13.5t13.5 -32.5z" />
    <glyph glyph-name="uni0458" unicode="&#x458;" horiz-adv-x="245" 
d="M170 479v-502q0 -75 -37.5 -124.5t-101.5 -60.5h-18q-22 0 -27 20q-3 16 5 24.5t20 10.5q47 11 70.5 39.5t23.5 86.5v506q0 14 9.5 23.5t23.5 9.5q13 0 22.5 -10t9.5 -23zM179 681q0 -17 -12.5 -29t-28.5 -12q-18 0 -30.5 12t-12.5 29q0 18 12.5 30t30.5 12q17 0 29 -12
t12 -30z" />
    <glyph glyph-name="uni0459" unicode="&#x459;" horiz-adv-x="737" 
d="M404 506q13 0 22.5 -10t9.5 -23v-179h92q177 0 177 -150q0 -65 -42 -104t-121 -39h-138q-14 0 -23.5 9t-9.5 23v420h-157l-24 -291q-13 -166 -116 -166q-18 0 -28 1t-19 7.5t-9 19.5q0 15 9.5 23.5t21.5 8.5h6q1 0 3 -0.5t4 -0.5q59 0 66 99l27 318q2 17 11.5 25.5
t20.5 8.5h217zM528 241h-92v-186h104q101 0 101 92q0 94 -113 94z" />
    <glyph glyph-name="uni045A" unicode="&#x45a;" horiz-adv-x="722" 
d="M142 25q0 -13 -9.5 -22.5t-22.5 -9.5q-14 0 -23.5 9t-9.5 23v454q0 14 9.5 23.5t23.5 9.5q13 0 22.5 -10t9.5 -23v-190h213v190q0 14 9.5 23.5t23.5 9.5q13 0 22.5 -10t9.5 -23v-190h93q176 0 176 -145q0 -65 -42 -104t-121 -39h-138q-14 0 -23.5 9t-9.5 23v203h-213
v-211zM513 236h-93v-181h104q101 0 101 92q0 89 -112 89z" />
    <glyph glyph-name="uni045B" unicode="&#x45b;" horiz-adv-x="582" 
d="M345 617q0 -12 -8 -20.5t-21 -8.5h-95v-156q66 52 137 52q76 0 114 -44t38 -119v-296q0 -13 -9 -22.5t-23 -9.5t-23.5 9.5t-9.5 22.5v294q0 54 -23 80t-74 26q-77 0 -127 -66v-334q0 -13 -9 -22.5t-22 -9.5q-14 0 -23.5 9t-9.5 23v563h-97q-13 0 -22 8.5t-9 20.5
q0 13 9 22t22 9h97v58q0 13 9 23t23 10q13 0 22.5 -9.5t9.5 -23.5v-58h95q13 0 21 -9t8 -22z" />
    <glyph glyph-name="uni045C" unicode="&#x45c;" horiz-adv-x="436" 
d="M144 25q0 -13 -9.5 -22.5t-22.5 -9.5q-14 0 -23.5 9t-9.5 23v454q0 14 9.5 23.5t23.5 9.5q13 0 22.5 -10t9.5 -23v-190h75l136 206q10 16 27 16q13 0 21.5 -7.5t8.5 -19.5q0 -11 -5 -19l-144 -214l144 -213q6 -8 6 -19q1 -12 -8.5 -19t-22.5 -7q-18 0 -27 15l-151 228
h-60v-211zM220 625l87 91q14 14 23 14q10 0 17.5 -8.5t7.5 -18.5q0 -7 -3 -12l-82 -87q-17 -17 -27 -17q-11 0 -19 8.5t-8 19.5q0 5 4 10z" />
    <glyph glyph-name="uni045D" unicode="&#x45d;" horiz-adv-x="530" 
d="M116 -9q-16 0 -27 10.5t-11 26.5v450q0 14 9.5 24.5t22.5 10.5q14 0 23.5 -10.5t9.5 -24.5v-374l243 388q13 21 37 21q15 0 25 -11t10 -27v-450q0 -14 -9.5 -24t-22.5 -10q-14 0 -23.5 10t-9.5 24v373l-241 -388q-14 -19 -36 -19zM221 716l86 -91q4 -4 4 -10
q0 -12 -8 -20t-18 -8q-14 0 -28 16l-81 88q-4 5 -4 12q0 11 7.5 19t16.5 8t25 -14z" />
    <glyph glyph-name="uni045E" unicode="&#x45e;" horiz-adv-x="412" 
d="M399 469l-126 -409q-20 -65 -36.5 -104.5t-41.5 -79.5t-59 -59t-78 -19q-15 0 -24.5 8.5t-9.5 22.5q0 12 8 21t22 10q52 2 80 31t53 104l-164 476q-3 3 -3 11q0 13 9.5 21.5t23.5 8.5q20 0 29 -21l136 -415l120 415q11 21 30 21q13 0 22.5 -9.5t9.5 -23.5q0 -3 -0.5 -6
t-0.5 -4zM208 632q40 0 72 45q10 14 25 14q27 0 19 -29q-10 -35 -45 -56t-71 -21q-37 0 -74 21t-44 56q-3 13 4.5 21t16.5 8q16 0 24 -14q34 -45 73 -45z" />
    <glyph glyph-name="uni045F" unicode="&#x45f;" horiz-adv-x="504" 
d="M288 -111q0 -13 -9.5 -22.5t-22.5 -9.5q-14 0 -23.5 9t-9.5 23v112h-111q-14 0 -23.5 9t-9.5 23v448q0 14 9.5 23.5t23.5 9.5q13 0 22 -9.5t9 -23.5v-427h224v427q0 14 9.5 23.5t23.5 9.5t23 -9.5t9 -23.5v-448q0 -13 -9 -22.5t-23 -9.5h-112v-112z" />
    <glyph glyph-name="uni0462" unicode="&#x462;" horiz-adv-x="644" 
d="M456 623q0 -13 -9.5 -22t-23.5 -9h-188v-171h125q103 0 162.5 -54.5t59.5 -153.5q0 -92 -53.5 -152t-168.5 -60h-150q-17 0 -29.5 12t-12.5 29v550h-105q-14 0 -24 9t-10 21q0 13 10.5 23.5t23.5 10.5h105v78q0 13 10.5 23t23.5 10t23 -10t10 -23v-78h188q13 0 23 -9.5
t10 -23.5zM235 65h125q156 0 156 147q0 145 -156 145h-125v-292z" />
    <glyph glyph-name="uni0463" unicode="&#x463;" horiz-adv-x="582" 
d="M345 566q0 -13 -8 -21t-21 -8h-94v-192h113q176 0 176 -168q0 -82 -41.5 -129t-121.5 -47h-158q-14 0 -23.5 9t-9.5 23v504h-97q-13 0 -22 8.5t-9 21.5q0 12 9 21t22 9h97v99q0 14 9.5 23.5t23.5 9.5q13 0 22.5 -10t9.5 -23v-99h94q12 0 20.5 -9.5t8.5 -21.5zM335 293
h-113v-238h124q101 0 101 121q0 52 -23.5 84.5t-88.5 32.5z" />
    <glyph glyph-name="uni0490" unicode="&#x490;" horiz-adv-x="430" 
d="M79 668q0 16 11 27.5t28 11.5h243v100q0 14 10 24t24 10q13 0 22.5 -10t9.5 -24v-133q0 -13 -9 -22t-22 -9h-251v-618q0 -14 -9.5 -23.5t-22.5 -9.5q-14 0 -24 9.5t-10 23.5v643z" />
    <glyph glyph-name="uni0491" unicode="&#x491;" horiz-adv-x="375" 
d="M308 506v107q0 14 9.5 23.5t23.5 9.5q13 0 22.5 -9.5t9.5 -23.5v-132q0 -13 -9.5 -22.5t-22.5 -9.5h-197v-424q0 -13 -9.5 -22.5t-22.5 -9.5q-14 0 -23.5 9t-9.5 23v452q0 13 8.5 21t21.5 8h199z" />
    <glyph glyph-name="Wgrave" unicode="&#x1e80;" horiz-adv-x="776" 
d="M517 33l-125 554l-126 -555q-14 -41 -47 -41q-36 0 -48 41l-153 648v4q0 13 12 20.5t27 7.5q21 0 30 -24l134 -578l125 552q7 28 16.5 41t29.5 13q33 0 45 -54l127 -553l133 579q9 24 27 24q15 0 28 -7.5t13 -21.5q0 -6 -1 -9v-1l-152 -641q-12 -41 -47 -41q-36 0 -48 42
zM368 916l86 -91q4 -4 4 -10q0 -12 -8 -20t-18 -8q-14 0 -28 16l-81 88q-4 5 -4 12q0 11 7.5 19t16.5 8t25 -14z" />
    <glyph glyph-name="wgrave" unicode="&#x1e81;" horiz-adv-x="655" 
d="M636 477l-119 -444q-12 -40 -44 -40q-30 0 -40 29l-99 389q-77 -310 -100 -389q-8 -29 -41 -29t-45 40l-120 446v2q0 12 9.5 21.5t23.5 9.5q21 0 30 -23l103 -403q18 64 101 395q9 31 39 31q28 0 37 -31q24 -104 102 -395l102 403q2 10 11 16.5t19 6.5q13 0 22 -9.5
t9 -23.5v-2zM308 716l86 -91q4 -4 4 -10q0 -12 -8 -20t-18 -8q-14 0 -28 16l-81 88q-4 5 -4 12q0 11 7.5 19t16.5 8t25 -14z" />
    <glyph glyph-name="Wacute" unicode="&#x1e82;" horiz-adv-x="776" 
d="M517 33l-125 554l-126 -555q-14 -41 -47 -41q-36 0 -48 41l-153 648v4q0 13 12 20.5t27 7.5q21 0 30 -24l134 -578l125 552q7 28 16.5 41t29.5 13q33 0 45 -54l127 -553l133 579q9 24 27 24q15 0 28 -7.5t13 -21.5q0 -6 -1 -9v-1l-152 -641q-12 -41 -47 -41q-36 0 -48 42
zM323 825l87 91q14 14 23 14q10 0 17.5 -8.5t7.5 -18.5q0 -7 -3 -12l-82 -87q-17 -17 -27 -17q-11 0 -19 8.5t-8 19.5q0 5 4 10z" />
    <glyph glyph-name="wacute" unicode="&#x1e83;" horiz-adv-x="655" 
d="M636 477l-119 -444q-12 -40 -44 -40q-30 0 -40 29l-99 389q-77 -310 -100 -389q-8 -29 -41 -29t-45 40l-120 446v2q0 12 9.5 21.5t23.5 9.5q21 0 30 -23l103 -403q18 64 101 395q9 31 39 31q28 0 37 -31q24 -104 102 -395l102 403q2 10 11 16.5t19 6.5q13 0 22 -9.5
t9 -23.5v-2zM263 625l87 91q14 14 23 14q10 0 17.5 -8.5t7.5 -18.5q0 -7 -3 -12l-82 -87q-17 -17 -27 -17q-11 0 -19 8.5t-8 19.5q0 5 4 10z" />
    <glyph glyph-name="Wdieresis" unicode="&#x1e84;" horiz-adv-x="776" 
d="M517 33l-125 554l-126 -555q-14 -41 -47 -41q-36 0 -48 41l-153 648v4q0 13 12 20.5t27 7.5q21 0 30 -24l134 -578l125 552q7 28 16.5 41t29.5 13q33 0 45 -54l127 -553l133 579q9 24 27 24q15 0 28 -7.5t13 -21.5q0 -6 -1 -9v-1l-152 -641q-12 -41 -47 -41q-36 0 -48 42
zM516 846q0 -18 -11.5 -30t-28.5 -12t-29.5 12.5t-12.5 29.5q0 16 13 28.5t29 12.5t28 -12t12 -29zM343 846q0 -18 -12 -30t-29 -12q-16 0 -28 12.5t-12 29.5q0 16 12 28.5t28 12.5q17 0 29 -12t12 -29z" />
    <glyph glyph-name="wdieresis" unicode="&#x1e85;" horiz-adv-x="655" 
d="M636 477l-119 -444q-12 -40 -44 -40q-30 0 -40 29l-99 389q-77 -310 -100 -389q-8 -29 -41 -29t-45 40l-120 446v2q0 12 9.5 21.5t23.5 9.5q21 0 30 -23l103 -403q18 64 101 395q9 31 39 31q28 0 37 -31q24 -104 102 -395l102 403q2 10 11 16.5t19 6.5q13 0 22 -9.5
t9 -23.5v-2zM456 646q0 -18 -11.5 -30t-28.5 -12t-29.5 12.5t-12.5 29.5q0 16 13 28.5t29 12.5t28 -12t12 -29zM283 646q0 -18 -12 -30t-29 -12q-16 0 -28 12.5t-12 29.5q0 16 12 28.5t28 12.5q17 0 29 -12t12 -29z" />
    <glyph glyph-name="Ygrave" unicode="&#x1ef2;" horiz-adv-x="476" 
d="M241 -9q-15 0 -25 10t-10 25v253l-182 386q-4 10 -4 17q0 13 10.5 23.5t24.5 10.5q17 0 24 -13v1l162 -351l161 351v-1q7 13 25 13q13 0 23 -10.5t10 -23.5q0 -5 -3 -17l-183 -390v-249q0 -14 -9.5 -24.5t-23.5 -10.5zM189 916l86 -91q4 -4 4 -10q0 -12 -8 -20t-18 -8
q-14 0 -28 16l-81 88q-4 5 -4 12q0 11 7.5 19t16.5 8t25 -14z" />
    <glyph glyph-name="ygrave" unicode="&#x1ef3;" horiz-adv-x="412" 
d="M399 469l-126 -409q-20 -65 -36.5 -104.5t-41.5 -79.5t-59 -59t-78 -19q-15 0 -24.5 8.5t-9.5 22.5q0 12 8 21t22 10q52 2 80 31t53 104l-164 476q-3 3 -3 11q0 13 9.5 21.5t23.5 8.5q20 0 29 -21l136 -415l120 415q11 21 30 21q13 0 22.5 -9.5t9.5 -23.5q0 -3 -0.5 -6
t-0.5 -4zM186 716l86 -91q4 -4 4 -10q0 -12 -8 -20t-18 -8q-14 0 -28 16l-81 88q-4 5 -4 12q0 11 7.5 19t16.5 8t25 -14z" />
    <glyph glyph-name="endash" unicode="&#x2013;" horiz-adv-x="431" 
d="M390 286q0 -12 -8.5 -20.5t-21.5 -8.5h-286q-13 0 -21.5 8.5t-8.5 20.5t9 21.5t21 9.5h286q12 0 21 -9.5t9 -21.5z" />
    <glyph glyph-name="emdash" unicode="&#x2014;" horiz-adv-x="530" 
d="M492 286q0 -12 -9 -20.5t-21 -8.5h-388q-13 0 -22 8.5t-9 20.5t9 21.5t22 9.5h388q12 0 21 -9.5t9 -21.5z" />
    <glyph glyph-name="quoteleft" unicode="&#x2018;" horiz-adv-x="230" 
d="M68 566q0 48 25.5 104t45.5 56q11 0 11 -10q0 -16 -16 -44q-14 -22 -23 -56q23 -2 37 -16t14 -34t-13.5 -33t-33.5 -13q-19 0 -33 13.5t-14 32.5z" />
    <glyph glyph-name="quoteright" unicode="&#x2019;" horiz-adv-x="230" 
d="M162 679q0 -47 -25 -103t-44 -56q-13 0 -13 9q0 12 18 44q14 23 22 56q-22 2 -37 16.5t-15 33.5t14 33t34 14q19 0 32.5 -13.5t13.5 -33.5z" />
    <glyph glyph-name="quotesinglbase" unicode="&#x201a;" horiz-adv-x="230" 
d="M162 39q0 -48 -25 -104t-44 -56q-13 0 -13 10t18 44q14 24 22 56q-22 2 -37 16t-15 34q0 19 14.5 33t33.5 14t32.5 -14t13.5 -33z" />
    <glyph glyph-name="quotedblleft" unicode="&#x201c;" horiz-adv-x="369" 
d="M67 566q0 48 25.5 104t45.5 56q11 0 11 -10q0 -16 -16 -44q-14 -24 -23 -56q23 -2 37 -16t14 -34t-13.5 -33t-33.5 -13q-19 0 -33 13.5t-14 32.5zM210 566q0 47 26 103.5t45 56.5q11 0 11 -10q0 -16 -16 -44q-14 -24 -23 -56q23 -2 37 -16t14 -34t-13.5 -33t-33.5 -13
q-19 0 -33 13.5t-14 32.5z" />
    <glyph glyph-name="quotedblright" unicode="&#x201d;" horiz-adv-x="369" 
d="M304 679q0 -48 -25 -103.5t-44 -55.5q-12 0 -12 9q0 14 17 44q14 24 23 56q-23 2 -38 16.5t-15 33.5t14 33t34 14q19 0 32.5 -13.5t13.5 -33.5zM161 679q0 -47 -25.5 -103t-43.5 -56q-12 0 -12 9q0 14 17 44q14 24 23 56q-23 2 -38 16.5t-15 33.5t14 33t34 14
q19 0 32.5 -13.5t13.5 -33.5z" />
    <glyph glyph-name="quotedblbase" unicode="&#x201e;" horiz-adv-x="369" 
d="M304 39q0 -48 -25 -104t-44 -56q-12 0 -12 10q0 17 16 44q15 24 24 56q-22 1 -37.5 15.5t-15.5 34.5q0 19 14 33t34 14q19 0 32.5 -14t13.5 -33zM161 39q0 -48 -25.5 -104t-43.5 -56q-12 0 -12 10q0 17 16 44q15 24 24 56q-22 1 -37.5 15.5t-15.5 34.5q0 19 14 33t34 14
q19 0 32.5 -14t13.5 -33z" />
    <glyph glyph-name="dagger" unicode="&#x2020;" horiz-adv-x="432" 
d="M440 477q0 -12 -8.5 -20t-20.5 -8h-161v-521v-14l-1 -7q-2 -10 -11 -17.5t-21 -7.5q-11 0 -20 7.5t-11 17.5q-1 7 -1 21v521h-161q-7 0 -8 1q-21 5 -21 27q0 13 8.5 21.5t20.5 8.5h161v172q0 15 1 21q2 11 11 18.5t20 7.5q13 0 21.5 -7.5t10.5 -18.5q0 -1 0.5 -7t0.5 -14
v-172h161q1 0 7 -3q9 -2 15.5 -9.5t6.5 -17.5z" />
    <glyph glyph-name="daggerdbl" unicode="&#x2021;" horiz-adv-x="574" 
d="M509 34q0 -12 -9 -20.5t-21 -8.5h-160v-183q0 -5 -0.5 -10.5t-0.5 -6.5q-3 -10 -12.5 -18t-19.5 -8q-12 0 -21 7.5t-11 17.5t-2 18v183h-159q-13 0 -22 8t-9 21t9 21t22 8h159v386h-159q-13 0 -22 8t-9 20q0 13 9 22t22 9h159v185q0 3 1 4q2 12 11.5 20.5t21.5 8.5
q14 0 23.5 -10t9.5 -23v-185h160q12 0 21 -9t9 -22q0 -12 -9 -20t-21 -8h-160v-386h160q12 0 21 -8.5t9 -20.5z" />
    <glyph glyph-name="bullet" unicode="&#x2022;" horiz-adv-x="303" 
d="M224 273q0 -30 -21 -51t-50 -21t-50.5 21t-21.5 51q0 29 21.5 50t50.5 21t50 -21t21 -50z" />
    <glyph glyph-name="ellipsis" unicode="&#x2026;" horiz-adv-x="583" 
d="M522 38q0 -20 -13.5 -33.5t-33.5 -13.5q-19 0 -33 13.5t-14 33.5t14 34t33 14q20 0 33.5 -14t13.5 -34zM341 38q0 -20 -13.5 -33.5t-33.5 -13.5q-19 0 -33.5 14t-14.5 33t14.5 33.5t33.5 14.5q20 0 33.5 -14t13.5 -34zM160 38q0 -20 -13.5 -33.5t-33.5 -13.5
q-19 0 -33 14t-14 33t14 33.5t33 14.5q20 0 33.5 -14t13.5 -34z" />
    <glyph glyph-name="guilsinglleft" unicode="&#x2039;" horiz-adv-x="318" 
d="M124 256l146 -216q3 -9 3 -13q0 -15 -9 -24.5t-24 -9.5q-16 0 -32 23l-159 238l153 230q14 24 31 24q12 0 21.5 -9t9.5 -22q0 -12 -3 -15z" />
    <glyph glyph-name="guilsinglright" unicode="&#x203a;" horiz-adv-x="318" 
d="M51 40l146 216l-136 206q-5 6 -5 15q0 13 10 22t22 9q18 0 32 -24l152 -230l-158 -238q-17 -23 -33 -23q-15 0 -24.5 10t-9.5 24q0 6 4 13z" />
    <glyph glyph-name="fraction" unicode="&#x2044;" horiz-adv-x="153" 
d="M222 660l-238 -666q-3 -9 -11.5 -14t-18.5 -4q-12 2 -18.5 11.5t-4.5 21.5l2 7l237 665q7 22 30 18q11 -2 17.5 -13.5t4.5 -25.5z" />
    <glyph glyph-name="zerosuperior" unicode="&#x2070;" 
d="M123 708q-55 0 -55 -68v-149q0 -28 14.5 -44.5t40.5 -16.5t40.5 16.5t14.5 44.5v149q0 68 -55 68zM123 754q51 0 76.5 -33t25.5 -85v-145q0 -47 -26.5 -76.5t-75.5 -29.5t-77 30t-28 76v145q0 52 26.5 85t78.5 33z" />
    <glyph glyph-name="foursuperior" unicode="&#x2074;" 
d="M204 462v-55q0 -9 -7 -15.5t-17 -6.5q-11 0 -18 6.5t-7 15.5v55h-117q-12 0 -19 7.5t-7 18.5q2 8 5 13l96 237q6 15 19 15q9 0 16.5 -7.5t7.5 -18.5q0 -6 -1 -8l-84 -211h84v91q0 11 7 17.5t18 6.5q10 0 17 -7t7 -17v-91h15q10 0 16.5 -6.5t6.5 -16.5q0 -9 -6.5 -16
t-16.5 -7h-15z" />
    <glyph glyph-name="fivesuperior" unicode="&#x2075;" 
d="M224 502q0 -47 -26 -82t-77 -35q-11 0 -25 1.5t-32.5 5t-31 12t-12.5 20.5q0 11 7 18t17 7q6 0 13 -5q26 -15 54 -15q65 0 65 71q0 34 -16 52t-41 18q-15 0 -32 -10l-13 -8q-10 -6 -16 -6q-10 0 -17.5 7.5t-6.5 17.5l3 146q0 13 9 20.5t20 7.5h118q27 0 27 -25
q0 -22 -27 -22h-102l-4 -95q20 10 42 10q47 0 75.5 -29.5t28.5 -81.5z" />
    <glyph glyph-name="sixsuperior" unicode="&#x2076;" 
d="M135 703q-66 0 -70 -108q29 17 62 17q45 0 73.5 -28.5t28.5 -83.5q0 -50 -27 -82.5t-79 -32.5q-109 0 -109 171q0 193 114 193q14 0 29.5 -1.5t33.5 -9.5t18 -22q0 -8 -6.5 -15t-16.5 -7l-12 3q-22 6 -39 6zM64 538v-8q0 -98 61 -98q30 0 43.5 19.5t13.5 47.5
q0 67 -57 67q-29 0 -61 -28z" />
    <glyph glyph-name="sevensuperior" unicode="&#x2077;" 
d="M225 718q0 -5 -2 -13l-121 -307q-2 -5 -8.5 -9t-13.5 -4q-9 0 -17 7t-7 18q1 4 2 6l113 280h-127q-11 0 -18 6.5t-7 16.5q0 11 7 18.5t18 7.5h158q9 0 16 -8t7 -19z" />
    <glyph glyph-name="eightsuperior" unicode="&#x2078;" 
d="M235 489q0 -46 -31 -75t-81 -29t-82 28.5t-32 73.5q0 57 56 89q-45 33 -45 79q0 42 30 68t72 26q43 0 71.5 -26.5t28.5 -66.5q0 -50 -40 -77q53 -34 53 -90zM176 654q0 23 -15 36t-38 13t-38.5 -13t-15.5 -36t15 -37.5t38 -18.5q22 6 38 21t16 35zM188 490q0 24 -20 41
t-47 24q-27 -8 -45.5 -25.5t-18.5 -40.5q0 -25 19 -42.5t47 -17.5t46.5 17.5t18.5 43.5z" />
    <glyph glyph-name="ninesuperior" unicode="&#x2079;" 
d="M111 429q66 0 70 108q-25 -17 -62 -17q-45 0 -75 29t-30 82q0 52 27 85t79 33q61 0 85 -45t24 -132q0 -187 -112 -187q-80 0 -81 29q-1 14 6.5 21.5t17.5 3.5l13 -5q12 -5 38 -5zM181 592v8q0 100 -62 100q-55 0 -55 -69q0 -63 57 -63q32 0 60 24z" />
    <glyph glyph-name="parenleftsuperior" unicode="&#x207d;" horiz-adv-x="138" 
d="M76 560q0 -106 47 -192q4 -8 4 -12q0 -10 -6 -17t-17 -7q-12 0 -19 11q-59 99 -59 217q0 51 16 111.5t43 107.5q7 14 19 14q10 0 16.5 -8.5t6.5 -18.5q0 -5 -4 -12q-1 0 -1 -2q-46 -82 -46 -192z" />
    <glyph glyph-name="parenrightsuperior" unicode="&#x207e;" horiz-adv-x="137" 
d="M59 560q0 111 -48 194l-2 3l1 -1q-4 5 -4 10q0 10 6.5 18.5t18.5 8.5q11 0 21 -14q55 -99 55 -219q0 -124 -55 -217q-8 -11 -21 -11q-12 0 -18.5 7t-6.5 17q3 7 7 14q46 87 46 190z" />
    <glyph glyph-name="zeroinferior" unicode="&#x2080;" 
d="M123 276q-55 0 -55 -68v-149q0 -28 14.5 -44.5t40.5 -16.5t40.5 16.5t14.5 44.5v149q0 68 -55 68zM123 322q51 0 76.5 -33t25.5 -85v-145q0 -47 -26.5 -76.5t-75.5 -29.5t-77 30t-28 76v145q0 52 26.5 85t78.5 33z" />
    <glyph glyph-name="oneinferior" unicode="&#x2081;" 
d="M127 -25v278l-52 -36q-14 -9 -23 -9q-10 0 -17 6.5t-7 14.5q0 12 13 22l97 61q8 5 14 5q11 0 18 -7.5t7 -19.5v-315q0 -8 -7 -15t-17 -7q-11 0 -18.5 6.5t-7.5 15.5z" />
    <glyph glyph-name="twoinferior" unicode="&#x2082;" 
d="M227 -21q0 -9 -6.5 -15t-15.5 -6h-162q-27 0 -27 23q0 11 5 21q19 45 88 112l20 21t23 25q26 24 26 57q0 27 -14.5 43t-41.5 16q-19 0 -44 -9l-13 -6q-12 -7 -19 -7q-9 0 -17 6t-8 15q0 11 6 17q46 30 95 30q48 0 75.5 -28t27.5 -71q0 -54 -34 -95q-5 -6 -32 -33l-10 -10
q-53 -49 -71 -81h127q8 0 15 -7.5t7 -17.5z" />
    <glyph glyph-name="threeinferior" unicode="&#x2083;" 
d="M210 267l-78 -100q40 -3 66 -30t26 -70q0 -44 -26.5 -79t-77.5 -35q-11 0 -25 1.5t-32 5t-30.5 12t-12.5 20.5q0 11 7 18t17 7q3 0 15 -6q24 -14 52 -14q34 0 49.5 20.5t15.5 48.5q0 60 -62 60q-11 0 -17 -3l-3 -2q-1 -1 -8 -1q-13 0 -19 12.5t2 23.5l82 108h-99
q-11 0 -18.5 6t-7.5 16q0 11 7.5 19t18.5 8h137q24 0 24 -29q0 -14 -3 -17z" />
    <glyph glyph-name="fourinferior" unicode="&#x2084;" 
d="M204 30v-55q0 -9 -7 -15.5t-17 -6.5q-11 0 -18 6.5t-7 15.5v55h-117q-12 0 -19 7.5t-7 18.5q2 8 5 13l96 237q6 15 19 15q9 0 16.5 -7.5t7.5 -18.5q0 -6 -1 -8l-84 -211h84v91q0 11 7 17.5t18 6.5q10 0 17 -7t7 -17v-91h15q10 0 16.5 -6.5t6.5 -16.5q0 -9 -6.5 -16
t-16.5 -7h-15z" />
    <glyph glyph-name="fiveinferior" unicode="&#x2085;" 
d="M224 70q0 -47 -26 -82t-77 -35q-11 0 -25 1.5t-32.5 5t-31 12t-12.5 20.5q0 11 7 18t17 7q6 0 13 -5q26 -15 54 -15q65 0 65 71q0 34 -16 52t-41 18q-15 0 -32 -10l-13 -8q-10 -6 -16 -6q-10 0 -17.5 7.5t-6.5 17.5l3 146q0 13 9 20.5t20 7.5h118q27 0 27 -25
q0 -22 -27 -22h-102l-4 -95q20 10 42 10q47 0 75.5 -29.5t28.5 -81.5z" />
    <glyph glyph-name="sixinferior" unicode="&#x2086;" 
d="M135 271q-66 0 -70 -108q29 17 62 17q45 0 73.5 -28.5t28.5 -83.5q0 -50 -27 -82.5t-79 -32.5q-109 0 -109 171q0 193 114 193q14 0 29.5 -1.5t33.5 -9.5t18 -22q0 -8 -6.5 -15t-16.5 -7l-12 3q-22 6 -39 6zM64 106v-8q0 -98 61 -98q30 0 43.5 19.5t13.5 47.5
q0 67 -57 67q-29 0 -61 -28z" />
    <glyph glyph-name="seveninferior" unicode="&#x2087;" 
d="M225 286q0 -5 -2 -13l-121 -307q-2 -5 -8.5 -9t-13.5 -4q-9 0 -17 7t-7 18q1 4 2 6l113 280h-127q-11 0 -18 6.5t-7 16.5q0 11 7 18.5t18 7.5h158q9 0 16 -8t7 -19z" />
    <glyph glyph-name="eightinferior" unicode="&#x2088;" 
d="M235 57q0 -46 -31 -75t-81 -29t-82 28.5t-32 73.5q0 57 56 89q-45 33 -45 79q0 42 30 68t72 26q43 0 71.5 -26.5t28.5 -66.5q0 -50 -40 -77q53 -34 53 -90zM176 222q0 23 -15 36t-38 13t-38.5 -13t-15.5 -36t15 -37.5t38 -18.5q22 6 38 21t16 35zM188 58q0 24 -20 41
t-47 24q-27 -8 -45.5 -25.5t-18.5 -40.5q0 -25 19 -42.5t47 -17.5t46.5 17.5t18.5 43.5z" />
    <glyph glyph-name="nineinferior" unicode="&#x2089;" 
d="M111 -3q66 0 70 108q-25 -17 -62 -17q-45 0 -75 29t-30 82q0 52 27 85t79 33q61 0 85 -45t24 -132q0 -187 -112 -187q-80 0 -81 29q-1 14 6.5 21.5t17.5 3.5l13 -5q12 -5 38 -5zM181 160v8q0 100 -62 100q-55 0 -55 -69q0 -63 57 -63q32 0 60 24z" />
    <glyph glyph-name="parenleftinferior" unicode="&#x208d;" horiz-adv-x="138" 
d="M76 128q0 -106 47 -192q4 -8 4 -12q0 -10 -6 -17t-17 -7q-12 0 -19 11q-59 99 -59 217q0 51 16 111.5t43 107.5q7 14 19 14q10 0 16.5 -8.5t6.5 -18.5q0 -5 -4 -12q-1 0 -1 -2q-46 -82 -46 -192z" />
    <glyph glyph-name="parenrightinferior" unicode="&#x208e;" horiz-adv-x="137" 
d="M59 128q0 111 -48 194l-2 3l1 -1q-4 5 -4 10q0 10 6.5 18.5t18.5 8.5q11 0 21 -14q55 -99 55 -219q0 -124 -55 -217q-8 -11 -21 -11q-12 0 -18.5 7t-6.5 17q3 7 7 14q46 87 46 190z" />
    <glyph glyph-name="Euro" unicode="&#x20ac;" horiz-adv-x="500" 
d="M47 450h55v44q0 104 48 163t144 59q67 0 119.5 -24t52.5 -56q0 -12 -8 -20t-20 -8q-10 0 -24 9q-2 1 -5.5 4t-4.5 3q-49 33 -105 33q-71 0 -101 -41.5t-30 -121.5v-44h194q12 0 22 -9t10 -22q0 -12 -9.5 -21t-22.5 -9h-194v-72h153q13 0 22.5 -9t9.5 -22q0 -12 -9.5 -21
t-22.5 -9h-153v-42q0 -80 30 -121.5t101 -41.5q58 0 105 32l10 7q14 10 24 10q12 0 20 -8.5t8 -19.5q0 -33 -52 -56.5t-120 -23.5q-96 0 -144 59t-48 163v42h-55q-13 0 -22.5 9t-9.5 21t10 21.5t22 9.5h55v72h-55q-13 0 -22.5 9t-9.5 21q0 13 10 22t22 9z" />
    <glyph glyph-name="uni20B4" unicode="&#x20b4;" horiz-adv-x="500" 
d="M54 450h266q49 63 49 124q0 41 -26.5 59.5t-87.5 18.5q-56 0 -105 -21q-20 -8 -32 -8q-16 0 -25.5 9t-9.5 22q0 18 18.5 31t47 19.5t55 9t51.5 2.5q86 0 135 -36.5t49 -110.5q0 -60 -42 -119h54q12 0 22 -9t10 -22q0 -12 -9.5 -21t-22.5 -9h-116q-2 -2 -31 -25l-56 -47
h203q12 0 22 -9.5t10 -21.5t-9.5 -21t-22.5 -9h-257q-47 -66 -47 -124q0 -38 24 -57.5t89 -19.5q66 0 127 26q23 10 33 10q12 0 21 -10t9 -23q0 -33 -59.5 -50t-124.5 -17q-86 0 -139 39t-53 115q0 55 37 111h-57q-13 0 -22.5 9t-9.5 21t10 21.5t22 9.5h117l32 24l62 48
h-211q-13 0 -22.5 9t-9.5 21q0 13 10 22t22 9z" />
    <glyph glyph-name="uni20BD" unicode="&#x20bd;" horiz-adv-x="500" 
d="M47 331h47v333q0 17 12.5 29.5t29.5 12.5h120q114 0 168 -63t54 -159q0 -104 -59.5 -160.5t-162.5 -56.5h-95v-69h160q13 0 22.5 -8.5t9.5 -21.5t-9 -21.5t-23 -8.5h-160v-112q0 -14 -10 -24.5t-23 -10.5t-23.5 10t-10.5 25v112h-47q-14 0 -23 8.5t-9 21.5q0 12 10 21
t22 9h47v73h-47q-13 0 -22.5 8.5t-9.5 20.5q0 13 10 22t22 9zM161 642v-311h95q155 0 155 154q0 157 -155 157h-95z" />
    <glyph glyph-name="trademark" unicode="&#x2122;" horiz-adv-x="773" 
d="M731 690v-383q0 -9 -6.5 -15t-15.5 -6t-15.5 6t-6.5 15v308l-109 -225q-6 -13 -22 -13t-23 13l-109 225v-308q0 -9 -6.5 -15t-14.5 -6q-10 0 -16 6t-6 15v383q0 11 7 17.5t18 6.5q15 0 23 -15l127 -260l128 261q7 14 23 14q9 0 16.5 -7.5t7.5 -16.5zM313 687
q0 -10 -6.5 -16t-15.5 -6h-105v-357q0 -10 -6.5 -16t-15.5 -6q-11 0 -17.5 6t-6.5 16v357h-103q-10 0 -17 6t-7 16q0 9 7 15.5t17 6.5h254q9 0 15.5 -6.5t6.5 -15.5z" />
    <glyph glyph-name="estimated" unicode="&#x212e;" horiz-adv-x="903" 
d="M825 317h-605q-5 0 -5 -4v-183q0 -10 9 -21q93 -99 229 -99q145 0 240 111h55q-52 -61 -130 -96t-166 -35q-155 0 -264.5 98.5t-109.5 237.5t109.5 237.5t264.5 98.5t264 -98.5t109 -237.5v-9zM689 341v184q0 12 -10 22q-95 95 -226 95q-133 0 -228 -98q-10 -10 -10 -23
v-180q0 -5 5 -5h464q5 0 5 5z" />
    <glyph glyph-name="arrowleft" unicode="&#x2190;" horiz-adv-x="559" 
d="M504 354q0 -12 -8.5 -20.5t-20.5 -8.5h-323l163 -188v1q3 -4 3 -13q0 -14 -9.5 -24t-23.5 -10q-13 0 -24 14l-10 10h1l-183 219q-13 16 0 37l177 210l6 9l-1 -3q14 19 27 19q11 0 21 -9t10 -22q0 -12 -4 -15v1l-153 -177h323q12 0 20.5 -9t8.5 -21z" />
    <glyph glyph-name="arrowup" unicode="&#x2191;" horiz-adv-x="629" 
d="M534 354l-193 163v-405q0 -12 -8.5 -20t-20.5 -8t-21 8t-9 20v404l-177 -153q-12 -11 -29.5 -0.5t-15.5 28.5q1 14 18 27l217 182q7 6 17 6q12 0 20 -6l229 -191q17 -13 18 -27q2 -18 -15.5 -28.5t-29.5 0.5z" />
    <glyph glyph-name="arrowright" unicode="&#x2192;" horiz-adv-x="559" 
d="M60 354q0 12 9 21t21 9h322l-152 177v-1q-5 6 -5 15q0 13 10 22t22 9q11 0 27 -19l-1 3l6 -9l177 -210q13 -16 0 -37l-183 -219h1l-10 -10q-11 -14 -24 -14q-15 0 -24.5 10t-9.5 24q0 6 4 13v-1l163 188h-323q-12 0 -21 8.5t-9 20.5z" />
    <glyph glyph-name="arrowdown" unicode="&#x2193;" horiz-adv-x="629" 
d="M312 612q12 0 20.5 -9t8.5 -21v-404l188 162q4 4 12 4q15 0 24.5 -9t9.5 -24q0 -14 -14 -25l-11 -9v1l-218 -183q-17 -13 -37 0l-211 177l-8 6l2 -1q-18 14 -18 26t9 22t22 10q10 0 14 -4l177 -153v404q0 13 9 21.5t21 8.5z" />
    <glyph glyph-name="uni2196" unicode="&#x2196;" horiz-adv-x="529" 
d="M465 156q-9 -9 -21.5 -9.5t-21.5 8.5l-286 286l-16 -234q0 -5 -7 -12q-10 -9 -23 -8.5t-21 9.5q-11 10 -8 34q0 1 0.5 2.5t0.5 2.5l24 274q2 26 28 27l284 26q1 0 3 0.5t3 0.5q24 3 34 -7q10 -9 10 -23q0 -16 -11 -25q-7 -7 -11 -7l-247 -19l286 -284q8 -8 8 -20.5
t-8 -21.5z" />
    <glyph glyph-name="uni2197" unicode="&#x2197;" horiz-adv-x="532" 
d="M71 165q-10 8 -10 20.5t9 20.5l285 285l-233 18q-2 0 -13 8q-9 10 -8 22.5t9 21.5h-1q10 9 31 7q2 0 5 -0.5t4 -0.5l274 -24q26 -2 27 -27l25 -283q5 -31 -6 -42q-9 -9 -22 -9q-16 0 -26 10q-6 6 -6 10l-18 248l-286 -285q-7 -9 -19.5 -9t-20.5 9z" />
    <glyph glyph-name="uni2198" unicode="&#x2198;" horiz-adv-x="529" 
d="M70 538q7 8 20 8.5t23 -7.5l285 -287l16 234q0 6 8 14q9 9 22 8t21 -9q10 -11 7 -42q-3 -44 -11.5 -135t-11.5 -136q-2 -26 -28 -28l-282 -25h-2q-32 -4 -41 6q-10 10 -10 22q0 15 11 26q7 7 11 7l247 18l-285 285q-8 8 -8.5 20.5t8.5 20.5zM138 134l-1 -1z" />
    <glyph glyph-name="uni2199" unicode="&#x2199;" horiz-adv-x="532" 
d="M467 530q9 -8 9 -20.5t-8 -21.5l-285 -286l232 -16q5 0 13 -8q9 -10 8 -22.5t-9 -21.5h1q-9 -9 -31 -7q-2 0 -5.5 1t-4.5 1l1 -1l-273 24q-26 2 -27 27l-26 284q0 2 -0.5 4t-0.5 3q-3 24 8 34q10 10 22 10q13 0 26 -11q5 -5 5 -11l18 -247l286 285q8 9 20.5 9t20.5 -9z
" />
    <glyph glyph-name="minus" unicode="&#x2212;" horiz-adv-x="500" 
d="M80 387h345q13 0 22.5 -9.5t9.5 -22.5t-9.5 -22.5t-22.5 -9.5h-345q-14 0 -23.5 9.5t-9.5 22.5t10.5 22.5t22.5 9.5z" />
    <glyph glyph-name="triagup" unicode="&#x25b2;" horiz-adv-x="758" 
d="M656 1h-546q-50 0 -50 25q0 13 12 37l281 561q18 35 30 35q10 0 30 -35l281 -561q11 -24 11 -37q0 -25 -49 -25z" />
    <glyph glyph-name="triagrt" unicode="&#x25ba;" horiz-adv-x="785" 
d="M59 59v559q0 50 26 50q13 0 37 -12l577 -288q33 -17 33 -30q0 -12 -33 -29l-577 -288q-24 -11 -37 -11q-26 0 -26 49z" />
    <glyph glyph-name="triagdn" unicode="&#x25bc;" horiz-adv-x="758" 
d="M110 678h546q49 0 49 -25q0 -14 -11 -38l-281 -561q-19 -34 -30 -34q-13 0 -30 34l-281 561q-12 24 -12 38q0 25 50 25z" />
    <glyph glyph-name="triaglf" unicode="&#x25c4;" horiz-adv-x="785" 
d="M95 368l576 288q24 12 38 12q24 0 24 -50v-559q0 -49 -24 -49q-14 0 -38 11l-576 288q-35 16 -35 29q0 12 35 30z" />
    <glyph glyph-name="uni2639" unicode="&#x2639;" horiz-adv-x="733" 
d="M681 251q0 -126 -91 -217.5t-219 -91.5t-220 91t-92 218q0 128 92 219.5t220 91.5t219 -91.5t91 -219.5zM650 251q0 115 -82.5 197.5t-196.5 82.5q-115 0 -197.5 -82t-82.5 -198q0 -115 82.5 -197t197.5 -82q114 0 196.5 82t82.5 197zM281 317q0 -14 -9.5 -23t-23.5 -9
q-13 0 -22.5 9.5t-9.5 22.5t9.5 23t22.5 10q14 0 23.5 -9.5t9.5 -23.5zM524 317q0 -13 -9 -22.5t-22 -9.5q-14 0 -24 9.5t-10 22.5q0 14 10 23.5t24 9.5q13 0 22 -9.5t9 -23.5zM250 83l-15 11q51 86 136 86q87 0 136 -87l-19 -9q-44 68 -117 68q-77 0 -121 -69z" />
    <glyph glyph-name="uni263A" unicode="&#x263a;" horiz-adv-x="733" 
d="M681 251q0 -126 -91 -217.5t-219 -91.5t-220 91t-92 218q0 128 92 219.5t220 91.5t219 -91.5t91 -219.5zM650 251q0 115 -82.5 197.5t-196.5 82.5q-115 0 -197.5 -82t-82.5 -198q0 -115 82.5 -197t197.5 -82q114 0 196.5 82t82.5 197zM281 317q0 -14 -9.5 -23t-23.5 -9
q-13 0 -22.5 9.5t-9.5 22.5t9.5 23t22.5 10q14 0 23.5 -9.5t9.5 -23.5zM524 317q0 -13 -9 -22.5t-22 -9.5q-14 0 -24 9.5t-10 22.5q0 14 10 23.5t24 9.5q13 0 22 -9.5t9 -23.5zM235 146l16 9q43 -67 120 -67q79 0 119 68l17 -9q-51 -87 -136 -87q-86 0 -136 86z" />
    <glyph glyph-name="uni263B" unicode="&#x263b;" horiz-adv-x="732" 
d="M680 251q0 -127 -90.5 -218t-219.5 -91q-128 0 -219.5 91t-91.5 218q0 129 91.5 220t219.5 91t219 -91.5t91 -219.5zM295 317q0 20 -13.5 34.5t-33.5 14.5t-34.5 -15t-14.5 -34t14.5 -33t34.5 -14t33.5 13.5t13.5 33.5zM540 317q0 20 -14 34.5t-33 14.5q-20 0 -35 -14.5
t-15 -34.5q0 -19 15 -33t35 -14q19 0 33 14t14 33zM258 177l-45 -25q56 -107 157 -107q102 0 158 107l-47 25q-40 -74 -111 -74q-70 0 -112 74z" />
    <glyph glyph-name="uni2661" unicode="&#x2661;" horiz-adv-x="642" 
d="M308 392v1q5 -22 17 -25q9 4 16 24q39 121 126 121q49 0 85 -34t36 -104q0 -38 -17 -68.5t-82 -116.5l-16 -21v1q-52 -68 -116 -169q-17 -26 -33 -26q-15 0 -32 26q-54 85 -116 169v-1l-16 21q-66 86 -83 117t-17 68q0 70 36 104t84 34q95 0 128 -121zM147 252
q8 -10 33 -47l133 -190q3 -9 11 -9q5 0 11 6v2l134 191q25 37 33 47q29 42 38 56t16 32t7 38q0 54 -29 81.5t-65 27.5q-21 0 -37.5 -8.5t-29.5 -26.5t-19 -30t-17 -36q-20 -45 -42 -45q-21 0 -41 45q-13 30 -24 48.5t-32 35.5t-47 17q-38 0 -66.5 -27.5t-28.5 -81.5
q0 -28 11 -49t51 -77z" />
    <glyph glyph-name="uni2665" unicode="&#x2665;" horiz-adv-x="642" 
d="M308 392q17 -60 35 0q34 121 122 121q52 0 87.5 -34.5t35.5 -91.5q0 -47 -25.5 -93t-79.5 -115l-11 -14q-69 -88 -113 -164q-16 -26 -34 -26q-16 0 -33 26q-56 90 -116 169v-1l-16 21q-66 86 -83 117t-17 68q0 70 36 104t85 34q42 0 76.5 -30t50.5 -91z" />
    <glyph glyph-name="uni266A" unicode="&#x266a;" horiz-adv-x="510" 
d="M252 174v492q136 -1 185.5 -38.5t49.5 -148.5q0 -42 -17 -44q-16 1 -17 19q0 54 -39.5 83.5t-105.5 29.5h-22v-425q0 -159 -148 -159q-50 0 -80 28t-30 75q0 49 36.5 82.5t93.5 33.5q38 0 94 -28z" />
    <glyph glyph-name="uni266B" unicode="&#x266b;" horiz-adv-x="760" 
d="M275 129v417q0 74 73 99l241 74q19 6 32 6q35 0 35 -56v-471q0 -157 -145 -157q-51 0 -81.5 28.5t-30.5 74.5q0 48 37 82t93 34q19 0 33 -4t59 -22v341q0 41 -38 29l-238 -74q-36 -11 -36 -47v-386q0 -160 -147 -160q-51 0 -81 28.5t-30 74.5q0 49 36.5 82.5t93.5 33.5
q34 0 94 -27z" />
    <glyph glyph-name="typography.com.ua" unicode="&#xe020;" horiz-adv-x="885" 
d="M846 475q-4 -28 -35 -24q-5 0 -12 1t-11.5 1.5t-5.5 0.5q-28 0 -50 -20.5t-29 -52.5l-29 -166h93q12 0 21 -9.5t9 -21.5q0 -13 -8.5 -22t-21.5 -9h-105l-39 -225q-14 -79 -46 -121.5t-95 -42.5q-26 0 -39.5 1t-24.5 8t-11 20q0 14 9 22.5t23 7.5l30 -1q41 0 60 23t28 75
l40 233h-147v-129q0 -13 -9.5 -22.5t-22.5 -9.5q-14 0 -23.5 9.5t-9.5 22.5v129h-262q-15 0 -25 10.5t-10 25.5q0 7 8 25l196 491q11 19 28 19q12 0 22 -10t10 -26q0 -5 -2 -8l-186 -465h221v263q0 14 9.5 23.5t23.5 9.5q13 0 22.5 -9.5t9.5 -23.5v-263h158l32 176
q9 56 49 88t106 32q28 0 41 -7.5t10 -28.5z" />
    <glyph glyph-name="commaaccent" unicode="&#xf6c3;" horiz-adv-x="310" 
d="M203 -113q0 -39 -25.5 -84t-44.5 -45q-12 0 -12 9q0 3 16 28q17 19 26 42q-23 1 -38.5 15.5t-15.5 34.5t14 33.5t34 13.5q19 0 32.5 -14t13.5 -33z" />
    <glyph glyph-name="commainferior" unicode="&#xf6e1;" horiz-adv-x="115" 
d="M86 -18q0 -25 -14.5 -54.5t-25.5 -29.5q-16 0 -16 13q0 9 10 25l9 18q-25 8 -25 28q0 14 9.5 23.5t23.5 9.5q13 0 21 -9.5t8 -23.5z" />
    <glyph glyph-name="commasuperior" unicode="&#xf6e2;" horiz-adv-x="115" 
d="M86 414q0 -25 -14.5 -54.5t-25.5 -29.5q-16 0 -16 13q0 9 10 25l9 18q-25 8 -25 28q0 14 9.5 23.5t23.5 9.5q13 0 21 -9.5t8 -23.5z" />
    <glyph glyph-name="hypheninferior" unicode="&#xf6e5;" horiz-adv-x="199" 
d="M182 105q0 -9 -6.5 -15.5t-15.5 -6.5h-123q-10 0 -17 6.5t-7 15.5q0 11 7 18t17 7h123q9 0 15.5 -7.5t6.5 -17.5z" />
    <glyph glyph-name="hyphensuperior" unicode="&#xf6e6;" horiz-adv-x="199" 
d="M182 537q0 -9 -6.5 -15.5t-15.5 -6.5h-123q-10 0 -17 6.5t-7 15.5q0 11 7 18t17 7h123q9 0 15.5 -7.5t6.5 -17.5z" />
    <glyph glyph-name="periodinferior" unicode="&#xf6e7;" horiz-adv-x="115" 
d="M86 -18q0 -13 -8 -21t-21 -8q-14 0 -23.5 8t-9.5 21q0 14 9.5 23.5t23.5 9.5q13 0 21 -9.5t8 -23.5z" />
    <glyph glyph-name="periodsuperior" unicode="&#xf6e8;" horiz-adv-x="115" 
d="M86 414q0 -13 -8 -21t-21 -8q-14 0 -23.5 8t-9.5 21q0 14 9.5 23.5t23.5 9.5q13 0 21 -9.5t8 -23.5z" />
    <glyph glyph-name="R.salt" unicode="&#xe0052;" horiz-adv-x="557" 
d="M145 359h125q59 0 103.5 39t44.5 111q0 57 -31.5 95.5t-98.5 38.5h-143v-284zM145 24q0 -14 -9.5 -23.5t-23.5 -9.5t-24 10t-10 23v641q0 18 12.5 30t29.5 12h173q91 0 141 -59t50 -141q0 -66 -37 -109t-106 -76q58 -23 81.5 -57.5t30.5 -92.5l3 -28q4 -31 7 -44.5
t15 -28t35 -23.5q33 -13 26 -39q-5 -16 -32 -16h-13q-28 5 -48.5 22.5t-32 45.5t-17.5 54.5t-10 62.5q-2 22 -6.5 37.5t-18 36t-43.5 31.5t-75 11h-98v-270z" />
    <glyph glyph-name="uni0414.BUL" unicode="&#xe0414;" horiz-adv-x="668" 
d="M31 -110v130q0 19 9.5 32t23.5 13h34l192 602q14 49 46 49q29 0 47 -49l190 -602h36q15 0 24.5 -12.5t9.5 -32.5v-130q0 -14 -9.5 -23t-24.5 -9q-13 0 -22.5 9t-9.5 23v111h-482v-111q0 -13 -9 -22.5t-22 -9.5q-14 0 -23.5 9t-9.5 23zM336 607l-166 -542h330z" />
    <glyph glyph-name="uni0416.BUL" unicode="&#xe0416;" horiz-adv-x="746" 
d="M410 683v-350l256 367q12 16 28 16q13 0 21.5 -12t8.5 -25q0 -11 -3 -15l-204 -291l204 -331h-1q4 -7 4 -15q0 -13 -8.5 -24.5t-21.5 -11.5q-16 0 -28 15l-192 305l-64 -93v-193q0 -14 -9.5 -24t-23.5 -10t-24 10t-10 24v195l-64 91l-191 -305q-12 -15 -28 -15
q-14 0 -22.5 11.5t-8.5 24.5q0 6 5 15h-1l203 331l-203 291h1q-5 9 -5 15q0 13 8.5 25t22.5 12q16 0 28 -16l255 -366v349q0 13 10.5 23t23.5 10t23 -10t10 -23z" />
    <glyph glyph-name="uni041B.BUL" unicode="&#xe041b;" horiz-adv-x="549" 
d="M277 607l-180 -592q-5 -9 -14.5 -16.5t-17.5 -7.5q-15 0 -25 9t-10 24q0 7 2 13l199 630q14 49 46 49q31 0 47 -49l199 -630q0 -1 0.5 -6t0.5 -7q0 -15 -10 -24t-25 -9q-9 0 -19 7t-13 17z" />
    <glyph glyph-name="uni0432.BUL" unicode="&#xe0432;" horiz-adv-x="468" 
d="M68 173v339q0 91 44 142.5t125 51.5q72 0 117 -43t45 -124q0 -116 -112 -168q136 -33 136 -175q0 -93 -45.5 -148t-133.5 -55q-84 0 -130 48t-46 132zM359 196q0 70 -31.5 107.5t-111.5 37.5h-83v-171q0 -118 111 -118q115 0 115 144zM133 515v-120h96q35 0 71 34t36 101
q0 57 -28.5 87t-75.5 30q-99 0 -99 -132z" />
    <glyph glyph-name="uni0433.BUL" unicode="&#xe0433;" horiz-adv-x="406" 
d="M355 374q0 -34 -12.5 -59.5t-36 -41.5t-46 -26t-55 -21.5t-49.5 -20.5q-41 -22 -41 -73q0 -84 102 -84q45 0 108 25q3 1 6 1q14 0 22.5 -9t8.5 -21q0 -27 -46.5 -39t-98.5 -12q-81 0 -123 37.5t-42 104.5q0 34 11 59t33 41.5t42 26t52.5 22t48.5 20.5q30 16 41.5 32
t11.5 43q0 81 -99 81q-40 0 -82 -20q-10 -4 -15 -4q-13 0 -21 8.5t-8 20.5q0 26 40.5 38t88.5 12q77 0 118 -38t41 -103z" />
    <glyph glyph-name="uni0434.BUL" unicode="&#xe0434;" horiz-adv-x="485" 
d="M347 100v257q0 47 -31 73.5t-85 26.5q-58 0 -87 -31.5t-29 -89.5v-163q0 -125 109 -125q74 0 123 52zM412 357v-405q0 -81 -44.5 -131.5t-131.5 -50.5q-47 0 -91.5 13.5t-44.5 41.5q0 11 8 19.5t19 8.5q6 0 15 -3h-1q44 -24 86 -24q120 0 120 126v85q-67 -43 -139 -43
q-158 0 -158 179v163q0 79 47 129t134 50q84 0 132.5 -45t48.5 -113z" />
    <glyph glyph-name="uni0436.BUL" unicode="&#xe0436;" horiz-adv-x="628" 
d="M351 700v-403l200 207q6 7 19 7t21.5 -8.5t8.5 -21.5q0 -14 -7 -21l-156 -159l178 -263q4 -8 4 -19h1q-2 -26 -31 -26q-18 0 -27 15l-165 251l-46 -48v-186q0 -13 -9.5 -22.5t-22.5 -9.5q-14 0 -23.5 9t-9.5 23v187l-46 47l-164 -251q-10 -15 -27 -15q-29 0 -31 26
q0 7 5 19l176 263l-154 159q-9 8 -9 21t9 21.5t22 8.5t19 -7l200 -206v402q0 14 9.5 23.5t23.5 9.5q13 0 22.5 -10t9.5 -23z" />
    <glyph glyph-name="uni0437.BUL" unicode="&#xe0437;" horiz-adv-x="408" 
d="M353 329q0 -143 -104 -165v-13q115 -24 115 -179q0 -92 -43 -144t-130 -52q-51 0 -99 12.5t-48 41.5q0 14 12 22.5t21 5.5l6 -2q61 -24 110 -24q55 0 81.5 33t26.5 106q0 150 -128 157q-43 0 -43 28q0 12 7.5 18t13.5 6.5t19 1.5q36 3 61.5 19t37.5 40t17 47t5 48
q0 124 -107 124q-36 0 -84 -20q-10 -4 -16 -4q-12 0 -20.5 8t-8.5 20q0 26 43 38.5t91 12.5q82 0 123 -49t41 -137z" />
    <glyph glyph-name="uni0438.BUL" unicode="&#xe0438;" horiz-adv-x="509" 
d="M366 120v360q0 32 33 32q15 0 23.5 -9t8.5 -23v-360q0 -52 11 -65q15 -18 15 -28q0 -12 -9 -20t-21 -8q-22 0 -43 33q-67 -39 -148 -39q-76 0 -116.5 50t-40.5 136v301q0 14 9 23t24 9t23.5 -9t8.5 -23v-301q0 -62 26.5 -96t76.5 -34q62 0 121 38q-2 20 -2 33z" />
    <glyph glyph-name="uni0439.BUL" unicode="&#xe0439;" horiz-adv-x="509" 
d="M256 632q40 0 72 45q10 14 25 14q27 0 19 -29q-10 -35 -45 -56t-71 -21q-37 0 -74 21t-44 56q-3 13 4.5 21t16.5 8q16 0 24 -14q34 -45 73 -45zM366 120v360q0 32 33 32q15 0 23.5 -9t8.5 -23v-360q0 -52 11 -65q15 -18 15 -28q0 -12 -9 -20t-21 -8q-22 0 -43 33
q-67 -39 -148 -39q-76 0 -116.5 50t-40.5 136v301q0 14 9 23t24 9t23.5 -9t8.5 -23v-301q0 -62 26.5 -96t76.5 -34q62 0 121 38q-2 20 -2 33z" />
    <glyph glyph-name="uni043A.BUL" unicode="&#xe043a;" horiz-adv-x="439" 
d="M145 700v-403l200 207q6 7 19 7t21.5 -8.5t8.5 -21.5q0 -14 -7 -21l-156 -159l177 -263q6 -8 6 -19q1 -12 -8.5 -19t-22.5 -7q-18 0 -27 15l-165 251l-46 -48v-186q0 -13 -9.5 -22.5t-22.5 -9.5q-14 0 -23.5 9t-9.5 23v675q0 14 9.5 23.5t23.5 9.5q13 0 22.5 -10t9.5 -23
z" />
    <glyph glyph-name="uni043B.BUL" unicode="&#xe043b;" horiz-adv-x="430" 
d="M266 469l140 -436v-9q0 -14 -9 -22.5t-22 -8.5q-20 0 -29 21v-1l-126 413l-128 -413q-12 -20 -28 -20q-13 0 -22.5 7.5t-10.5 19.5v7l144 443q15 42 45 42t46 -43z" />
    <glyph glyph-name="uni043F.BUL" unicode="&#xe043f;" horiz-adv-x="509" 
d="M129 464q71 49 150 49q76 0 115.5 -50t39.5 -137v-301q0 -31 -32 -31q-15 0 -24 8.5t-9 22.5v301q0 63 -26 97t-76 34q-59 0 -122 -48q3 -16 3 -34v-350q0 -31 -32 -31q-33 0 -33 31v350q0 50 -18 76q-6 8 -6 17q0 12 8.5 20.5t20.5 8.5q24 0 41 -33z" />
    <glyph glyph-name="uni0442.BUL" unicode="&#xe0442;" horiz-adv-x="778" 
d="M125 466q76 49 153 49q74 0 118 -56q74 56 151 56q78 0 120.5 -45.5t42.5 -122.5v-322q0 -31 -32 -31q-15 0 -24 8.5t-9 22.5v320q0 49 -26 80.5t-75 31.5q-34 0 -67 -17t-54 -43q5 -25 5 -50v-322q0 -31 -32 -31q-33 0 -33 31v299q0 66 -19 99.5t-74 33.5
q-66 0 -127 -46q3 -18 3 -36v-350q0 -31 -32 -31q-33 0 -33 31v350q0 50 -18 76q-6 8 -6 17q0 12 8.5 20.5t20.5 8.5q24 0 39 -31z" />
    <glyph glyph-name="uni0446.BUL" unicode="&#xe0446;" horiz-adv-x="531" 
d="M247 49q60 0 127 41q-9 27 -9 69v321q0 14 9 23t24 9q32 0 32 -32v-321q0 -110 62 -110q14 0 23 -9.5t9 -23.5v-131q0 -13 -9 -22.5t-23 -9.5t-23.5 9.5t-9.5 22.5v119q-30 6 -62 38q-71 -49 -161 -49q-77 0 -117 50t-40 136v301q0 32 33 32q15 0 23.5 -9t8.5 -23v-301
q0 -62 26.5 -96t76.5 -34z" />
    <glyph glyph-name="uni0448.BUL" unicode="&#xe0448;" horiz-adv-x="772" 
d="M141 480v-321q0 -49 26.5 -80t75.5 -31q34 0 67 16.5t54 41.5q-5 22 -5 51v323q0 32 33 32q15 0 23.5 -9t8.5 -23v-300q0 -66 19 -99t74 -33q66 0 124 43v389q0 32 33 32q15 0 23.5 -9t8.5 -23v-370q0 -36 30 -67q4 -4 4 -15q0 -12 -8.5 -20t-19.5 -8q-30 0 -52 35
q-76 -45 -150 -45q-78 0 -117 53q-75 -53 -152 -53q-78 0 -121.5 45.5t-43.5 121.5v323q0 14 9 23t24 9t23.5 -9t8.5 -23z" />
    <glyph glyph-name="uni0449.BUL" unicode="&#xe0449;" horiz-adv-x="805" 
d="M141 480v-321q0 -49 26.5 -80t75.5 -31q35 0 68.5 14.5t53.5 36.5q-7 28 -7 58v323q0 32 33 32q15 0 23.5 -9t8.5 -23v-300q0 -66 19 -99t75 -33q72 0 131 46q-7 29 -7 65v321q0 32 33 32q31 0 31 -32v-321q0 -110 62 -110q14 0 23 -9.5t9 -23.5v-131q0 -13 -9.5 -22.5
t-22.5 -9.5q-14 0 -23.5 9.5t-9.5 22.5v119q-32 7 -63 39q-75 -53 -161 -53q-77 0 -118 53q-74 -53 -151 -53q-78 0 -121.5 45.5t-43.5 121.5v323q0 32 33 32q15 0 23.5 -9t8.5 -23z" />
    <glyph glyph-name="uni044A.BUL" unicode="&#xe044a;" horiz-adv-x="528" 
d="M318 -7q-86 0 -132.5 49t-46.5 126v281h-96q-12 0 -20.5 8.5t-8.5 19.5q0 12 8.5 20.5t20.5 8.5h129q13 0 22.5 -9.5t9.5 -23.5v-191q56 37 114 37q83 0 131 -47t47 -119q-1 -70 -48.5 -115t-129.5 -45zM311 261q-50 0 -78.5 -20t-28.5 -57v-16q0 -55 28.5 -85.5
t85.5 -30.5q53 0 82.5 28t29.5 77q0 104 -119 104z" />
    <glyph glyph-name="uni044C.BUL" unicode="&#xe044c;" horiz-adv-x="472" 
d="M143 479v-197q56 37 114 37q83 0 131 -47t47 -119q-1 -70 -48.5 -115t-129.5 -45q-86 0 -132.5 49t-46.5 126v311q0 13 10 23t23 10t22.5 -9.5t9.5 -23.5zM251 261q-51 0 -79.5 -20t-28.5 -57v-16q0 -55 29 -85.5t85 -30.5q53 0 82.5 28t29.5 77q0 104 -118 104z" />
    <glyph glyph-name="uni044E.BUL" unicode="&#xe044e;" horiz-adv-x="681" 
d="M142 706v-417h129v50q0 77 49 126.5t136 49.5q88 0 136.5 -49.5t48.5 -126.5v-171q0 -77 -48.5 -126t-136.5 -49q-87 0 -136 49t-49 126v68h-129v-211q0 -13 -9 -22.5t-22 -9.5q-14 0 -23.5 9t-9.5 23v681q0 13 9 23t23 10q13 0 22.5 -9.5t9.5 -23.5zM456 52
q59 0 89.5 30.5t30.5 85.5v172q0 55 -30.5 86t-89.5 31q-58 0 -89 -31t-31 -86v-172q0 -55 31 -85.5t89 -30.5z" />
    <glyph glyph-name="uni0431.SRB" unicode="&#xf0431;" horiz-adv-x="464" 
d="M235 481q88 0 136.5 -49.5t48.5 -126.5v-137q0 -77 -48.5 -126t-136.5 -49q-87 0 -136 49t-49 126v137q0 45 26.5 82.5t76.5 59.5q-87 42 -87 122q0 57 45 93t122 44q3 0 8 0.5t7 0.5q25 1 37 2.5t31.5 10t38.5 23.5q14 14 24 14q9 0 16 -8.5t7 -19.5q0 -25 -26.5 -43.5
t-63 -27t-79.5 -10.5q-102 -6 -102 -80q0 -87 104 -87zM235 52q59 0 89.5 30.5t30.5 85.5v138q0 55 -30.5 86t-89.5 31q-58 0 -89 -31t-31 -86v-138q0 -55 31 -85.5t89 -30.5z" />
    <glyph glyph-name="uni0434.tri" unicode="&#xf0434;" horiz-adv-x="538" 
d="M320 469l134 -415h32q13 0 22.5 -9.5t9.5 -23.5v-132q0 -13 -9 -22.5t-23 -9.5t-23.5 9.5t-9.5 22.5v112h-361v-112q0 -13 -9.5 -22.5t-22.5 -9.5q-14 0 -23.5 9t-9.5 23v132q0 14 9.5 23.5t23.5 9.5h34l136 416q15 42 45 42t45 -43zM275 426l-115 -372h228z" />
    <glyph glyph-name="parenright.caps" horiz-adv-x="275" 
d="M140 344q0 225 -99 408q-10 22 -10 24q0 15 8.5 25.5t23.5 10.5q17 0 28 -16q56 -96 85.5 -216t29.5 -236t-29.5 -235.5t-85.5 -215.5q-11 -16 -28 -16q-15 0 -23.5 10.5t-8.5 24.5q0 4 10 24q99 184 99 408z" />
    <glyph glyph-name="parenleft.caps" horiz-adv-x="276" 
d="M138 344q0 -222 100 -408q9 -18 9 -24q0 -14 -8 -24.5t-23 -10.5q-17 0 -28 16q-56 97 -86 216.5t-30 234.5q0 116 30 235.5t86 216.5q11 16 28 16q31 0 31 -36q0 -4 -9 -24q-100 -185 -100 -408z" />
    <glyph glyph-name="zero.numerator" 
d="M123 668q-55 0 -55 -68v-149q0 -28 14.5 -44.5t40.5 -16.5t40.5 16.5t14.5 44.5v149q0 68 -55 68zM123 714q51 0 76.5 -33t25.5 -85v-145q0 -47 -26.5 -76.5t-75.5 -29.5t-77 30t-28 76v145q0 52 26.5 85t78.5 33z" />
    <glyph glyph-name="one.numerator" 
d="M127 367v278l-52 -36q-14 -9 -23 -9q-10 0 -17 6.5t-7 14.5q0 12 13 22l97 61q8 5 14 5q11 0 18 -7.5t7 -19.5v-315q0 -8 -7 -15t-17 -7q-11 0 -18.5 6.5t-7.5 15.5z" />
    <glyph glyph-name="two.numerator" 
d="M227 371q0 -9 -6.5 -15t-15.5 -6h-162q-27 0 -27 23q0 11 5 21q19 45 88 112l20 21t23 25q26 24 26 57q0 27 -14.5 43t-41.5 16q-19 0 -44 -9l-13 -6q-12 -7 -19 -7q-9 0 -17 6t-8 15q0 11 6 17q46 30 95 30q48 0 75.5 -28t27.5 -71q0 -54 -34 -95q-4 -5 -32 -33l-10 -10
q-53 -49 -71 -81h127q8 0 15 -7.5t7 -17.5z" />
    <glyph glyph-name="three.numerator" 
d="M210 659l-78 -100q40 -3 66 -30t26 -70q0 -44 -26.5 -79t-77.5 -35q-11 0 -25 1.5t-32 5t-30.5 12t-12.5 20.5q0 11 7 18t17 7q3 0 15 -6q24 -14 52 -14q34 0 49.5 20.5t15.5 48.5q0 60 -62 60q-11 0 -17 -3l-3 -2q-1 -1 -8 -1q-13 0 -19 12.5t2 23.5l82 108h-99
q-11 0 -18.5 6t-7.5 16q0 11 7.5 19t18.5 8h137q24 0 24 -29q0 -14 -3 -17z" />
    <glyph glyph-name="four.numerator" 
d="M204 422v-55q0 -9 -7 -15.5t-17 -6.5q-11 0 -18 6.5t-7 15.5v55h-117q-12 0 -19 7.5t-7 18.5q2 8 5 13l96 237q6 15 19 15q9 0 16.5 -7.5t7.5 -18.5q0 -6 -1 -8l-84 -211h84v91q0 11 7 17.5t18 6.5q10 0 17 -7t7 -17v-91h15q10 0 16.5 -6.5t6.5 -16.5q0 -9 -6.5 -16
t-16.5 -7h-15z" />
    <glyph glyph-name="five.numerator" 
d="M224 462q0 -47 -26 -82t-77 -35q-11 0 -25 1.5t-32.5 5t-31 12t-12.5 20.5q0 11 7 18t17 7q6 0 13 -5q26 -15 54 -15q65 0 65 71q0 34 -16 52t-41 18q-15 0 -32 -10l-13 -8q-10 -6 -16 -6q-10 0 -17.5 7.5t-6.5 17.5l3 146q0 13 9 20.5t20 7.5h118q27 0 27 -25
q0 -22 -27 -22h-102l-4 -95q20 10 42 10q47 0 75.5 -29.5t28.5 -81.5z" />
    <glyph glyph-name="six.numerator" 
d="M135 663q-66 0 -70 -108q29 17 62 17q45 0 73.5 -28.5t28.5 -83.5q0 -50 -27 -82.5t-79 -32.5q-109 0 -109 171q0 193 114 193q14 0 29.5 -1.5t33.5 -9.5t18 -22q0 -8 -6.5 -15t-16.5 -7l-12 3q-22 6 -39 6zM64 498v-8q0 -98 61 -98q30 0 43.5 19.5t13.5 47.5
q0 67 -57 67q-29 0 -61 -28z" />
    <glyph glyph-name="seven.numerator" 
d="M225 678q0 -5 -2 -13l-121 -307q-2 -5 -8.5 -9t-13.5 -4q-9 0 -17 7t-7 18q1 4 2 6l113 280h-127q-11 0 -18 6.5t-7 16.5q0 11 7 18.5t18 7.5h158q9 0 16 -8t7 -19z" />
    <glyph glyph-name="eight.numerator" 
d="M235 449q0 -46 -31 -75t-81 -29t-82 28.5t-32 73.5q0 57 56 89q-45 33 -45 79q0 42 30 68t72 26q43 0 71.5 -26.5t28.5 -66.5q0 -50 -40 -77q53 -34 53 -90zM176 614q0 23 -15 36t-38 13t-38.5 -13t-15.5 -36t15 -37.5t38 -18.5q22 6 38 21t16 35zM188 450q0 24 -20 41
t-47 24q-27 -8 -45.5 -25.5t-18.5 -40.5q0 -25 19 -42.5t47 -17.5t46.5 17.5t18.5 43.5z" />
    <glyph glyph-name="nine.numerator" 
d="M111 389q66 0 70 108q-25 -17 -62 -17q-45 0 -75 29t-30 82q0 52 27 85t79 33q61 0 85 -45t24 -132q0 -187 -112 -187q-80 0 -81 29q-1 14 6.5 21.5t17.5 3.5l13 -5q12 -5 38 -5zM181 552v8q0 100 -62 100q-55 0 -55 -69q0 -63 57 -63q32 0 60 24z" />
    <glyph glyph-name="parenleft.numerator" horiz-adv-x="138" 
d="M76 520q0 -106 47 -192q4 -8 4 -12q0 -10 -6 -17t-17 -7q-12 0 -19 11q-59 99 -59 217q0 51 16 111.5t43 107.5q7 14 19 14q10 0 16.5 -8.5t6.5 -18.5q0 -5 -4 -12q-1 0 -1 -2q-46 -82 -46 -192z" />
    <glyph glyph-name="parenright.numerator" horiz-adv-x="137" 
d="M59 520q0 111 -48 194l-2 3l1 -1q-4 5 -4 10q0 10 6.5 18.5t18.5 8.5q11 0 21 -14q55 -99 55 -219q0 -124 -55 -217q-8 -11 -21 -11q-12 0 -18.5 7t-6.5 17q3 7 7 14q46 87 46 190z" />
    <glyph glyph-name="hyphen.numerator" horiz-adv-x="199" 
d="M182 497q0 -9 -6.5 -15.5t-15.5 -6.5h-123q-10 0 -17 6.5t-7 15.5q0 11 7 18t17 7h123q9 0 15.5 -7.5t6.5 -17.5z" />
    <glyph glyph-name="comma.numerator" horiz-adv-x="115" 
d="M86 374q0 -25 -14.5 -54.5t-25.5 -29.5q-16 0 -16 13q0 9 10 25l9 18q-25 8 -25 28q0 14 9.5 23.5t23.5 9.5q13 0 21 -9.5t8 -23.5z" />
    <glyph glyph-name="period.numerator" horiz-adv-x="115" 
d="M86 374q0 -13 -8 -21t-21 -8q-14 0 -23.5 8t-9.5 21q0 14 9.5 23.5t23.5 9.5q13 0 21 -9.5t8 -23.5z" />
    <glyph glyph-name="zero.denominator" 
d="M123 316q-55 0 -55 -68v-149q0 -28 14.5 -44.5t40.5 -16.5t40.5 16.5t14.5 44.5v149q0 68 -55 68zM123 362q51 0 76.5 -33t25.5 -85v-145q0 -47 -26.5 -76.5t-75.5 -29.5t-77 30t-28 76v145q0 52 26.5 85t78.5 33z" />
    <glyph glyph-name="one.denominator" 
d="M127 15v278l-52 -36q-14 -9 -23 -9q-10 0 -17 6.5t-7 14.5q0 12 13 22l97 61q8 5 14 5q11 0 18 -7.5t7 -19.5v-315q0 -8 -7 -15t-17 -7q-11 0 -18.5 6.5t-7.5 15.5z" />
    <glyph glyph-name="two.denominator" 
d="M227 19q0 -9 -6.5 -15t-15.5 -6h-162q-27 0 -27 23q0 11 5 21q19 45 88 112l20 21t23 25q26 24 26 57q0 27 -14.5 43t-41.5 16q-19 0 -44 -9l-13 -6q-12 -7 -19 -7q-9 0 -17 6t-8 15q0 11 6 17q46 30 95 30q48 0 75.5 -28t27.5 -71q0 -54 -34 -95q-5 -6 -32 -33l-10 -10
q-53 -49 -71 -81h127q8 0 15 -7.5t7 -17.5z" />
    <glyph glyph-name="three.denominator" 
d="M210 307l-78 -100q40 -3 66 -30t26 -70q0 -44 -26.5 -79t-77.5 -35q-11 0 -25 1.5t-32 5t-30.5 12t-12.5 20.5q0 11 7 18t17 7q3 0 15 -6q24 -14 52 -14q34 0 49.5 20.5t15.5 48.5q0 60 -62 60q-11 0 -17 -3l-3 -2q-1 -1 -8 -1q-13 0 -19 12.5t2 23.5l82 108h-99
q-11 0 -18.5 6t-7.5 16q0 11 7.5 19t18.5 8h137q24 0 24 -29q0 -14 -3 -17z" />
    </font>
</defs>
</svg>
